<svg version="1.1" viewBox="0.0 0.0 850.0 264.0" fill="none" stroke="none" stroke-linecap="square" stroke-miterlimit="10" xmlns:xlink="http://www.w3.org/1999/xlink" xmlns="http://www.w3.org/2000/svg"><clipPath id="p.0"><path d="m0 0l850.0 0l0 264.0l-850.0 0l0 -264.0z" clip-rule="nonzero"/></clipPath><g clip-path="url(#p.0)"><path fill="#000000" fill-opacity="0.0" d="m0 0l850.0 0l0 264.0l-850.0 0z" fill-rule="evenodd"/><path fill="#000000" fill-opacity="0.0" d="m197.0 132.0l0 0c0 -63.430122 51.420273 -114.850395 114.8504 -114.850395l0 0c30.460205 0 59.67285 12.100275 81.21149 33.6389c21.538635 21.538624 33.638885 50.75127 33.638885 81.21149l0 0c0 63.430115 -51.420258 114.85039 -114.85037 114.85039l0 0c-63.43013 0 -114.8504 -51.420273 -114.8504 -114.85039z" fill-rule="evenodd"/><path stroke="#000000" stroke-width="1.0" stroke-linejoin="round" stroke-linecap="butt" d="m197.0 132.0l0 0c0 -63.430122 51.420273 -114.850395 114.8504 -114.850395l0 0c30.460205 0 59.67285 12.100275 81.21149 33.6389c21.538635 21.538624 33.638885 50.75127 33.638885 81.21149l0 0c0 63.430115 -51.420258 114.85039 -114.85037 114.85039l0 0c-63.43013 0 -114.8504 -51.420273 -114.8504 -114.85039z" fill-rule="evenodd"/><path fill="#000000" fill-opacity="0.0" d="m321.8058 132.0l0 0c0 -63.430122 51.420258 -114.850395 114.85037 -114.850395l0 0c30.460236 0 59.672882 12.100275 81.21152 33.6389c21.538635 21.538624 33.638916 50.75127 33.638916 81.21149l0 0c0 63.430115 -51.420288 114.85039 -114.85043 114.85039l0 0c-63.430115 0 -114.85037 -51.420273 -114.85037 -114.85039z" fill-rule="evenodd"/><path stroke="#000000" stroke-width="1.0" stroke-linejoin="round" stroke-linecap="butt" d="m321.8058 132.0l0 0c0 -63.430122 51.420258 -114.850395 114.85037 -114.850395l0 0c30.460236 0 59.672882 12.100275 81.21152 33.6389c21.538635 21.538624 33.638916 50.75127 33.638916 81.21149l0 0c0 63.430115 -51.420288 114.85039 -114.85043 114.85039l0 0c-63.430115 0 -114.85037 -51.420273 -114.85037 -114.85039z" fill-rule="evenodd"/><path fill="#000000" fill-opacity="0.0" d="m256.10236 89.00787l33.5748 0l0 85.98425l-33.5748 0z" fill-rule="evenodd"/><path fill="#000000" d="m278.36798 101.78725q-0.515625 0.578125 -1.53125 2.765625l3.125 0q-0.0625 1.390625 -0.0625 2.78125q0 1.3125 0.0625 2.6875l-11.4375 0q0.078125 -1.53125 0.078125 -2.84375q0 -1.375 -0.078125 -2.625l2.921875 0q-0.8125 -1.3125 -1.890625 -2.46875q0.5 -0.296875 1.015625 -0.875q1.375 1.453125 2.03125 2.46875q-0.5 0.375 -0.9375 0.875l3.78125 0q0.953125 -2.328125 1.171875 -3.484375q1.015625 0.5 1.75 0.71875zm0.140625 7.0l0 -3.140625l-8.59375 0l0 3.140625l8.59375 0zm-6.78125 2.90625q-0.0625 1.171875 -0.0625 2.265625q0 1.09375 0.03125 1.640625q0.03125 0.546875 1.203125 0.546875l3.859375 0q0.953125 0 1.171875 -1.828125q0.734375 0.4375 1.53125 0.65625q-0.4375 1.53125 -1.0625 1.9375q-0.609375 0.40625 -1.640625 0.328125l-4.875 0q-1.390625 0 -1.46875 -0.8125q-0.0625 -0.796875 -0.0625 -2.03125q0 -1.3125 -0.078125 -2.703125l1.453125 0zm-2.6875 0.375q-0.875 2.984375 -1.53125 4.59375q-0.578125 -0.296875 -1.3125 -0.59375q0.875 -1.671875 1.53125 -4.515625q0.578125 0.21875 1.3125 0.515625zm10.484375 -0.734375q2.1875 2.1875 3.0625 3.28125q-0.5 0.515625 -1.09375 1.015625q-0.71875 -1.015625 -2.984375 -3.421875q0.4375 -0.296875 1.015625 -0.875zm-4.65625 2.921875q-1.09375 -1.75 -1.96875 -2.703125q0.4375 -0.4375 0.953125 -0.875q0.65625 0.65625 2.1875 2.703125q-0.65625 0.28125 -1.171875 0.875z" fill-rule="nonzero"/><path fill="#000000" d="m266.66486 137.77162q2.453125 -1.625 3.859375 -3.859375l1.5625 0.828125q0.359375 0.296875 -0.296875 0.296875q-1.484375 2.140625 -3.859375 3.9375l-1.265625 -1.203125zm15.4375 -8.15625q-4.96875 -1.9375 -7.875 -5.265625q-1.484375 2.375 -4.15625 4.0l8.984375 0l0 1.40625l-3.78125 0l0 2.015625l6.90625 0l0 1.40625l-6.90625 0l0 5.125q0 1.1875 -1.1875 1.1875l-1.40625 0l-0.234375 -1.40625l1.046875 0q0.296875 0 0.296875 -0.3125l0 -4.59375l-6.828125 0l0 -1.40625l6.828125 0l0 -2.015625l-3.859375 0l0 -1.328125q-1.5625 1.109375 -3.125 1.625l-0.65625 -1.546875q5.1875 -1.78125 7.34375 -5.9375l1.78125 0.359375q0.296875 0.296875 -0.21875 0.375q3.03125 3.125 7.859375 4.671875l-0.8125 1.640625zm-3.71875 4.296875q1.71875 1.78125 4.09375 3.5625l-1.265625 1.203125q-2.375 -1.71875 -4.078125 -3.875l1.25 -0.890625z" fill-rule="nonzero"/><path fill="#000000" d="m270.71173 149.14662q-0.578125 0.4375 -1.09375 1.015625l4.078125 0q-0.21875 0.578125 -0.734375 1.390625q-0.5 0.796875 -1.15625 1.671875q0.578125 0.296875 1.203125 0.65625q0.625 0.359375 1.640625 1.015625q-0.4375 0.4375 -0.953125 1.171875q-0.71875 -0.59375 -1.375 -0.984375q-0.65625 -0.40625 -1.53125 -0.84375q-1.09375 0.875 -2.328125 1.671875l4.796875 0q-0.0625 1.25 -0.0625 2.5625q0 1.3125 0.0625 2.765625l-1.375 0l0 -1.171875l-2.921875 0l0 1.53125l-1.3125 0q0.078125 -1.453125 0.078125 -2.46875l0 -2.625q-0.65625 0.28125 -1.015625 0.5q-0.4375 -0.65625 -0.953125 -1.15625q1.171875 -0.4375 2.1875 -1.046875q1.015625 -0.625 1.671875 -1.28125q-0.71875 -0.4375 -1.375 -0.8125q0.28125 -0.4375 0.796875 -0.9375q0.796875 0.4375 1.671875 0.875q0.65625 -0.734375 1.09375 -1.46875l-2.90625 0q-0.296875 0.375 -0.8125 0.921875q-0.5 0.546875 -1.09375 1.203125q-0.5 -0.4375 -1.15625 -0.875q1.15625 -0.875 2.0 -1.9375q0.84375 -1.0625 1.28125 -2.0q0.796875 0.359375 1.59375 0.65625zm6.484375 -2.046875q-1.09375 0 -2.25 0.078125l0 -1.3125q1.09375 0.0625 2.40625 0.0625l3.203125 0q0.875 0 2.03125 -0.0625l0 1.3125q-1.09375 -0.078125 -2.03125 -0.078125l-1.03125 0q-0.28125 1.234375 -0.640625 2.546875l2.984375 0q-0.078125 1.171875 -0.078125 2.1875l0 3.359375q0 0.9375 0.078125 2.328125l-1.3125 0l0 -6.84375l-4.015625 0l0 6.921875l-1.375 0q0.0625 -1.390625 0.0625 -2.484375l0 -3.34375q0 -1.09375 -0.0625 -2.125l2.46875 0q0.296875 -1.453125 0.4375 -2.546875l-0.875 0zm-6.125 -2.03125q0.15625 0.796875 0.4375 1.8125l3.0 0q-0.078125 0.578125 -0.078125 1.171875q0 0.578125 0.078125 1.15625l-1.3125 0l0 -1.234375l-5.546875 0l0 1.75l-1.375 0q0.0625 -0.796875 0.0625 -1.453125q0 -0.734375 -0.0625 -1.390625l3.640625 0q-0.296875 -0.796875 -0.515625 -1.53125q0.953125 -0.140625 1.671875 -0.28125zm8.390625 6.921875q-0.21875 0.875 -0.265625 2.046875q-0.03125 1.15625 -0.359375 2.46875q-0.328125 1.3125 -1.3125 2.703125q-0.984375 1.375 -2.953125 2.6875q-0.578125 -0.734375 -1.15625 -1.234375q1.53125 -0.65625 2.4375 -1.5q0.90625 -0.84375 1.375 -1.96875q0.484375 -1.125 0.546875 -2.359375q0.078125 -1.25 0.078125 -3.0q0.59375 0.078125 1.609375 0.15625zm-7.578125 6.984375l0 -2.03125l-2.921875 0l0 2.03125l2.921875 0zm8.015625 -1.375q0.65625 0.65625 1.203125 1.171875q0.546875 0.5 1.5625 1.453125q-0.65625 0.5 -1.234375 1.15625q-0.4375 -0.65625 -0.953125 -1.203125q-0.515625 -0.546875 -1.75 -1.421875q0.578125 -0.5 1.171875 -1.15625z" fill-rule="nonzero"/><path fill="#000000" fill-opacity="0.0" d="m460.16272 89.00787l33.5748 0l0 85.98425l-33.5748 0z" fill-rule="evenodd"/><path fill="#000000" d="m484.31897 101.92787q1.09375 0 2.1875 -0.0625l0 1.234375q-1.09375 -0.078125 -2.1875 -0.078125l-2.03125 0q-0.21875 1.09375 -0.4375 2.40625l4.0 0q-0.078125 1.09375 -0.078125 2.34375l0 3.125q0 1.234375 0.078125 2.546875l-1.390625 0l0 -6.921875l-4.953125 0l0 7.078125l-1.375 0q0.0625 -1.6875 0.0625 -2.703125l0 -3.0625q0 -1.15625 -0.0625 -2.40625l2.40625 0q0.28125 -1.59375 0.28125 -2.40625l-0.796875 0q-1.234375 0 -2.546875 0.078125l0 -1.234375q1.375 0.0625 2.546875 0.0625l4.296875 0zm-7.578125 8.828125q-0.734375 -0.140625 -1.3125 -0.140625q0.296875 -1.25 0.4375 -1.828125l-1.609375 0l0 6.78125q-0.0625 1.234375 -0.9375 1.515625q-0.875 0.296875 -1.96875 0.296875q-0.140625 -0.796875 -0.515625 -1.53125q1.609375 0.15625 1.859375 -0.03125q0.265625 -0.1875 0.265625 -0.90625l0 -6.125l-0.8125 0q-0.9375 0 -1.96875 0.078125l0 -1.25q1.03125 0.078125 1.90625 0.078125l5.390625 0q-0.375 1.453125 -0.734375 3.0625zm6.203125 -3.203125q-0.296875 0.875 -0.375 2.265625q-0.0625 1.375 -0.390625 3.09375q-0.328125 1.703125 -1.46875 2.84375q-1.125 1.125 -3.015625 2.140625q-0.65625 -0.515625 -1.3125 -0.953125q1.75 -0.65625 2.796875 -1.59375q1.0625 -0.953125 1.5 -2.15625q0.4375 -1.203125 0.546875 -2.65625q0.109375 -1.453125 0.109375 -3.140625l1.609375 0.15625zm-9.046875 -0.078125q-1.015625 -1.09375 -2.40625 -2.1875q0.375 -0.359375 0.8125 -0.875q0.5 0.359375 1.015625 0.796875q0.9375 -1.375 1.53125 -2.03125l-1.609375 0q-1.453125 0 -2.765625 0.0625l0 -1.234375q1.3125 0.078125 2.703125 0.078125l3.484375 0l0 1.09375q-1.09375 0.796875 -2.46875 2.84375l0.65625 0.578125q-0.59375 0.515625 -0.953125 0.875zm9.1875 6.34375q2.765625 2.109375 3.78125 3.0625q-0.65625 0.5 -1.015625 0.9375q-0.953125 -0.9375 -1.71875 -1.640625q-0.765625 -0.6875 -1.78125 -1.265625q0.375 -0.515625 0.734375 -1.09375z" fill-rule="nonzero"/><path fill="#000000" d="m475.61584 124.05287q-0.4375 1.84375 -1.328125 3.703125q0.734375 0.15625 0.140625 0.59375l0 10.984375l-1.484375 0l0 -9.203125q-0.8125 1.1875 -1.625 2.0l-1.1875 -1.328125q3.1875 -3.046875 4.15625 -7.796875l1.5625 0.59375q0.296875 0.296875 -0.234375 0.453125zm6.90625 3.265625l0 -4.234375l1.40625 0q0.59375 0.078125 0.078125 0.4375l0 3.796875l3.046875 0l0 1.40625l-3.046875 0l0 9.203125q0 1.1875 -1.1875 1.1875l-2.21875 0l-0.375 -1.40625l2.0 0q0.296875 0 0.296875 -0.296875l0 -8.6875l-6.671875 0l0 -1.40625l6.671875 0zm-4.296875 3.328125q1.25 1.5625 2.296875 3.5l-1.484375 0.953125q-1.046875 -2.140625 -2.234375 -3.5625l1.421875 -0.890625z" fill-rule="nonzero"/><path fill="#000000" d="m478.28772 151.53725q1.78125 -2.453125 2.375 -6.96875l1.5625 0.21875q0.21875 0.21875 -0.140625 0.4375l-0.59375 2.671875l4.375 0l0.140625 -0.296875l1.125 0.53125q0.515625 0.21875 -0.078125 0.515625q-0.75 2.375 -2.0 4.15625l-1.265625 -0.75q1.109375 -1.703125 1.40625 -2.734375l-2.0 0l0 2.671875q0 4.296875 4.296875 7.484375l-1.03125 1.5q-3.125 -2.53125 -3.78125 -5.71875q-0.75 4.0 -4.234375 6.234375l-1.046875 -1.1875q4.3125 -2.75 4.3125 -8.25l0 -2.734375l-0.59375 0q-0.59375 1.78125 -1.5625 3.03125l-1.265625 -0.8125zm-3.109375 -6.96875q0.59375 0.0625 0.078125 0.4375l0 1.703125l3.328125 0l0 1.1875l-3.328125 0l0 1.640625l2.734375 0l0 1.1875l-6.96875 0l0 -1.1875l2.75 0l0 -1.640625l-3.265625 0l0 -1.1875l3.265625 0l0 -2.140625l1.40625 0zm0.140625 15.734375q0 1.1875 -1.1875 1.1875l-1.109375 0l-0.140625 -1.40625l0.65625 0q0.296875 0 0.296875 -0.3125l0 -4.15625l-3.78125 0l0 -1.1875l8.90625 0l0 1.1875l-3.640625 0l0 4.6875zm2.671875 -7.203125l-6.96875 0l0 -1.1875l6.96875 0l0 1.1875zm-5.109375 3.703125q0.65625 0.234375 -0.078125 0.59375q-0.296875 1.265625 -1.5625 2.984375l-1.265625 -0.96875q1.1875 -1.484375 1.5625 -3.046875l1.34375 0.4375zm4.296875 -0.59375q1.046875 1.046875 1.5625 2.15625l-1.34375 0.890625q-0.65625 -1.265625 -1.40625 -2.296875l1.1875 -0.75z" fill-rule="nonzero"/><path fill="#000000" fill-opacity="0.0" d="m358.13123 79.603676l33.5748 0l0 85.984245l-33.5748 0z" fill-rule="evenodd"/><path fill="#000000" d="m381.9281 93.992424q1.59375 0 2.625 -0.078125l0 1.390625q-1.25 -0.078125 -2.703125 -0.078125l-4.59375 0q-1.3125 2.703125 -2.1875 4.078125l3.140625 0q0 -1.59375 -0.078125 -2.546875l1.609375 0q-0.078125 0.734375 -0.078125 2.546875l1.171875 0q1.671875 0 2.84375 -0.0625l0 1.375q-1.171875 -0.0625 -2.84375 -0.0625l-1.171875 0l0 5.609375q0 1.3125 -0.796875 1.640625q-0.796875 0.328125 -2.1875 0.609375q-0.140625 -0.875 -0.578125 -1.75q1.59375 0 1.84375 -0.171875q0.265625 -0.1875 0.265625 -0.984375l0 -4.953125q-3.28125 -0.078125 -4.59375 0.359375q-0.21875 -0.875 -0.515625 -1.53125q0.59375 -0.296875 1.203125 -1.28125q0.625 -0.984375 1.421875 -2.875q-2.109375 0 -3.203125 0.078125l0 -1.390625q1.171875 0.078125 3.71875 0.078125q0.734375 -2.046875 0.796875 -2.765625q0.8125 0.359375 1.6875 0.65625q-0.296875 0.28125 -1.03125 2.109375l4.234375 0zm-9.703125 6.484375q-0.640625 1.09375 -1.515625 2.921875q-0.875 1.8125 -1.46875 2.90625q-0.65625 -0.734375 -1.375 -1.09375q0.9375 -1.3125 1.703125 -2.84375q0.765625 -1.53125 1.359375 -2.90625q0.5 0.65625 1.296875 1.015625zm4.375 2.546875q-0.4375 0.4375 -1.453125 1.640625q-1.015625 1.203125 -2.1875 2.515625q-0.4375 -0.65625 -1.15625 -1.09375q0.859375 -0.734375 1.875 -1.9375q1.03125 -1.203125 1.609375 -2.21875q0.65625 0.578125 1.3125 1.09375zm5.328125 -1.09375q0.71875 0.796875 1.453125 1.75q0.734375 0.953125 1.53125 2.046875q-0.734375 0.359375 -1.3125 0.9375q-0.65625 -1.234375 -2.765625 -3.78125q0.578125 -0.375 1.09375 -0.953125zm-12.390625 -9.03125q1.890625 2.328125 2.625 3.28125q-0.578125 0.28125 -1.390625 0.9375q-0.578125 -1.09375 -2.46875 -3.28125q0.71875 -0.4375 1.234375 -0.9375z" fill-rule="nonzero"/><path fill="#000000" d="m383.81873 122.9143q-0.078125 0.9375 -0.078125 2.109375l0 2.484375q0 1.3749924 0.078125 2.4062424l-1.453125 0l0 -1.390625l-4.953125 0l0 1.53125l-1.46875 0q0.078125 -1.890625 0.078125 -2.4843674l0 -2.6875q0 -0.875 -0.078125 -1.96875l7.875 0zm-11.15625 -8.53125q-0.578125 0.734375 -1.234375 1.90625q-0.65625 1.15625 -1.59375 2.90625q1.59375 -0.078125 2.328125 -0.078125q0.65625 -1.15625 1.09375 -2.25q0.71875 0.5 1.59375 0.9375q-0.359375 0.296875 -1.28125 1.609375q-0.90625 1.3125 -2.859375 4.296875q2.390625 -0.359375 3.78125 -0.578125q-0.21875 0.796875 -0.21875 1.375q-0.65625 0.078125 -2.328125 0.296875q-1.671875 0.21875 -3.28125 0.65625q-0.296875 -0.734375 -0.515625 -1.453125q0.875 -0.21875 1.75 -1.34375q0.875 -1.140625 1.53125 -2.375q-0.5 0 -1.484375 0.109375q-0.984375 0.109375 -1.71875 0.328125q-0.21875 -0.734375 -0.4375 -1.390625q0.796875 -0.65625 1.703125 -2.25q0.921875 -1.609375 1.4375 -3.5q0.875 0.4375 1.734375 0.796875zm6.34375 1.96875q0 -1.234375 -0.0625 -2.90625l1.53125 0q-0.078125 1.296875 -0.078125 2.90625l2.109375 0q1.390625 0 2.546875 -0.078125l0 1.3125q-1.15625 -0.0625 -2.46875 -0.0625l-2.1875 0l0 2.40625l1.671875 0q1.015625 0 2.046875 -0.078125l0 1.3125q-0.875 -0.078125 -2.125 -0.078125l-4.21875 0q-1.234375 0 -2.1875 0.078125l0 -1.3125q0.953125 0.078125 2.046875 0.078125l1.375 0l0 -2.40625l-1.59375 0q-1.3125 0 -2.484375 0.0625l0 -1.3125q0.953125 0.078125 2.328125 0.078125l1.75 0zm3.359375 11.0l0 -3.28125l-4.953125 0l0 3.28125l4.953125 0zm-7.734375 -0.71875q-0.21875 0.65625 -0.140625 1.3749924q-1.390625 0.21875 -3.140625 0.515625q-1.734375 0.296875 -2.984375 0.65625q-0.28125 -0.953125 -0.578125 -1.6718674q1.53125 -0.078125 2.765625 -0.25q1.25 -0.1875 4.078125 -0.625z" fill-rule="nonzero"/><path fill="#000000" d="m380.0531 140.42992q-1.71875 -1.046875 -3.5 -3.71875q-1.546875 2.53125 -3.1875 3.71875l6.6875 0zm-4.234375 9.578125l0 -4.828125l-6.234375 0l0 -1.40625l6.234375 0l0 -1.9375l-2.890625 0l0 -1.03125q-1.78125 1.40625 -4.234375 2.21875l-0.75 -1.625q5.71875 -1.859375 7.796875 -6.3125l1.859375 0.21875q0.375 0.078125 -0.078125 0.453125q2.53125 3.5625 7.578125 5.109375l-0.828125 1.71875q-2.140625 -0.75 -4.0 -2.015625l0 1.265625l-2.96875 0l0 1.9375l6.3125 0l0 1.40625l-6.3125 0l0 4.828125l6.90625 0l0 1.40625l-15.078125 0l0 -1.40625l6.6875 0zm-2.96875 -0.375q-0.75 -1.703125 -1.484375 -2.890625l1.484375 -0.75q0.8125 1.1875 1.484375 2.828125l-1.484375 0.8125zm6.015625 -0.671875q0.65625 -1.328125 1.25 -3.265625l1.421875 0.453125q0.953125 0.21875 0.140625 0.515625q-0.515625 1.40625 -1.265625 2.8125l-1.546875 -0.515625z" fill-rule="nonzero"/><path fill="#000000" d="m372.7406 161.74242q-0.578125 0.4375 -1.09375 1.015625l4.078125 0q-0.21875 0.578125 -0.734375 1.390625q-0.5 0.796875 -1.15625 1.671875q0.578125 0.296875 1.203125 0.65625q0.625 0.359375 1.640625 1.015625q-0.4375 0.4375 -0.953125 1.171875q-0.71875 -0.59375 -1.375 -0.984375q-0.65625 -0.40625 -1.53125 -0.84375q-1.09375 0.875 -2.328125 1.671875l4.796875 0q-0.0625 1.25 -0.0625 2.5625q0 1.3125 0.0625 2.765625l-1.375 0l0 -1.171875l-2.921875 0l0 1.53125l-1.3125 0q0.078125 -1.453125 0.078125 -2.46875l0 -2.625q-0.65625 0.28125 -1.015625 0.5q-0.4375 -0.65625 -0.953125 -1.15625q1.171875 -0.4375 2.1875 -1.046875q1.015625 -0.625 1.671875 -1.28125q-0.71875 -0.4375 -1.375 -0.8125q0.28125 -0.4375 0.796875 -0.9375q0.796875 0.4375 1.671875 0.875q0.65625 -0.734375 1.09375 -1.46875l-2.90625 0q-0.296875 0.375 -0.8125 0.921875q-0.5 0.546875 -1.09375 1.203125q-0.5 -0.4375 -1.15625 -0.875q1.15625 -0.875 2.0 -1.9375q0.84375 -1.0625 1.28125 -2.0q0.796875 0.359375 1.59375 0.65625zm6.484375 -2.046875q-1.09375 0 -2.25 0.078125l0 -1.3125q1.09375 0.0625 2.40625 0.0625l3.203125 0q0.875 0 2.03125 -0.0625l0 1.3125q-1.09375 -0.078125 -2.03125 -0.078125l-1.03125 0q-0.28125 1.234375 -0.640625 2.546875l2.984375 0q-0.078125 1.171875 -0.078125 2.1875l0 3.359375q0 0.9375 0.078125 2.328125l-1.3125 0l0 -6.84375l-4.015625 0l0 6.921875l-1.375 0q0.0625 -1.390625 0.0625 -2.484375l0 -3.34375q0 -1.09375 -0.0625 -2.125l2.46875 0q0.296875 -1.453125 0.4375 -2.546875l-0.875 0zm-6.125 -2.03125q0.15625 0.796875 0.4375 1.8125l3.0 0q-0.078125 0.578125 -0.078125 1.171875q0 0.578125 0.078125 1.15625l-1.3125 0l0 -1.234375l-5.546875 0l0 1.75l-1.375 0q0.0625 -0.796875 0.0625 -1.453125q0 -0.734375 -0.0625 -1.390625l3.640625 0q-0.296875 -0.796875 -0.515625 -1.53125q0.953125 -0.140625 1.671875 -0.28125zm8.390625 6.921875q-0.21875 0.875 -0.265625 2.046875q-0.03125 1.15625 -0.359375 2.46875q-0.328125 1.3125 -1.3125 2.703125q-0.984375 1.375 -2.953125 2.6875q-0.578125 -0.734375 -1.15625 -1.234375q1.53125 -0.65625 2.4375 -1.5q0.90625 -0.84375 1.375 -1.96875q0.484375 -1.125 0.546875 -2.359375q0.078125 -1.25 0.078125 -3.0q0.59375 0.078125 1.609375 0.15625zm-7.578125 6.984375l0 -2.03125l-2.921875 0l0 2.03125l2.921875 0zm8.015625 -1.375q0.65625 0.65625 1.203125 1.171875q0.546875 0.5 1.5625 1.453125q-0.65625 0.5 -1.234375 1.15625q-0.4375 -0.65625 -0.953125 -1.203125q-0.515625 -0.546875 -1.75 -1.421875q0.578125 -0.5 1.171875 -1.15625z" fill-rule="nonzero"/></g></svg>