<svg version="1.1" viewBox="0.0 0.0 1093.0314960629921 298.18372703412075" fill="none" stroke="none" stroke-linecap="square" stroke-miterlimit="10" xmlns:xlink="http://www.w3.org/1999/xlink" xmlns="http://www.w3.org/2000/svg"><clipPath id="p.0"><path d="m0 0l1093.0315 0l0 298.18372l-1093.0315 0l0 -298.18372z" clip-rule="nonzero"/></clipPath><g clip-path="url(#p.0)"><path fill="#000000" fill-opacity="0.0" d="m0 0l1093.0315 0l0 298.18372l-1093.0315 0z" fill-rule="evenodd"/><path fill="#000000" fill-opacity="0.0" d="m813.2441 124.92126l250.36224 0l0 94.614174l-250.36224 0z" fill-rule="evenodd"/><path fill="#000000" d="m823.6503 158.63564l0 -15.296875l1.703125 0l0 1.4375q0.609375 -0.84375 1.359375 -1.265625q0.765625 -0.421875 1.859375 -0.421875q1.40625 0 2.484375 0.734375q1.09375 0.71875 1.640625 2.046875q0.546875 1.328125 0.546875 2.921875q0 1.6875 -0.609375 3.046875q-0.59375 1.359375 -1.765625 2.09375q-1.15625 0.71875 -2.4375 0.71875q-0.9375 0 -1.6875 -0.390625q-0.734375 -0.40625 -1.21875 -1.0l0 5.375l-1.875 0zm1.703125 -9.703125q0 2.140625 0.859375 3.15625q0.859375 1.015625 2.09375 1.015625q1.25 0 2.140625 -1.046875q0.890625 -1.0625 0.890625 -3.28125q0 -2.109375 -0.875 -3.15625q-0.859375 -1.0625 -2.078125 -1.0625q-1.1875 0 -2.109375 1.125q-0.921875 1.109375 -0.921875 3.25zm17.37732 4.109375q-1.046875 0.875 -2.015625 1.25q-0.953125 0.359375 -2.0625 0.359375q-1.8125 0 -2.796875 -0.890625q-0.984375 -0.890625 -0.984375 -2.28125q0 -0.8125 0.375 -1.484375q0.375 -0.671875 0.96875 -1.078125q0.59375 -0.40625 1.34375 -0.609375q0.5625 -0.140625 1.671875 -0.28125q2.265625 -0.265625 3.34375 -0.640625q0.015625 -0.390625 0.015625 -0.5q0 -1.140625 -0.53125 -1.609375q-0.71875 -0.640625 -2.140625 -0.640625q-1.328125 0 -1.953125 0.46875q-0.625 0.46875 -0.9375 1.640625l-1.828125 -0.25q0.25 -1.171875 0.8125 -1.890625q0.578125 -0.734375 1.65625 -1.125q1.09375 -0.390625 2.515625 -0.390625q1.421875 0 2.296875 0.34375q0.890625 0.328125 1.3125 0.828125q0.421875 0.5 0.578125 1.28125q0.09375 0.46875 0.09375 1.71875l0 2.5q0 2.625 0.125 3.3125q0.125 0.6875 0.46875 1.328125l-1.953125 0q-0.296875 -0.578125 -0.375 -1.359375zm-0.15625 -4.1875q-1.015625 0.40625 -3.0625 0.703125q-1.15625 0.171875 -1.640625 0.375q-0.46875 0.203125 -0.734375 0.609375q-0.265625 0.40625 -0.265625 0.890625q0 0.75 0.5625 1.25q0.578125 0.5 1.671875 0.5q1.078125 0 1.921875 -0.46875q0.84375 -0.484375 1.25 -1.296875q0.296875 -0.640625 0.296875 -1.875l0 -0.6875zm4.7210693 9.8125l-0.21875 -1.765625q0.625 0.171875 1.078125 0.171875q0.625 0 1.0 -0.21875q0.375 -0.203125 0.609375 -0.578125q0.1875 -0.28125 0.578125 -1.390625q0.046875 -0.15625 0.171875 -0.46875l-4.203125 -11.078125l2.015625 0l2.3125 6.40625q0.4375 1.21875 0.796875 2.5625q0.328125 -1.296875 0.765625 -2.515625l2.375 -6.453125l1.875 0l-4.21875 11.25q-0.671875 1.828125 -1.046875 2.515625q-0.5 0.921875 -1.15625 1.34375q-0.640625 0.4375 -1.53125 0.4375q-0.546875 0 -1.203125 -0.21875zm9.0078125 -0.03125l0 -1.34375l12.421875 0l0 1.34375l-12.421875 0zm12.892944 -9.765625q0 -3.078125 1.71875 -4.546875q1.421875 -1.234375 3.46875 -1.234375q2.28125 0 3.71875 1.5q1.453125 1.484375 1.453125 4.125q0 2.140625 -0.640625 3.359375q-0.625 1.21875 -1.859375 1.90625q-1.21875 0.671875 -2.671875 0.671875q-2.3125 0 -3.75 -1.484375q-1.4375 -1.5 -1.4375 -4.296875zm1.9375 0q0 2.125 0.921875 3.1875q0.921875 1.046875 2.328125 1.046875q1.40625 0 2.328125 -1.0625q0.921875 -1.0625 0.921875 -3.234375q0 -2.046875 -0.9375 -3.109375q-0.921875 -1.0625 -2.3125 -1.0625q-1.40625 0 -2.328125 1.0625q-0.921875 1.046875 -0.921875 3.171875zm10.611694 5.53125l0 -11.0625l1.6875 0l0 1.671875q0.640625 -1.171875 1.1875 -1.546875q0.546875 -0.375 1.203125 -0.375q0.953125 0 1.921875 0.609375l-0.640625 1.734375q-0.6875 -0.40625 -1.375 -0.40625q-0.609375 0 -1.109375 0.375q-0.484375 0.359375 -0.6875 1.015625q-0.3125 1.0 -0.3125 2.1875l0 5.796875l-1.875 0zm14.289917 0l0 -1.390625q-1.046875 1.640625 -3.09375 1.640625q-1.3125 0 -2.421875 -0.71875q-1.109375 -0.734375 -1.71875 -2.046875q-0.609375 -1.3125 -0.609375 -3.0q0 -1.65625 0.546875 -3.0q0.546875 -1.359375 1.65625 -2.078125q1.109375 -0.71875 2.46875 -0.71875q1.0 0 1.78125 0.421875q0.78125 0.421875 1.265625 1.09375l0 -5.46875l1.875 0l0 15.265625l-1.75 0zm-5.921875 -5.515625q0 2.125 0.890625 3.171875q0.90625 1.046875 2.125 1.046875q1.21875 0 2.078125 -1.0q0.859375 -1.0 0.859375 -3.0625q0 -2.28125 -0.875 -3.34375q-0.875 -1.0625 -2.15625 -1.0625q-1.25 0 -2.09375 1.03125q-0.828125 1.015625 -0.828125 3.21875zm18.18982 1.953125l1.921875 0.234375q-0.453125 1.703125 -1.6875 2.640625q-1.234375 0.9375 -3.171875 0.9375q-2.421875 0 -3.84375 -1.484375q-1.421875 -1.5 -1.421875 -4.203125q0 -2.796875 1.4375 -4.328125q1.4375 -1.546875 3.734375 -1.546875q2.21875 0 3.609375 1.515625q1.40625 1.5 1.40625 4.25q0 0.15625 0 0.5l-8.25 0q0.109375 1.8125 1.03125 2.78125q0.921875 0.96875 2.3125 0.96875q1.03125 0 1.75 -0.53125q0.734375 -0.546875 1.171875 -1.734375zm-6.15625 -3.03125l6.171875 0q-0.125 -1.390625 -0.703125 -2.09375q-0.90625 -1.078125 -2.328125 -1.078125q-1.296875 0 -2.171875 0.859375q-0.875 0.859375 -0.96875 2.3125zm10.424194 6.59375l0 -11.0625l1.6875 0l0 1.671875q0.640625 -1.171875 1.1875 -1.546875q0.546875 -0.375 1.203125 -0.375q0.953125 0 1.921875 0.609375l-0.640625 1.734375q-0.6875 -0.40625 -1.375 -0.40625q-0.609375 0 -1.109375 0.375q-0.484375 0.359375 -0.6875 1.015625q-0.3125 1.0 -0.3125 2.1875l0 5.796875l-1.875 0zm5.383728 4.234375l0 -1.34375l12.421875 0l0 1.34375l-12.421875 0zm13.611694 -17.34375l0 -2.15625l1.875 0l0 2.15625l-1.875 0zm0 13.109375l0 -11.0625l1.875 0l0 11.0625l-1.875 0zm11.894653 0l0 -1.390625q-1.046875 1.640625 -3.09375 1.640625q-1.3125 0 -2.421875 -0.71875q-1.109375 -0.734375 -1.71875 -2.046875q-0.609375 -1.3125 -0.609375 -3.0q0 -1.65625 0.546875 -3.0q0.546875 -1.359375 1.65625 -2.078125q1.109375 -0.71875 2.46875 -0.71875q1.0 0 1.78125 0.421875q0.78125 0.421875 1.265625 1.09375l0 -5.46875l1.875 0l0 15.265625l-1.75 0zm-5.921875 -5.515625q0 2.125 0.890625 3.171875q0.90625 1.046875 2.125 1.046875q1.21875 0 2.078125 -1.0q0.859375 -1.0 0.859375 -3.0625q0 -2.28125 -0.875 -3.34375q-0.875 -1.0625 -2.15625 -1.0625q-1.25 0 -2.09375 1.03125q-0.828125 1.015625 -0.828125 3.21875z" fill-rule="nonzero"/><path fill="#000000" d="m950.495 157.77626q-1.171875 -1.46875 -1.984375 -3.4375q-0.796875 -1.984375 -0.796875 -4.09375q0 -1.859375 0.609375 -3.5625q0.703125 -1.96875 2.171875 -3.9375l1.0 0q-0.9375 1.625 -1.25 2.328125q-0.46875 1.078125 -0.75 2.25q-0.328125 1.453125 -0.328125 2.9375q0 3.75 2.328125 7.515625l-1.0 0z" fill-rule="nonzero"/><path fill="#000000" d="m961.3856 152.21376q2.0625 1.3125 5.625 1.9375l-0.5 1.5625q-4.125 -0.9375 -6.25 -2.625q-2.75 1.75 -6.6875 2.6875l-0.5625 -1.4375q3.6875 -0.6875 6.1875 -2.125q-1.625 -1.8125 -2.5 -4.0l-1.9375 0l0 -1.1875l4.5625 0l0 -2.25l-6.0 0l0 -1.1875l6.0 0l0 -2.0l1.375 0q0.625 0.125 0.0625 0.5l0 1.5l6.0625 0l0 1.1875l-6.0625 0l0 2.25l2.875 0l0.375 -0.375l1.0625 0.9375l-0.25 0.125q-1.5625 2.875 -3.4375 4.5zm-3.1875 -4.0q0.8125 1.875 2.125 3.125q1.5 -1.25 2.5 -3.125l-4.625 0zm15.3125 -5.5q-0.375 1.5625 -1.125 3.125q0.625 0.125 0.125 0.5l0 9.25l-1.25 0l0 -7.75q-0.6875 1.0 -1.375 1.6875l-1.0 -1.125q2.6875 -2.5625 3.5 -6.5625l1.3125 0.5q0.25 0.25 -0.1875 0.375zm5.8125 2.75l0 -3.5625l1.1875 0q0.5 0.0625 0.0625 0.375l0 3.1875l2.5625 0l0 1.1875l-2.5625 0l0 7.75q0 1.0 -1.0 1.0l-1.875 0l-0.3125 -1.1875l1.6875 0q0.25 0 0.25 -0.25l0 -7.3125l-5.625 0l0 -1.1875l5.625 0zm-3.625 2.8125q1.0625 1.3125 1.9375 2.9375l-1.25 0.8125q-0.875 -1.8125 -1.875 -3.0l1.1875 -0.75z" fill-rule="nonzero"/><path fill="#000000" d="m997.1981 142.52626q0.6875 0 2.1875 -0.0625l0 1.1875q-1.375 -0.0625 -3.375 -0.0625l0 10.5625q0 1.125 -0.96875 1.40625q-0.96875 0.28125 -1.96875 0.34375q-0.0625 -0.8125 -0.5 -1.6875q1.0625 0.125 1.625 0.0625q0.5625 -0.0625 0.625 -0.625l0 -10.0625l-2.6875 0q-0.9375 0 -1.9375 0.0625l0 -1.1875q1.5625 0.0625 2.0 0.0625l5.0 0zm-8.5 10.8125q1.375 -1.1875 2.25 -2.0q0.1875 0.75 0.5 1.25q-0.9375 0.75 -1.9375 1.59375q-1.0 0.84375 -1.6875 1.59375q-0.375 -0.5625 -0.875 -1.0q0.625 -0.5 0.5625 -1.375l0 -5.8125l-0.875 0q-1.0625 0 -1.8125 0.0625l0 -1.1875q0.75 0.0625 1.8125 0.0625l2.125 0q0 1.1875 -0.0625 2.25l0 4.5625zm-1.75 -11.75q0.9375 0.875 2.5 2.5625q-0.5 0.4375 -1.0625 1.0q-1.0625 -1.4375 -2.375 -2.625q0.5625 -0.5 0.9375 -0.9375zm26.3125 2.625l0 6.375l-4.6875 0l0 1.5l4.125 0q1.375 0 2.375 -0.0625l0 1.25q-1.0625 -0.0625 -2.375 -0.0625l-4.125 0q0 1.9375 0.0625 2.75l-1.375 0q0.125 -0.8125 0.125 -2.75l-4.0625 0q-1.5 0 -2.1875 0.0625l0 -1.25q0.625 0.0625 2.0625 0.0625l4.1875 0l0 -1.5l-4.5 0q0.0625 -1.0625 0.0625 -3.0625q0 -2.0 -0.0625 -3.3125l6.1875 0q0.6875 -1.4375 1.1875 -2.9375q0.625 0.3125 1.4375 0.6875q-0.25 0.3125 -0.625 0.96875q-0.375 0.65625 -0.75 1.28125l2.9375 0zm-1.25 5.375l0 -1.6875l-3.4375 0l0 1.6875l3.4375 0zm0 -2.6875l0 -1.625l-3.4375 0l0 1.625l3.4375 0zm-4.625 2.6875l0 -1.6875l-3.25 0l0 1.6875l3.25 0zm0 -2.6875l0 -1.625l-3.25 0l0 1.625l3.25 0zm-2.0625 -5.5625q0.625 0.6875 1.4375 2.1875q-0.6875 0.3125 -1.125 0.5625q-0.625 -1.375 -1.25 -2.125q0.4375 -0.25 0.9375 -0.625z" fill-rule="nonzero"/><path fill="#000000" d="m1019.1981 152.33876q1.0625 -1.875 1.5625 -3.4375l-4.0 0l0 -1.1875l14.4375 0l0 1.1875l-9.0 0q-0.25 0.75 -0.5 1.3125l7.4375 0q-0.5 3.75 -1.375 4.9375q-0.5 0.625 -1.875 0.5l-1.6875 -0.1875l-0.0625 -1.375l1.9375 0.1875q0.625 0.0625 0.9375 -0.625q0.125 -0.3125 0.5625 -2.25l-6.25 0q-0.25 0.625 -0.6875 1.375l-1.4375 -0.4375zm1.4375 -9.25l0 2.0625l6.6875 0l0 -2.0625l-6.6875 0zm6.6875 3.6875l0 -0.4375l-6.6875 0l0 0.5625l-1.25 0l0 -5.0l9.1875 0l0 4.875l-1.25 0z" fill-rule="nonzero"/><path fill="#000000" d="m1034.0575 157.77626l-1.015625 0q2.34375 -3.765625 2.34375 -7.515625q0 -1.46875 -0.34375 -2.921875q-0.265625 -1.171875 -0.734375 -2.25q-0.3125 -0.703125 -1.265625 -2.34375l1.015625 0q1.46875 1.96875 2.171875 3.9375q0.59375 1.703125 0.59375 3.5625q0 2.109375 -0.8125 4.09375q-0.796875 1.96875 -1.953125 3.4375z" fill-rule="nonzero"/><path fill="#000000" fill-opacity="0.0" d="m426.5013 96.35696l250.36221 0l0 94.614174l-250.36221 0z" fill-rule="evenodd"/><path fill="#000000" d="m438.64194 125.83695l-1.75 0l0 -15.265625l1.875 0l0 5.4375q1.1875 -1.484375 3.03125 -1.484375q1.03125 0 1.9375 0.421875q0.90625 0.40625 1.5 1.15625q0.59375 0.734375 0.921875 1.796875q0.328125 1.046875 0.328125 2.234375q0 2.84375 -1.40625 4.40625q-1.40625 1.546875 -3.375 1.546875q-1.953125 0 -3.0625 -1.640625l0 1.390625zm-0.03125 -5.609375q0 1.984375 0.546875 2.875q0.890625 1.4375 2.390625 1.4375q1.234375 0 2.125 -1.0625q0.90625 -1.0625 0.90625 -3.1875q0 -2.15625 -0.859375 -3.1875q-0.859375 -1.03125 -2.078125 -1.03125q-1.234375 0 -2.140625 1.0625q-0.890625 1.0625 -0.890625 3.09375zm10.174194 -7.5l0 -2.15625l1.875 0l0 2.15625l-1.875 0zm0 13.109375l0 -11.0625l1.875 0l0 11.0625l-1.875 0zm3.7384338 0l0 -1.515625l7.03125 -8.09375q-1.1875 0.0625 -2.109375 0.0625l-4.515625 0l0 -1.515625l9.046875 0l0 1.234375l-5.984375 7.03125l-1.15625 1.28125q1.25 -0.09375 2.359375 -0.09375l5.109375 0l0 1.609375l-9.78125 0zm9.9140625 4.2343826l0 -1.34375l12.421875 0l0 1.34375l-12.421875 0zm13.611694 -17.343758l0 -2.15625l1.875 0l0 2.15625l-1.875 0zm0 13.109375l0 -11.0625l1.875 0l0 11.0625l-1.875 0zm11.894684 0l0 -1.390625q-1.046875 1.640625 -3.09375 1.640625q-1.3125 0 -2.421875 -0.71875q-1.109375 -0.734375 -1.71875 -2.046875q-0.609375 -1.3125 -0.609375 -3.0q0 -1.65625 0.546875 -3.0q0.546875 -1.359375 1.65625 -2.078125q1.109375 -0.71875 2.46875 -0.71875q1.0 0 1.78125 0.421875q0.78125 0.421875 1.265625 1.09375l0 -5.46875l1.875 0l0 15.265625l-1.75 0zm-5.921875 -5.515625q0 2.125 0.890625 3.171875q0.90625 1.046875 2.125 1.046875q1.21875 0 2.078125 -1.0q0.859375 -1.0 0.859375 -3.0625q0 -2.28125 -0.875 -3.34375q-0.875 -1.0625 -2.15625 -1.0625q-1.25 0 -2.09375 1.03125q-0.828125 1.015625 -0.828125 3.21875z" fill-rule="nonzero"/><path fill="#000000" d="m494.97733 129.21196q-1.171875 -1.4687576 -1.984375 -3.4375076q-0.796875 -1.984375 -0.796875 -4.09375q0 -1.859375 0.609375 -3.5625q0.703125 -1.96875 2.171875 -3.9375l1.0 0q-0.9375 1.625 -1.25 2.328125q-0.46875 1.078125 -0.75 2.25q-0.328125 1.453125 -0.328125 2.9375q0 3.75 2.328125 7.5156326l-1.0 0z" fill-rule="nonzero"/><path fill="#000000" d="m503.61795 113.27445q-0.125 1.75 -0.125 3.0l0 9.1875l2.0625 0l0 -9.9375q0 -1.0 -0.125 -2.25l1.5625 0q-0.125 1.0 -0.125 2.125l0 10.0625l2.4375 0q1.0 0 2.4375 -0.125l0 1.375q-1.4375 -0.125 -2.375 -0.125l-9.5 0q-0.875 0 -2.5 0.125l0 -1.375q1.625 0.125 2.4375 0.125l2.3125 0l0 -9.25q0 -1.3125 -0.1875 -2.9375l1.6875 0zm-4.5 3.125q0.75 1.9375 2.0625 5.6875q-0.6875 0.125 -1.4375 0.5q-1.125 -3.625 -2.0 -5.625q0.625 -0.25 1.375 -0.5625zm12.0625 0.375q-0.8125 2.125 -2.25 5.9375q-0.625 -0.375 -1.3125 -0.5625q1.3125 -2.4375 2.0 -5.875q0.6875 0.25 1.5625 0.5zm8.5000305 -3.3125q-0.5 0.4375 -0.875 1.0l6.9375 0q-0.5625 0.9375 -1.46875 2.0q-0.90625 1.0625 -2.28125 2.0q0.875 0.5625 2.375 0.84375q1.5 0.28125 3.5625 0.34375q-0.5 0.5625 -0.6875 1.3125q-1.75 -0.125 -3.4375 -0.625q-1.6875 -0.5 -2.8125 -1.1875q-2.0 0.9375 -3.625 1.375q-1.625 0.4375 -3.1875 0.6875q-0.25 -0.75 -0.75 -1.3125q1.375 0 3.125 -0.375q1.75 -0.375 3.4375 -1.0625q-1.3125 -1.25 -2.25 -2.5625q-1.0625 1.3125 -2.1875 2.1875q-0.4375 -0.5 -1.125 -0.75q1.75 -1.25 2.5625 -2.40625q0.8125 -1.15625 1.1875 -2.15625q0.8125 0.4375 1.5 0.6875zm-0.125 8.25q0.125 -0.75 0.125 -1.75q0.75 0.125 1.5 0.1875q-0.1875 0.375 -0.375 1.5625l5.0625 0q-0.0625 0.75 -0.125 1.71875q-0.0625 0.96875 -0.21875 2.09375q-0.15625 1.125 -0.90625 1.3125q-0.75 0.1875 -2.375 0.375q-0.125 -0.8125 -0.625 -1.375q1.8125 0 2.1875 -0.125q0.375 -0.125 0.5 -0.6875l0.1875 -2.375l-3.8125 0q-0.875 2.6875 -2.46875 3.5q-1.59375 0.8125 -3.40625 1.4375q-0.1875 -0.5625 -0.875 -1.3125q1.5 -0.125 3.125 -0.9375q1.625 -0.8125 2.3125 -2.6875l-1.4375 0q-1.875 0 -2.75 0.125l0 -1.125q0.9375 0.0625 2.8125 0.0625l1.5625 0zm1.5 -3.9375q1.25 -0.75 2.4375 -2.375l-4.6875 0q1.1875 1.5625 2.25 2.375z" fill-rule="nonzero"/><path fill="#000000" d="m531.6805 123.77445q1.0625 -1.875 1.5625 -3.4375l-4.0 0l0 -1.1875l14.4375 0l0 1.1875l-9.0 0q-0.25 0.75 -0.5 1.3125l7.4375 0q-0.5 3.75 -1.375 4.9375q-0.5 0.625 -1.875 0.5l-1.6875 -0.1875l-0.0625 -1.375l1.9375 0.1875q0.625 0.0625 0.9375 -0.625q0.125 -0.3125 0.5625 -2.25l-6.25 0q-0.25 0.625 -0.6875 1.375l-1.4375 -0.4375zm1.4375 -9.25l0 2.0625l6.6875 0l0 -2.0625l-6.6875 0zm6.6875 3.6875l0 -0.4375l-6.6875 0l0 0.5625l-1.25 0l0 -5.0l9.1875 0l0 4.875l-1.25 0z" fill-rule="nonzero"/><path fill="#000000" d="m546.53986 129.21196l-1.015625 0q2.34375 -3.7656326 2.34375 -7.5156326q0 -1.46875 -0.34375 -2.921875q-0.265625 -1.171875 -0.734375 -2.25q-0.3125 -0.703125 -1.265625 -2.34375l1.015625 0q1.46875 1.96875 2.171875 3.9375q0.59375 1.703125 0.59375 3.5625q0 2.109375 -0.8125 4.09375q-0.796875 1.96875 -1.953125 3.4375076z" fill-rule="nonzero"/><path fill="#000000" d="m438.64194 151.83696l-1.75 0l0 -15.265625l1.875 0l0 5.4375q1.1875 -1.484375 3.03125 -1.484375q1.03125 0 1.9375 0.421875q0.90625 0.40625 1.5 1.15625q0.59375 0.734375 0.921875 1.796875q0.328125 1.046875 0.328125 2.234375q0 2.84375 -1.40625 4.40625q-1.40625 1.546875 -3.375 1.546875q-1.953125 0 -3.0625 -1.640625l0 1.390625zm-0.03125 -5.609375q0 1.984375 0.546875 2.875q0.890625 1.4375 2.390625 1.4375q1.234375 0 2.125 -1.0625q0.90625 -1.0625 0.90625 -3.1875q0 -2.15625 -0.859375 -3.1875q-0.859375 -1.03125 -2.078125 -1.03125q-1.234375 0 -2.140625 1.0625q-0.890625 1.0625 -0.890625 3.09375zm10.174194 -7.5l0 -2.15625l1.875 0l0 2.15625l-1.875 0zm0 13.109375l0 -11.0625l1.875 0l0 11.0625l-1.875 0zm3.7384338 0l0 -1.515625l7.03125 -8.09375q-1.1875 0.0625 -2.109375 0.0625l-4.515625 0l0 -1.515625l9.046875 0l0 1.234375l-5.984375 7.03125l-1.15625 1.28125q1.25 -0.09375 2.359375 -0.09375l5.109375 0l0 1.609375l-9.78125 0zm9.9140625 4.234375l0 -1.34375l12.421875 0l0 1.34375l-12.421875 0zm12.892944 -9.765625q0 -3.078125 1.71875 -4.546875q1.421875 -1.234375 3.46875 -1.234375q2.28125 0 3.71875 1.5q1.453125 1.484375 1.453125 4.125q0 2.140625 -0.640625 3.359375q-0.625 1.21875 -1.859375 1.90625q-1.21875 0.671875 -2.671875 0.671875q-2.3125 0 -3.75 -1.484375q-1.4375 -1.5 -1.4375 -4.296875zm1.9375 0q0 2.125 0.921875 3.1875q0.921875 1.046875 2.328125 1.046875q1.40625 0 2.328125 -1.0625q0.921875 -1.0625 0.921875 -3.234375q0 -2.046875 -0.9375 -3.109375q-0.921875 -1.0625 -2.3125 -1.0625q-1.40625 0 -2.328125 1.0625q-0.921875 1.046875 -0.921875 3.171875zm10.611694 5.53125l0 -11.0625l1.6875 0l0 1.671875q0.640625 -1.171875 1.1875 -1.546875q0.546875 -0.375 1.203125 -0.375q0.953125 0 1.921875 0.609375l-0.640625 1.734375q-0.6875 -0.40625 -1.375 -0.40625q-0.609375 0 -1.109375 0.375q-0.484375 0.359375 -0.6875 1.015625q-0.3125 1.0 -0.3125 2.1875l0 5.796875l-1.875 0zm14.2899475 0l0 -1.390625q-1.046875 1.640625 -3.09375 1.640625q-1.3125 0 -2.421875 -0.71875q-1.109375 -0.734375 -1.71875 -2.046875q-0.609375 -1.3125 -0.609375 -3.0q0 -1.65625 0.546875 -3.0q0.546875 -1.359375 1.65625 -2.078125q1.109375 -0.71875 2.46875 -0.71875q1.0 0 1.78125 0.421875q0.78125 0.421875 1.265625 1.09375l0 -5.46875l1.875 0l0 15.265625l-1.75 0zm-5.921875 -5.515625q0 2.125 0.890625 3.171875q0.90625 1.046875 2.125 1.046875q1.21875 0 2.078125 -1.0q0.859375 -1.0 0.859375 -3.0625q0 -2.28125 -0.875 -3.34375q-0.875 -1.0625 -2.15625 -1.0625q-1.25 0 -2.09375 1.03125q-0.828125 1.015625 -0.828125 3.21875zm18.189789 1.953125l1.921875 0.234375q-0.453125 1.703125 -1.6875 2.640625q-1.234375 0.9375 -3.1718445 0.9375q-2.421875 0 -3.84375 -1.484375q-1.421875 -1.5 -1.421875 -4.203125q0 -2.796875 1.4375 -4.328125q1.4375 -1.546875 3.734375 -1.546875q2.2187195 0 3.6093445 1.515625q1.40625 1.5 1.40625 4.25q0 0.15625 0 0.5l-8.2499695 0q0.109375 1.8125 1.03125 2.78125q0.921875 0.96875 2.3125 0.96875q1.0312195 0 1.7499695 -0.53125q0.734375 -0.546875 1.171875 -1.734375zm-6.1562195 -3.03125l6.1718445 0q-0.125 -1.390625 -0.703125 -2.09375q-0.90625 -1.078125 -2.3280945 -1.078125q-1.296875 0 -2.171875 0.859375q-0.875 0.859375 -0.96875 2.3125zm10.424164 6.59375l0 -11.0625l1.6875 0l0 1.671875q0.640625 -1.171875 1.1875 -1.546875q0.546875 -0.375 1.203125 -0.375q0.953125 0 1.921875 0.609375l-0.640625 1.734375q-0.6875 -0.40625 -1.375 -0.40625q-0.609375 0 -1.109375 0.375q-0.484375 0.359375 -0.6875 1.015625q-0.3125 1.0 -0.3125 2.1875l0 5.796875l-1.875 0zm5.383728 4.234375l0 -1.34375l12.421875 0l0 1.34375l-12.421875 0zm13.611694 -17.34375l0 -2.15625l1.875 0l0 2.15625l-1.875 0zm0 13.109375l0 -11.0625l1.875 0l0 11.0625l-1.875 0zm11.894653 0l0 -1.390625q-1.046875 1.640625 -3.09375 1.640625q-1.3125 0 -2.421875 -0.71875q-1.109375 -0.734375 -1.71875 -2.046875q-0.609375 -1.3125 -0.609375 -3.0q0 -1.65625 0.546875 -3.0q0.546875 -1.359375 1.65625 -2.078125q1.109375 -0.71875 2.46875 -0.71875q1.0 0 1.78125 0.421875q0.78125 0.421875 1.265625 1.09375l0 -5.46875l1.875 0l0 15.265625l-1.75 0zm-5.921875 -5.515625q0 2.125 0.890625 3.171875q0.90625 1.046875 2.125 1.046875q1.21875 0 2.078125 -1.0q0.859375 -1.0 0.859375 -3.0625q0 -2.28125 -0.875 -3.34375q-0.875 -1.0625 -2.15625 -1.0625q-1.25 0 -2.09375 1.03125q-0.828125 1.015625 -0.828125 3.21875z" fill-rule="nonzero"/><path fill="#000000" d="m556.62897 155.21196q-1.171875 -1.46875 -1.984375 -3.4375q-0.796875 -1.984375 -0.796875 -4.09375q0 -1.859375 0.609375 -3.5625q0.703125 -1.96875 2.171875 -3.9375l1.0 0q-0.9375 1.625 -1.25 2.328125q-0.46875 1.078125 -0.75 2.25q-0.328125 1.453125 -0.328125 2.9375q0 3.75 2.328125 7.515625l-1.0 0z" fill-rule="nonzero"/><path fill="#000000" d="m565.2696 139.27446q-0.125 1.75 -0.125 3.0l0 9.1875l2.0625 0l0 -9.9375q0 -1.0 -0.125 -2.25l1.5625 0q-0.125 1.0 -0.125 2.125l0 10.0625l2.4375 0q1.0 0 2.4375 -0.125l0 1.375q-1.4375 -0.125 -2.375 -0.125l-9.5 0q-0.875 0 -2.5 0.125l0 -1.375q1.625 0.125 2.4375 0.125l2.3125 0l0 -9.25q0 -1.3125 -0.1875 -2.9375l1.6875 0zm-4.5 3.125q0.75 1.9375 2.0625 5.6875q-0.6875 0.125 -1.4375 0.5q-1.125 -3.625 -2.0 -5.625q0.625 -0.25 1.375 -0.5625zm12.0625 0.375q-0.8125 2.125 -2.25 5.9375q-0.625 -0.375 -1.3125 -0.5625q1.3125 -2.4375 2.0 -5.875q0.6875 0.25 1.5625 0.5zm8.5 -3.3125q-0.5 0.4375 -0.875 1.0l6.9375 0q-0.5625 0.9375 -1.46875 2.0q-0.90625 1.0625 -2.28125 2.0q0.875 0.5625 2.375 0.84375q1.5 0.28125 3.5625 0.34375q-0.5 0.5625 -0.6875 1.3125q-1.75 -0.125 -3.4375 -0.625q-1.6875 -0.5 -2.8125 -1.1875q-2.0 0.9375 -3.625 1.375q-1.625 0.4375 -3.1875 0.6875q-0.25 -0.75 -0.75 -1.3125q1.375 0 3.125 -0.375q1.75 -0.375 3.4375 -1.0625q-1.3125 -1.25 -2.25 -2.5625q-1.0625 1.3125 -2.1875 2.1875q-0.4375 -0.5 -1.125 -0.75q1.75 -1.25 2.5625 -2.40625q0.8125 -1.15625 1.1875 -2.15625q0.8125 0.4375 1.5 0.6875zm-0.125 8.25q0.125 -0.75 0.125 -1.75q0.75 0.125 1.5 0.1875q-0.1875 0.375 -0.375 1.5625l5.0625 0q-0.0625 0.75 -0.125 1.71875q-0.0625 0.96875 -0.21875 2.09375q-0.15625 1.125 -0.90625 1.3125q-0.75 0.1875 -2.375 0.375q-0.125 -0.8125 -0.625 -1.375q1.8125 0 2.1875 -0.125q0.375 -0.125 0.5 -0.6875l0.1875 -2.375l-3.8125 0q-0.875 2.6875 -2.46875 3.5q-1.59375 0.8125 -3.40625 1.4375q-0.1875 -0.5625 -0.875 -1.3125q1.5 -0.125 3.125 -0.9375q1.625 -0.8125 2.3125 -2.6875l-1.4375 0q-1.875 0 -2.75 0.125l0 -1.125q0.9375 0.0625 2.8125 0.0625l1.5625 0zm1.5 -3.9375q1.25 -0.75 2.4375 -2.375l-4.6875 0q1.1875 1.5625 2.25 2.375zm20.625 -3.8125q0.6875 0 2.1875 -0.0625l0 1.1875q-1.375 -0.0625 -3.375 -0.0625l0 10.5625q0 1.125 -0.96875 1.40625q-0.96875 0.28125 -1.96875 0.34375q-0.0625 -0.8125 -0.5 -1.6875q1.0625 0.125 1.625 0.0625q0.5625 -0.0625 0.625 -0.625l0 -10.0625l-2.6875 0q-0.9375 0 -1.9375 0.0625l0 -1.1875q1.5625 0.0625 2.0 0.0625l5.0 0zm-8.5 10.8125q1.375 -1.1875 2.25 -2.0q0.1875 0.75 0.5 1.25q-0.9375 0.75 -1.9375 1.59375q-1.0 0.84375 -1.6875 1.59375q-0.375 -0.5625 -0.875 -1.0q0.625 -0.5 0.5625 -1.375l0 -5.8125l-0.875 0q-1.0625 0 -1.8125 0.0625l0 -1.1875q0.75 0.0625 1.8125 0.0625l2.125 0q0 1.1875 -0.0625 2.25l0 4.5625zm-1.75 -11.75q0.9375 0.875 2.5 2.5625q-0.5 0.4375 -1.0625 1.0q-1.0625 -1.4375 -2.375 -2.625q0.5625 -0.5 0.9375 -0.9375zm26.3125 2.625l0 6.375l-4.6875 0l0 1.5l4.125 0q1.375 0 2.375 -0.0625l0 1.25q-1.0625 -0.0625 -2.375 -0.0625l-4.125 0q0 1.9375 0.0625 2.75l-1.375 0q0.125 -0.8125 0.125 -2.75l-4.0625 0q-1.5 0 -2.1875 0.0625l0 -1.25q0.625 0.0625 2.0625 0.0625l4.1875 0l0 -1.5l-4.5 0q0.0625 -1.0625 0.0625 -3.0625q0 -2.0 -0.0625 -3.3125l6.1875 0q0.6875 -1.4375 1.1875 -2.9375q0.625 0.3125 1.4375 0.6875q-0.25 0.3125 -0.625 0.96875q-0.375 0.65625 -0.75 1.28125l2.9375 0zm-1.25 5.375l0 -1.6875l-3.4375 0l0 1.6875l3.4375 0zm0 -2.6875l0 -1.625l-3.4375 0l0 1.625l3.4375 0zm-4.625 2.6875l0 -1.6875l-3.25 0l0 1.6875l3.25 0zm0 -2.6875l0 -1.625l-3.25 0l0 1.625l3.25 0zm-2.0625 -5.5625q0.625 0.6875 1.4375 2.1875q-0.6875 0.3125 -1.125 0.5625q-0.625 -1.375 -1.25 -2.125q0.4375 -0.25 0.9375 -0.625z" fill-rule="nonzero"/><path fill="#000000" d="m625.3321 149.77446q1.0625 -1.875 1.5625 -3.4375l-4.0 0l0 -1.1875l14.4375 0l0 1.1875l-9.0 0q-0.25 0.75 -0.5 1.3125l7.4375 0q-0.5 3.75 -1.375 4.9375q-0.5 0.625 -1.875 0.5l-1.6875 -0.1875l-0.0625 -1.375l1.9375 0.1875q0.625 0.0625 0.9375 -0.625q0.125 -0.3125 0.5625 -2.25l-6.25 0q-0.25 0.625 -0.6875 1.375l-1.4375 -0.4375zm1.4375 -9.25l0 2.0625l6.6875 0l0 -2.0625l-6.6875 0zm6.6875 3.6875l0 -0.4375l-6.6875 0l0 0.5625l-1.25 0l0 -5.0l9.1875 0l0 4.875l-1.25 0z" fill-rule="nonzero"/><path fill="#000000" d="m640.19147 155.21196l-1.015625 0q2.34375 -3.765625 2.34375 -7.515625q0 -1.46875 -0.34375 -2.921875q-0.265625 -1.171875 -0.734375 -2.25q-0.3125 -0.703125 -1.265625 -2.34375l1.015625 0q1.46875 1.96875 2.171875 3.9375q0.59375 1.703125 0.59375 3.5625q0 2.109375 -0.8125 4.09375q-0.796875 1.96875 -1.953125 3.4375z" fill-rule="nonzero"/><path fill="#000000" d="m436.90756 182.07132l0 -15.296875l1.703125 0l0 1.4375q0.609375 -0.84375 1.359375 -1.265625q0.765625 -0.421875 1.859375 -0.421875q1.40625 0 2.484375 0.734375q1.09375 0.71875 1.640625 2.046875q0.546875 1.328125 0.546875 2.921875q0 1.6875 -0.609375 3.046875q-0.59375 1.359375 -1.765625 2.09375q-1.15625 0.71875 -2.4375 0.71875q-0.9375 0 -1.6875 -0.390625q-0.734375 -0.40625 -1.21875 -1.0l0 5.375l-1.875 0zm1.703125 -9.703125q0 2.140625 0.859375 3.15625q0.859375 1.015625 2.09375 1.015625q1.25 0 2.140625 -1.046875q0.890625 -1.0625 0.890625 -3.28125q0 -2.109375 -0.875 -3.15625q-0.859375 -1.0625 -2.078125 -1.0625q-1.1875 0 -2.109375 1.125q-0.921875 1.109375 -0.921875 3.25zm17.37732 4.109375q-1.046875 0.875 -2.015625 1.25q-0.953125 0.359375 -2.0625 0.359375q-1.8125 0 -2.796875 -0.890625q-0.984375 -0.890625 -0.984375 -2.28125q0 -0.8125 0.375 -1.484375q0.375 -0.671875 0.96875 -1.078125q0.59375 -0.40625 1.34375 -0.609375q0.5625 -0.140625 1.671875 -0.28125q2.265625 -0.265625 3.34375 -0.640625q0.015625 -0.390625 0.015625 -0.5q0 -1.140625 -0.53125 -1.609375q-0.71875 -0.640625 -2.140625 -0.640625q-1.328125 0 -1.953125 0.46875q-0.625 0.46875 -0.9375 1.640625l-1.828125 -0.25q0.25 -1.171875 0.8125 -1.890625q0.578125 -0.734375 1.65625 -1.125q1.09375 -0.390625 2.515625 -0.390625q1.421875 0 2.296875 0.34375q0.890625 0.328125 1.3125 0.828125q0.421875 0.5 0.578125 1.28125q0.09375 0.46875 0.09375 1.71875l0 2.5q0 2.625 0.125 3.3125q0.125 0.6875 0.46875 1.328125l-1.953125 0q-0.296875 -0.578125 -0.375 -1.359375zm-0.15625 -4.1875q-1.015625 0.40625 -3.0625 0.703125q-1.15625 0.171875 -1.640625 0.375q-0.46875 0.203125 -0.734375 0.609375q-0.265625 0.40625 -0.265625 0.890625q0 0.75 0.5625 1.25q0.578125 0.5 1.671875 0.5q1.078125 0 1.921875 -0.46875q0.84375 -0.484375 1.25 -1.296875q0.296875 -0.640625 0.296875 -1.875l0 -0.6875zm4.7210693 9.8125l-0.21875 -1.765625q0.625 0.171875 1.078125 0.171875q0.625 0 1.0 -0.21875q0.375 -0.203125 0.609375 -0.578125q0.1875 -0.28125 0.578125 -1.390625q0.046875 -0.15625 0.171875 -0.46875l-4.203125 -11.078125l2.015625 0l2.3125 6.40625q0.4375 1.21875 0.796875 2.5625q0.328125 -1.296875 0.765625 -2.515625l2.375 -6.453125l1.875 0l-4.21875 11.25q-0.671875 1.828125 -1.046875 2.515625q-0.5 0.921875 -1.15625 1.34375q-0.640625 0.4375 -1.53125 0.4375q-0.546875 0 -1.203125 -0.21875zm9.0078125 -0.03125l0 -1.34375l12.421875 0l0 1.34375l-12.421875 0zm12.892944 -9.765625q0 -3.078125 1.71875 -4.546875q1.421875 -1.234375 3.46875 -1.234375q2.28125 0 3.71875 1.5q1.453125 1.484375 1.453125 4.125q0 2.140625 -0.640625 3.359375q-0.625 1.21875 -1.859375 1.90625q-1.21875 0.671875 -2.671875 0.671875q-2.3125 0 -3.75 -1.484375q-1.4375 -1.5 -1.4375 -4.296875zm1.9375 0q0 2.125 0.921875 3.1875q0.921875 1.046875 2.328125 1.046875q1.40625 0 2.328125 -1.0625q0.921875 -1.0625 0.921875 -3.234375q0 -2.046875 -0.9375 -3.109375q-0.921875 -1.0625 -2.3125 -1.0625q-1.40625 0 -2.328125 1.0625q-0.921875 1.046875 -0.921875 3.171875zm10.611694 5.53125l0 -11.0625l1.6875 0l0 1.671875q0.640625 -1.171875 1.1875 -1.546875q0.546875 -0.375 1.203125 -0.375q0.953125 0 1.921875 0.609375l-0.640625 1.734375q-0.6875 -0.40625 -1.375 -0.40625q-0.609375 0 -1.109375 0.375q-0.484375 0.359375 -0.6875 1.015625q-0.3125 1.0 -0.3125 2.1875l0 5.796875l-1.875 0zm14.2899475 0l0 -1.390625q-1.046875 1.640625 -3.09375 1.640625q-1.3125 0 -2.421875 -0.71875q-1.109375 -0.734375 -1.71875 -2.046875q-0.609375 -1.3125 -0.609375 -3.0q0 -1.65625 0.546875 -3.0q0.546875 -1.359375 1.65625 -2.078125q1.109375 -0.71875 2.46875 -0.71875q1.0 0 1.78125 0.421875q0.78125 0.421875 1.265625 1.09375l0 -5.46875l1.875 0l0 15.265625l-1.75 0zm-5.921875 -5.515625q0 2.125 0.890625 3.171875q0.90625 1.046875 2.125 1.046875q1.21875 0 2.078125 -1.0q0.859375 -1.0 0.859375 -3.0625q0 -2.28125 -0.875 -3.34375q-0.875 -1.0625 -2.15625 -1.0625q-1.25 0 -2.09375 1.03125q-0.828125 1.015625 -0.828125 3.21875zm18.18982 1.953125l1.921875 0.234375q-0.453125 1.703125 -1.6875 2.640625q-1.234375 0.9375 -3.171875 0.9375q-2.421875 0 -3.84375 -1.484375q-1.421875 -1.5 -1.421875 -4.203125q0 -2.796875 1.4375 -4.328125q1.4375 -1.546875 3.734375 -1.546875q2.21875 0 3.609375 1.515625q1.40625 1.5 1.40625 4.25q0 0.15625 0 0.5l-8.25 0q0.109375 1.8125 1.03125 2.78125q0.921875 0.96875 2.3125 0.96875q1.03125 0 1.75 -0.53125q0.734375 -0.546875 1.171875 -1.734375zm-6.15625 -3.03125l6.171875 0q-0.125 -1.390625 -0.703125 -2.09375q-0.90625 -1.078125 -2.328125 -1.078125q-1.296875 0 -2.171875 0.859375q-0.875 0.859375 -0.96875 2.3125zm10.424194 6.59375l0 -11.0625l1.6875 0l0 1.671875q0.640625 -1.171875 1.1875 -1.546875q0.546875 -0.375 1.203125 -0.375q0.953125 0 1.921875 0.609375l-0.640625 1.734375q-0.6875 -0.40625 -1.375 -0.40625q-0.609375 0 -1.109375 0.375q-0.484375 0.359375 -0.6875 1.015625q-0.3125 1.0 -0.3125 2.1875l0 5.796875l-1.875 0zm5.383667 4.234375l0 -1.34375l12.421875 0l0 1.34375l-12.421875 0zm13.611694 -17.34375l0 -2.15625l1.875 0l0 2.15625l-1.875 0zm0 13.109375l0 -11.0625l1.875 0l0 11.0625l-1.875 0zm11.894714 0l0 -1.390625q-1.046875 1.640625 -3.09375 1.640625q-1.3125 0 -2.421875 -0.71875q-1.109375 -0.734375 -1.71875 -2.046875q-0.609375 -1.3125 -0.609375 -3.0q0 -1.65625 0.546875 -3.0q0.546875 -1.359375 1.65625 -2.078125q1.109375 -0.71875 2.46875 -0.71875q1.0 0 1.78125 0.421875q0.78125 0.421875 1.265625 1.09375l0 -5.46875l1.875 0l0 15.265625l-1.75 0zm-5.921875 -5.515625q0 2.125 0.890625 3.171875q0.90625 1.046875 2.125 1.046875q1.21875 0 2.078125 -1.0q0.859375 -1.0 0.859375 -3.0625q0 -2.28125 -0.875 -3.34375q-0.875 -1.0625 -2.15625 -1.0625q-1.25 0 -2.09375 1.03125q-0.828125 1.015625 -0.828125 3.21875z" fill-rule="nonzero"/><path fill="#000000" d="m563.75226 181.21194q-1.171875 -1.46875 -1.984375 -3.4375q-0.796875 -1.984375 -0.796875 -4.09375q0 -1.859375 0.609375 -3.5625q0.703125 -1.96875 2.171875 -3.9375l1.0 0q-0.9375 1.625 -1.25 2.328125q-0.46875 1.078125 -0.75 2.25q-0.328125 1.453125 -0.328125 2.9375q0 3.75 2.328125 7.515625l-1.0 0z" fill-rule="nonzero"/><path fill="#000000" d="m574.6429 175.64944q2.0625 1.3125 5.625 1.9375l-0.5 1.5625q-4.125 -0.9375 -6.25 -2.625q-2.75 1.75 -6.6875 2.6875l-0.5625 -1.4375q3.6875 -0.6875 6.1875 -2.125q-1.625 -1.8125 -2.5 -4.0l-1.9375 0l0 -1.1875l4.5625 0l0 -2.25l-6.0 0l0 -1.1875l6.0 0l0 -2.0l1.375 0q0.625 0.125 0.0625 0.5l0 1.5l6.0625 0l0 1.1875l-6.0625 0l0 2.25l2.875 0l0.375 -0.375l1.0625 0.9375l-0.25 0.125q-1.5625 2.875 -3.4375 4.5zm-3.1875 -4.0q0.8125 1.875 2.125 3.125q1.5 -1.25 2.5 -3.125l-4.625 0zm15.3125 -5.5q-0.375 1.5625 -1.125 3.125q0.625 0.125 0.125 0.5l0 9.25l-1.25 0l0 -7.75q-0.6875 1.0 -1.375 1.6875l-1.0 -1.125q2.6875 -2.5625 3.5 -6.5625l1.3125 0.5q0.25 0.25 -0.1875 0.375zm5.8125 2.75l0 -3.5625l1.1875 0q0.5 0.0625 0.0625 0.375l0 3.1875l2.5625 0l0 1.1875l-2.5625 0l0 7.75q0 1.0 -1.0 1.0l-1.875 0l-0.3125 -1.1875l1.6875 0q0.25 0 0.25 -0.25l0 -7.3125l-5.625 0l0 -1.1875l5.625 0zm-3.625 2.8125q1.0625 1.3125 1.9375 2.9375l-1.25 0.8125q-0.875 -1.8125 -1.875 -3.0l1.1875 -0.75z" fill-rule="nonzero"/><path fill="#000000" d="m610.4554 165.96194q0.6875 0 2.1875 -0.0625l0 1.1875q-1.375 -0.0625 -3.375 -0.0625l0 10.5625q0 1.125 -0.96875 1.40625q-0.96875 0.28125 -1.96875 0.34375q-0.0625 -0.8125 -0.5 -1.6875q1.0625 0.125 1.625 0.0625q0.5625 -0.0625 0.625 -0.625l0 -10.0625l-2.6875 0q-0.9375 0 -1.9375 0.0625l0 -1.1875q1.5625 0.0625 2.0 0.0625l5.0 0zm-8.5 10.8125q1.375 -1.1875 2.25 -2.0q0.1875 0.75 0.5 1.25q-0.9375 0.75 -1.9375 1.59375q-1.0 0.84375 -1.6875 1.59375q-0.375 -0.5625 -0.875 -1.0q0.625 -0.5 0.5625 -1.375l0 -5.8125l-0.875 0q-1.0625 0 -1.8125 0.0625l0 -1.1875q0.75 0.0625 1.8125 0.0625l2.125 0q0 1.1875 -0.0625 2.25l0 4.5625zm-1.75 -11.75q0.9375 0.875 2.5 2.5625q-0.5 0.4375 -1.0625 1.0q-1.0625 -1.4375 -2.375 -2.625q0.5625 -0.5 0.9375 -0.9375zm26.3125 2.625l0 6.375l-4.6875 0l0 1.5l4.125 0q1.375 0 2.375 -0.0625l0 1.25q-1.0625 -0.0625 -2.375 -0.0625l-4.125 0q0 1.9375 0.0625 2.75l-1.375 0q0.125 -0.8125 0.125 -2.75l-4.0625 0q-1.5 0 -2.1875 0.0625l0 -1.25q0.625 0.0625 2.0625 0.0625l4.1875 0l0 -1.5l-4.5 0q0.0625 -1.0625 0.0625 -3.0625q0 -2.0 -0.0625 -3.3125l6.1875 0q0.6875 -1.4375 1.1875 -2.9375q0.625 0.3125 1.4375 0.6875q-0.25 0.3125 -0.625 0.96875q-0.375 0.65625 -0.75 1.28125l2.9375 0zm-1.25 5.375l0 -1.6875l-3.4375 0l0 1.6875l3.4375 0zm0 -2.6875l0 -1.625l-3.4375 0l0 1.625l3.4375 0zm-4.625 2.6875l0 -1.6875l-3.25 0l0 1.6875l3.25 0zm0 -2.6875l0 -1.625l-3.25 0l0 1.625l3.25 0zm-2.0625 -5.5625q0.625 0.6875 1.4375 2.1875q-0.6875 0.3125 -1.125 0.5625q-0.625 -1.375 -1.25 -2.125q0.4375 -0.25 0.9375 -0.625z" fill-rule="nonzero"/><path fill="#000000" d="m632.4554 175.77444q1.0625 -1.875 1.5625 -3.4375l-4.0 0l0 -1.1875l14.4375 0l0 1.1875l-9.0 0q-0.25 0.75 -0.5 1.3125l7.4375 0q-0.5 3.75 -1.375 4.9375q-0.5 0.625 -1.875 0.5l-1.6875 -0.1875l-0.0625 -1.375l1.9375 0.1875q0.625 0.0625 0.9375 -0.625q0.125 -0.3125 0.5625 -2.25l-6.25 0q-0.25 0.625 -0.6875 1.375l-1.4375 -0.4375zm1.4375 -9.25l0 2.0625l6.6875 0l0 -2.0625l-6.6875 0zm6.6875 3.6875l0 -0.4375l-6.6875 0l0 0.5625l-1.25 0l0 -5.0l9.1875 0l0 4.875l-1.25 0z" fill-rule="nonzero"/><path fill="#000000" d="m647.31476 181.21194l-1.015625 0q2.34375 -3.765625 2.34375 -7.515625q0 -1.46875 -0.34375 -2.921875q-0.265625 -1.171875 -0.734375 -2.25q-0.3125 -0.703125 -1.265625 -2.34375l1.015625 0q1.46875 1.96875 2.171875 3.9375q0.59375 1.703125 0.59375 3.5625q0 2.109375 -0.8125 4.09375q-0.796875 1.96875 -1.953125 3.4375z" fill-rule="nonzero"/><path fill="#000000" fill-opacity="0.0" d="m30.84252 150.55646l0 0c0 -69.13562 56.045486 -125.18111 125.1811 -125.18111l0 0c33.20009 0 65.04039 13.188686 88.5164 36.664696c23.476028 23.476013 36.66469 55.316315 36.66469 88.51641l0 0c0 69.135605 -56.04547 125.18109 -125.18109 125.18109l0 0c-69.13561 0 -125.1811 -56.045486 -125.1811 -125.18109z" fill-rule="evenodd"/><path stroke="#000000" stroke-width="1.0" stroke-linejoin="round" stroke-linecap="butt" d="m30.84252 150.55646l0 0c0 -69.13562 56.045486 -125.18111 125.1811 -125.18111l0 0c33.20009 0 65.04039 13.188686 88.5164 36.664696c23.476028 23.476013 36.66469 55.316315 36.66469 88.51641l0 0c0 69.135605 -56.04547 125.18109 -125.18109 125.18109l0 0c-69.13561 0 -125.1811 -56.045486 -125.1811 -125.18109z" fill-rule="evenodd"/><path fill="#000000" fill-opacity="0.0" d="m416.04724 150.55527l0 0c0 -69.13562 56.0455 -125.18111 125.18109 -125.18111l0 0c33.200134 0 65.040405 13.188684 88.51642 36.664696c23.476013 23.476013 36.664673 55.316315 36.664673 88.51641l0 0c0 69.135605 -56.04547 125.18109 -125.18109 125.18109l0 0c-69.13559 0 -125.18109 -56.045486 -125.18109 -125.18109z" fill-rule="evenodd"/><path stroke="#000000" stroke-width="1.0" stroke-linejoin="round" stroke-linecap="butt" d="m416.04724 150.55527l0 0c0 -69.13562 56.0455 -125.18111 125.18109 -125.18111l0 0c33.200134 0 65.040405 13.188684 88.51642 36.664696c23.476013 23.476013 36.664673 55.316315 36.664673 88.51641l0 0c0 69.135605 -56.04547 125.18109 -125.18109 125.18109l0 0c-69.13559 0 -125.18109 -56.045486 -125.18109 -125.18109z" fill-rule="evenodd"/><path fill="#000000" fill-opacity="0.0" d="m801.25195 150.55656l0 0c0 -69.135605 56.045532 -125.1811 125.18109 -125.1811l0 0c33.200134 0 65.040405 13.188684 88.51642 36.664696c23.476074 23.47601 36.664673 55.31631 36.664673 88.5164l0 0c0 69.13562 -56.04547 125.18111 -125.18109 125.18111l0 0c-69.13556 0 -125.18109 -56.045486 -125.18109 -125.18111z" fill-rule="evenodd"/><path stroke="#000000" stroke-width="1.0" stroke-linejoin="round" stroke-linecap="butt" d="m801.25195 150.55656l0 0c0 -69.135605 56.045532 -125.1811 125.18109 -125.1811l0 0c33.200134 0 65.040405 13.188684 88.51642 36.664696c23.476074 23.47601 36.664673 55.31631 36.664673 88.5164l0 0c0 69.13562 -56.04547 125.18111 -125.18109 125.18111l0 0c-69.13556 0 -125.18109 -56.045486 -125.18109 -125.18111z" fill-rule="evenodd"/><path fill="#000000" fill-opacity="0.0" d="m118.37008 49.824146l55.30709 0l0 38.45669l-55.30709 0z" fill-rule="evenodd"/><path fill="#000000" d="m135.99507 77.94477q-1.046875 0.875 -2.015625 1.25q-0.953125 0.359375 -2.0625 0.359375q-1.8125 0 -2.796875 -0.890625q-0.984375 -0.890625 -0.984375 -2.28125q0 -0.8125 0.375 -1.484375q0.375 -0.671875 0.96875 -1.078125q0.59375 -0.40625 1.34375 -0.609375q0.5625 -0.140625 1.671875 -0.28125q2.265625 -0.265625 3.34375 -0.640625q0.015625 -0.390625 0.015625 -0.5q0 -1.140625 -0.53125 -1.609375q-0.71875 -0.640625 -2.140625 -0.640625q-1.328125 0 -1.953125 0.46875q-0.625 0.46875 -0.9375 1.640625l-1.828125 -0.25q0.25 -1.171875 0.8125 -1.890625q0.578125 -0.734375 1.65625 -1.125q1.09375 -0.390625 2.515625 -0.390625q1.421875 0 2.296875 0.34375q0.890625 0.328125 1.3125 0.828125q0.421875 0.5 0.578125 1.28125q0.09375 0.46875 0.09375 1.71875l0 2.5q0 2.625 0.125 3.3125q0.125 0.6875 0.46875 1.328125l-1.953125 0q-0.296875 -0.578125 -0.375 -1.359375zm-0.15625 -4.1875q-1.015625 0.40625 -3.0625 0.703125q-1.15625 0.171875 -1.640625 0.375q-0.46875 0.203125 -0.734375 0.609375q-0.265625 0.40625 -0.265625 0.890625q0 0.75 0.5625 1.25q0.578125 0.5 1.671875 0.5q1.078125 0 1.921875 -0.46875q0.84375 -0.484375 1.25 -1.296875q0.296875 -0.640625 0.296875 -1.875l0 -0.6875zm4.7991943 9.78125l0 -15.296875l1.703125 0l0 1.4375q0.609375 -0.84375 1.359375 -1.265625q0.765625 -0.421875 1.859375 -0.421875q1.40625 0 2.484375 0.734375q1.09375 0.71875 1.640625 2.046875q0.546875 1.328125 0.546875 2.921875q0 1.6875 -0.609375 3.046875q-0.59375 1.359375 -1.765625 2.09375q-1.15625 0.71875 -2.4375 0.71875q-0.9375 0 -1.6875 -0.390625q-0.734375 -0.40625 -1.21875 -1.0l0 5.375l-1.875 0zm1.703125 -9.703125q0 2.140625 0.859375 3.15625q0.859375 1.015625 2.09375 1.015625q1.25 0 2.140625 -1.046875q0.890625 -1.0625 0.890625 -3.28125q0 -2.109375 -0.875 -3.15625q-0.859375 -1.0625 -2.078125 -1.0625q-1.1875 0 -2.109375 1.125q-0.921875 1.109375 -0.921875 3.25zm10.174194 -7.640625l0 -2.15625l1.875 0l0 2.15625l-1.875 0zm0 13.109375l0 -11.0625l1.875 0l0 11.0625l-1.875 0z" fill-rule="nonzero"/><path fill="#000000" fill-opacity="0.0" d="m499.52756 49.824146l70.23624 0l0 38.45669l-70.23624 0z" fill-rule="evenodd"/><path fill="#000000" d="m514.0276 77.63227l0.265625 1.65625q-0.78125 0.15625 -1.40625 0.15625q-1.0312805 0 -1.5937805 -0.3125q-0.5625 -0.328125 -0.796875 -0.84375q-0.21875 -0.53125 -0.21875 -2.21875l0 -6.375l-1.375 0l0 -1.453125l1.375 0l0 -2.734375l1.8594055 -1.125l0 3.859375l1.890625 0l0 1.453125l-1.890625 0l0 6.46875q0 0.8125 0.09375 1.046875q0.109375 0.21875 0.328125 0.359375q0.234375 0.125 0.640625 0.125q0.3125 0 0.828125 -0.0625zm1.8162231 1.671875l0 -11.0625l1.6875 0l0 1.671875q0.640625 -1.171875 1.1875 -1.546875q0.546875 -0.375 1.203125 -0.375q0.953125 0 1.921875 0.609375l-0.640625 1.734375q-0.6875 -0.40625 -1.375 -0.40625q-0.609375 0 -1.109375 0.375q-0.484375 0.359375 -0.6875 1.015625q-0.3125 1.0 -0.3125 2.1875l0 5.796875l-1.875 0zm14.336853 -1.359375q-1.046875 0.875 -2.015625 1.25q-0.953125 0.359375 -2.0625 0.359375q-1.8125 0 -2.796875 -0.890625q-0.984375 -0.890625 -0.984375 -2.28125q0 -0.8125 0.375 -1.484375q0.375 -0.671875 0.96875 -1.078125q0.59375 -0.40625 1.34375 -0.609375q0.5625 -0.140625 1.671875 -0.28125q2.265625 -0.265625 3.34375 -0.640625q0.015625 -0.390625 0.015625 -0.5q0 -1.140625 -0.53125 -1.609375q-0.71875 -0.640625 -2.140625 -0.640625q-1.328125 0 -1.953125 0.46875q-0.625 0.46875 -0.9375 1.640625l-1.828125 -0.25q0.25 -1.171875 0.8125 -1.890625q0.578125 -0.734375 1.65625 -1.125q1.09375 -0.390625 2.515625 -0.390625q1.421875 0 2.296875 0.34375q0.890625 0.328125 1.3125 0.828125q0.421875 0.5 0.578125 1.28125q0.09375 0.46875 0.09375 1.71875l0 2.5q0 2.625 0.125 3.3125q0.125 0.6875 0.46875 1.328125l-1.953125 0q-0.296875 -0.578125 -0.375 -1.359375zm-0.15625 -4.1875q-1.015625 0.40625 -3.0625 0.703125q-1.15625 0.171875 -1.640625 0.375q-0.46875 0.203125 -0.734375 0.609375q-0.265625 0.40625 -0.265625 0.890625q0 0.75 0.5625 1.25q0.578125 0.5 1.671875 0.5q1.078125 0 1.921875 -0.46875q0.84375 -0.484375 1.25 -1.296875q0.296875 -0.640625 0.296875 -1.875l0 -0.6875zm11.971069 5.546875l0 -1.390625q-1.046875 1.640625 -3.09375 1.640625q-1.3125 0 -2.421875 -0.71875q-1.109375 -0.734375 -1.71875 -2.046875q-0.609375 -1.3125 -0.609375 -3.0q0 -1.65625 0.546875 -3.0q0.546875 -1.359375 1.65625 -2.078125q1.109375 -0.71875 2.46875 -0.71875q1.0 0 1.78125 0.421875q0.78125 0.421875 1.265625 1.09375l0 -5.46875l1.875 0l0 15.265625l-1.75 0zm-5.921875 -5.515625q0 2.125 0.890625 3.171875q0.90625 1.046875 2.125 1.046875q1.21875 0 2.078125 -1.0q0.859375 -1.0 0.859375 -3.0625q0 -2.28125 -0.875 -3.34375q-0.875 -1.0625 -2.15625 -1.0625q-1.25 0 -2.09375 1.03125q-0.828125 1.015625 -0.828125 3.21875zm18.18982 1.953125l1.921875 0.234375q-0.453125 1.703125 -1.6875 2.640625q-1.234375 0.9375 -3.171875 0.9375q-2.421875 0 -3.84375 -1.484375q-1.421875 -1.5 -1.421875 -4.203125q0 -2.796875 1.4375 -4.328125q1.4375 -1.546875 3.734375 -1.546875q2.21875 0 3.609375 1.515625q1.40625 1.5 1.40625 4.25q0 0.15625 0 0.5l-8.25 0q0.109375 1.8125 1.03125 2.78125q0.921875 0.96875 2.3125 0.96875q1.03125 0 1.75 -0.53125q0.734375 -0.546875 1.171875 -1.734375zm-6.15625 -3.03125l6.171875 0q-0.125 -1.390625 -0.703125 -2.09375q-0.90625 -1.078125 -2.328125 -1.078125q-1.296875 0 -2.171875 0.859375q-0.875 0.859375 -0.96875 2.3125z" fill-rule="nonzero"/><path fill="#000000" fill-opacity="0.0" d="m888.77954 49.824146l85.543274 0l0 38.45669l-85.543274 0z" fill-rule="evenodd"/><path fill="#000000" d="m901.23267 79.304146l-3.390625 -11.0625l1.9375 0l1.765625 6.390625l0.65625 2.375q0.03125 -0.1875 0.5625 -2.28125l1.765625 -6.484375l1.921875 0l1.65625 6.421875l0.546875 2.109375l0.640625 -2.140625l1.890625 -6.390625l1.828125 0l-3.453125 11.0625l-1.953125 0l-1.75 -6.625l-0.4375 -1.890625l-2.234375 8.515625l-1.953125 0zm20.57434 -1.359375q-1.046875 0.875 -2.015625 1.25q-0.953125 0.359375 -2.0625 0.359375q-1.8125 0 -2.796875 -0.890625q-0.984375 -0.890625 -0.984375 -2.28125q0 -0.8125 0.375 -1.484375q0.375 -0.671875 0.96875 -1.078125q0.59375 -0.40625 1.34375 -0.609375q0.5625 -0.140625 1.671875 -0.28125q2.265625 -0.265625 3.34375 -0.640625q0.015625 -0.390625 0.015625 -0.5q0 -1.140625 -0.53125 -1.609375q-0.71875 -0.640625 -2.140625 -0.640625q-1.328125 0 -1.953125 0.46875q-0.625 0.46875 -0.9375 1.640625l-1.828125 -0.25q0.25 -1.171875 0.8125 -1.890625q0.578125 -0.734375 1.65625 -1.125q1.09375 -0.390625 2.515625 -0.390625q1.421875 0 2.296875 0.34375q0.890625 0.328125 1.3125 0.828125q0.421875 0.5 0.578125 1.28125q0.09375 0.46875 0.09375 1.71875l0 2.5q0 2.625 0.125 3.3125q0.125 0.6875 0.46875 1.328125l-1.953125 0q-0.296875 -0.578125 -0.375 -1.359375zm-0.15625 -4.1875q-1.015625 0.40625 -3.0625 0.703125q-1.15625 0.171875 -1.640625 0.375q-0.46875 0.203125 -0.734375 0.609375q-0.265625 0.40625 -0.265625 0.890625q0 0.75 0.5625 1.25q0.578125 0.5 1.671875 0.5q1.078125 0 1.921875 -0.46875q0.84375 -0.484375 1.25 -1.296875q0.296875 -0.640625 0.296875 -1.875l0 -0.6875zm4.7523193 5.546875l0 -15.265625l1.875 0l0 15.265625l-1.875 0zm4.7384644 0l0 -15.265625l1.875 0l0 15.265625l-1.875 0zm12.363403 -3.5625l1.921875 0.234375q-0.453125 1.703125 -1.6875 2.640625q-1.234375 0.9375 -3.171875 0.9375q-2.421875 0 -3.84375 -1.484375q-1.421875 -1.5 -1.421875 -4.203125q0 -2.796875 1.4375 -4.328125q1.4375 -1.546875 3.734375 -1.546875q2.21875 0 3.609375 1.515625q1.40625 1.5 1.40625 4.25q0 0.15625 0 0.5l-8.25 0q0.109375 1.8125 1.03125 2.78125q0.921875 0.96875 2.3125 0.96875q1.03125 0 1.75 -0.53125q0.734375 -0.546875 1.171875 -1.734375zm-6.15625 -3.03125l6.171875 0q-0.125 -1.390625 -0.703125 -2.09375q-0.90625 -1.078125 -2.328125 -1.078125q-1.296875 0 -2.171875 0.859375q-0.875 0.859375 -0.96875 2.3125zm14.533569 4.921875l0.265625 1.65625q-0.78125 0.15625 -1.40625 0.15625q-1.03125 0 -1.59375 -0.3125q-0.5625 -0.328125 -0.796875 -0.84375q-0.21875 -0.53125 -0.21875 -2.21875l0 -6.375l-1.375 0l0 -1.453125l1.375 0l0 -2.734375l1.859375 -1.125l0 3.859375l1.890625 0l0 1.453125l-1.890625 0l0 6.46875q0 0.8125 0.09375 1.046875q0.109375 0.21875 0.328125 0.359375q0.234375 0.125 0.640625 0.125q0.3125 0 0.828125 -0.0625z" fill-rule="nonzero"/><path fill="#000000" fill-opacity="0.0" d="m70.2126 116.74541l158.4567 0l0 38.456696l-158.4567 0z" fill-rule="evenodd"/><path fill="#000000" d="m82.353226 146.2254l-1.75 0l0 -15.265625l1.875 0l0 5.4375q1.1875 -1.484375 3.03125 -1.484375q1.03125 0 1.9375 0.421875q0.90625 0.40625 1.5 1.15625q0.59375 0.734375 0.921875 1.796875q0.328125 1.046875 0.328125 2.234375q0 2.84375 -1.40625 4.40625q-1.40625 1.546875 -3.375 1.546875q-1.953125 0 -3.0625 -1.640625l0 1.390625zm-0.03125 -5.609375q0 1.984375 0.546875 2.875q0.890625 1.4375 2.390625 1.4375q1.234375 0 2.125 -1.0625q0.90625 -1.0625 0.90625 -3.1875q0 -2.15625 -0.859375 -3.1875q-0.859375 -1.03125 -2.078125 -1.03125q-1.234375 0 -2.140625 1.0625q-0.890625 1.0625 -0.890625 3.09375zm10.174194 -7.5l0 -2.15625l1.875 0l0 2.15625l-1.875 0zm0 13.109375l0 -11.0625l1.875 0l0 11.0625l-1.875 0zm3.7384338 0l0 -1.515625l7.03125 -8.09375q-1.1875 0.0625 -2.109375 0.0625l-4.515625 0l0 -1.515625l9.046875 0l0 1.234375l-5.984375 7.03125l-1.15625 1.28125q1.25 -0.09375 2.359375 -0.09375l5.109375 0l0 1.609375l-9.78125 0zm9.9140625 4.234375l0 -1.34375l12.421875 0l0 1.34375l-12.421875 0zm13.611694 -17.34375l0 -2.15625l1.875 0l0 2.15625l-1.875 0zm0 13.109375l0 -11.0625l1.875 0l0 11.0625l-1.875 0zm11.894684 0l0 -1.390625q-1.046875 1.640625 -3.09375 1.640625q-1.3125 0 -2.421875 -0.71875q-1.109375 -0.734375 -1.71875 -2.046875q-0.609375 -1.3125 -0.609375 -3.0q0 -1.65625 0.546875 -3.0q0.546875 -1.359375 1.65625 -2.078125q1.109375 -0.71875 2.46875 -0.71875q1.0 0 1.78125 0.421875q0.78125 0.421875 1.265625 1.09375l0 -5.46875l1.875 0l0 15.265625l-1.75 0zm-5.921875 -5.515625q0 2.125 0.890625 3.171875q0.90625 1.046875 2.125 1.046875q1.21875 0 2.078125 -1.0q0.859375 -1.0 0.859375 -3.0625q0 -2.28125 -0.875 -3.34375q-0.875 -1.0625 -2.15625 -1.0625q-1.25 0 -2.09375 1.03125q-0.828125 1.015625 -0.828125 3.21875z" fill-rule="nonzero"/><path fill="#000000" d="m138.68861 149.6004q-1.171875 -1.46875 -1.984375 -3.4375q-0.796875 -1.984375 -0.796875 -4.09375q0 -1.859375 0.609375 -3.5625q0.703125 -1.96875 2.171875 -3.9375l1.0 0q-0.9375 1.625 -1.25 2.328125q-0.46875 1.078125 -0.75 2.25q-0.328125 1.453125 -0.328125 2.9375q0 3.75 2.328125 7.515625l-1.0 0z" fill-rule="nonzero"/><path fill="#000000" d="m147.32924 133.6629q-0.125 1.75 -0.125 3.0l0 9.1875l2.0625 0l0 -9.9375q0 -1.0 -0.125 -2.25l1.5625 0q-0.125 1.0 -0.125 2.125l0 10.0625l2.4375 0q1.0 0 2.4375 -0.125l0 1.375q-1.4375 -0.125 -2.375 -0.125l-9.5 0q-0.875 0 -2.5 0.125l0 -1.375q1.625 0.125 2.4375 0.125l2.3125 0l0 -9.25q0 -1.3125 -0.1875 -2.9375l1.6875 0zm-4.5 3.125q0.75 1.9375 2.0625 5.6875q-0.6875 0.125 -1.4375 0.5q-1.125 -3.625 -2.0 -5.625q0.625 -0.25 1.375 -0.5625zm12.0625 0.375q-0.8125 2.125 -2.25 5.9375q-0.625 -0.375 -1.3125 -0.5625q1.3125 -2.4375 2.0 -5.875q0.6875 0.25 1.5625 0.5zm8.5 -3.3125q-0.5 0.4375 -0.875 1.0l6.9375 0q-0.5625 0.9375 -1.46875 2.0q-0.90625 1.0625 -2.28125 2.0q0.875 0.5625 2.375 0.84375q1.5 0.28125 3.5625 0.34375q-0.5 0.5625 -0.6875 1.3125q-1.75 -0.125 -3.4375 -0.625q-1.6875 -0.5 -2.8125 -1.1875q-2.0 0.9375 -3.625 1.375q-1.625 0.4375 -3.1875 0.6875q-0.25 -0.75 -0.75 -1.3125q1.375 0 3.125 -0.375q1.75 -0.375 3.4375 -1.0625q-1.3125 -1.25 -2.25 -2.5625q-1.0625 1.3125 -2.1875 2.1875q-0.4375 -0.5 -1.125 -0.75q1.75 -1.25 2.5625 -2.40625q0.8125 -1.15625 1.1875 -2.15625q0.8125 0.4375 1.5 0.6875zm-0.125 8.25q0.125 -0.75 0.125 -1.75q0.75 0.125 1.5 0.1875q-0.1875 0.375 -0.375 1.5625l5.0625 0q-0.0625 0.75 -0.125 1.71875q-0.0625 0.96875 -0.21875 2.09375q-0.15625 1.125 -0.90625 1.3125q-0.75 0.1875 -2.375 0.375q-0.125 -0.8125 -0.625 -1.375q1.8125 0 2.1875 -0.125q0.375 -0.125 0.5 -0.6875l0.1875 -2.375l-3.8125 0q-0.875 2.6875 -2.46875 3.5q-1.59375 0.8125 -3.40625 1.4375q-0.1875 -0.5625 -0.875 -1.3125q1.5 -0.125 3.125 -0.9375q1.625 -0.8125 2.3125 -2.6875l-1.4375 0q-1.875 0 -2.75 0.125l0 -1.125q0.9375 0.0625 2.8125 0.0625l1.5625 0zm1.5 -3.9375q1.25 -0.75 2.4375 -2.375l-4.6875 0q1.1875 1.5625 2.25 2.375z" fill-rule="nonzero"/><path fill="#000000" d="m175.39174 144.1629q1.0625 -1.875 1.5625 -3.4375l-4.0 0l0 -1.1875l14.4375 0l0 1.1875l-9.0 0q-0.25 0.75 -0.5 1.3125l7.4375 0q-0.5 3.75 -1.375 4.9375q-0.5 0.625 -1.875 0.5l-1.6875 -0.1875l-0.0625 -1.375l1.9375 0.1875q0.625 0.0625 0.9375 -0.625q0.125 -0.3125 0.5625 -2.25l-6.25 0q-0.25 0.625 -0.6875 1.375l-1.4375 -0.4375zm1.4375 -9.25l0 2.0625l6.6875 0l0 -2.0625l-6.6875 0zm6.6875 3.6875l0 -0.4375l-6.6875 0l0 0.5625l-1.25 0l0 -5.0l9.1875 0l0 4.875l-1.25 0z" fill-rule="nonzero"/><path fill="#000000" d="m190.25111 149.6004l-1.015625 0q2.34375 -3.765625 2.34375 -7.515625q0 -1.46875 -0.34375 -2.921875q-0.265625 -1.171875 -0.734375 -2.25q-0.3125 -0.703125 -1.265625 -2.34375l1.015625 0q1.46875 1.96875 2.171875 3.9375q0.59375 1.703125 0.59375 3.5625q0 2.109375 -0.8125 4.09375q-0.796875 1.96875 -1.953125 3.4375z" fill-rule="nonzero"/><path fill="#000000" fill-opacity="0.0" d="m666.4094 56.133858l176.91339 0l0 250.36221l-176.91339 0z" fill-rule="evenodd"/><path fill="#000000" d="m687.05005 81.59948q2.578125 1.640625 7.03125 2.421875l-0.625 1.953125q-5.15625 -1.171875 -7.8125 -3.28125q-3.4375 2.1875 -8.359375 3.359375l-0.703125 -1.796875q4.609375 -0.859375 7.734375 -2.65625q-2.03125 -2.265625 -3.125 -5.0l-2.421875 0l0 -1.484375l5.703125 0l0 -2.8125l-7.5 0l0 -1.484375l7.5 0l0 -2.5l1.71875 0q0.78125 0.15625 0.078125 0.625l0 1.875l7.578125 0l0 1.484375l-7.578125 0l0 2.8125l3.59375 0l0.46875 -0.46875l1.328125 1.171875l-0.3125 0.15625q-1.953125 3.59375 -4.296875 5.625zm-3.984375 -5.0q1.015625 2.34375 2.65625 3.90625q1.875 -1.5625 3.125 -3.90625l-5.78125 0zm19.140625 -6.875q-0.46875 1.953125 -1.40625 3.90625q0.78125 0.15625 0.15625 0.625l0 11.5625l-1.5625 0l0 -9.6875q-0.859375 1.25 -1.71875 2.109375l-1.25 -1.40625q3.359375 -3.203125 4.375 -8.203125l1.640625 0.625q0.3125 0.3125 -0.234375 0.46875zm7.265625 3.4375l0 -4.453125l1.484375 0q0.625 0.078125 0.078125 0.46875l0 3.984375l3.203125 0l0 1.484375l-3.203125 0l0 9.6875q0 1.25 -1.25 1.25l-2.34375 0l-0.390625 -1.484375l2.109375 0q0.3125 0 0.3125 -0.3125l0 -9.140625l-7.03125 0l0 -1.484375l7.03125 0zm-4.53125 3.515625q1.328125 1.640625 2.421875 3.671875l-1.5625 1.015625q-1.09375 -2.265625 -2.34375 -3.75l1.484375 -0.9375z" fill-rule="nonzero"/><path fill="#000000" d="m720.0813 88.53698q-1.453125 -1.828125 -2.453125 -4.28125q-1.0 -2.46875 -1.0 -5.109375q0 -2.328125 0.75 -4.453125q0.875 -2.46875 2.703125 -4.921875l1.265625 0q-1.1875 2.03125 -1.5625 2.90625q-0.59375 1.34375 -0.9375 2.8125q-0.421875 1.828125 -0.421875 3.671875q0 4.6875 2.921875 9.375l-1.265625 0z" fill-rule="nonzero"/><path fill="#000000" d="m738.3196 69.333855q1.171875 0 2.34375 -0.078125l0 1.328125q-1.171875 -0.078125 -2.34375 -0.078125l-2.1875 0q-0.234375 1.171875 -0.46875 2.578125l4.296875 0q-0.078125 1.171875 -0.078125 2.5l0 3.359375q0 1.328125 0.078125 2.734375l-1.484375 0l0 -7.421875l-5.3125 0l0 7.578125l-1.484375 0q0.078125 -1.796875 0.078125 -2.890625l0 -3.28125q0 -1.25 -0.078125 -2.578125l2.578125 0q0.3125 -1.71875 0.3125 -2.578125l-0.859375 0q-1.328125 0 -2.734375 0.078125l0 -1.328125q1.484375 0.078125 2.734375 0.078125l4.609375 0zm-8.125 9.453125q-0.78125 -0.15625 -1.40625 -0.15625q0.3125 -1.328125 0.46875 -1.953125l-1.71875 0l0 7.265625q-0.078125 1.328125 -1.015625 1.640625q-0.9375 0.3125 -2.109375 0.3125q-0.15625 -0.859375 -0.546875 -1.640625q1.71875 0.15625 1.984375 -0.03125q0.28125 -0.203125 0.28125 -0.984375l0 -6.5625l-0.859375 0q-1.015625 0 -2.109375 0.078125l0 -1.328125q1.09375 0.078125 2.03125 0.078125l5.78125 0q-0.390625 1.5625 -0.78125 3.28125zm6.640625 -3.4375q-0.3125 0.9375 -0.390625 2.421875q-0.078125 1.484375 -0.4375 3.328125q-0.34375 1.828125 -1.5625 3.046875q-1.203125 1.203125 -3.234375 2.296875q-0.703125 -0.546875 -1.40625 -1.015625q1.875 -0.703125 3.0 -1.71875q1.140625 -1.015625 1.609375 -2.296875q0.46875 -1.296875 0.578125 -2.859375q0.125 -1.5625 0.125 -3.359375l1.71875 0.15625zm-9.6875 -0.078125q-1.09375 -1.171875 -2.578125 -2.34375q0.390625 -0.390625 0.859375 -0.9375q0.546875 0.390625 1.09375 0.859375q1.015625 -1.484375 1.640625 -2.1875l-1.71875 0q-1.5625 0 -2.96875 0.078125l0 -1.328125q1.40625 0.078125 2.890625 0.078125l3.75 0l0 1.171875q-1.171875 0.859375 -2.65625 3.046875l0.703125 0.625q-0.625 0.546875 -1.015625 0.9375zm9.84375 6.796875q2.96875 2.265625 4.0625 3.28125q-0.703125 0.546875 -1.09375 1.015625q-1.015625 -1.015625 -1.84375 -1.765625q-0.8125 -0.734375 -1.90625 -1.359375q0.390625 -0.546875 0.78125 -1.171875z" fill-rule="nonzero"/><path fill="#000000" d="m748.86646 69.72448q-0.46875 1.953125 -1.40625 3.90625q0.78125 0.15625 0.15625 0.625l0 11.5625l-1.5625 0l0 -9.6875q-0.859375 1.25 -1.71875 2.109375l-1.25 -1.40625q3.359375 -3.203125 4.375 -8.203125l1.640625 0.625q0.3125 0.3125 -0.234375 0.46875zm7.265625 3.4375l0 -4.453125l1.484375 0q0.625 0.078125 0.078125 0.46875l0 3.984375l3.203125 0l0 1.484375l-3.203125 0l0 9.6875q0 1.25 -1.25 1.25l-2.34375 0l-0.390625 -1.484375l2.109375 0q0.3125 0 0.3125 -0.3125l0 -9.140625l-7.03125 0l0 -1.484375l7.03125 0zm-4.53125 3.515625q1.328125 1.640625 2.421875 3.671875l-1.5625 1.015625q-1.09375 -2.265625 -2.34375 -3.75l1.484375 -0.9375z" fill-rule="nonzero"/><path fill="#000000" d="m764.5383 88.53698l-1.25 0q2.90625 -4.6875 2.90625 -9.375q0 -1.84375 -0.40625 -3.640625q-0.34375 -1.46875 -0.9375 -2.8125q-0.375 -0.890625 -1.5625 -2.9375l1.25 0q1.84375 2.453125 2.71875 4.921875q0.75 2.125 0.75 4.453125q0 2.640625 -1.015625 5.109375q-1.0 2.453125 -2.453125 4.28125z" fill-rule="nonzero"/><path fill="#000000" d="m681.73755 103.41198q-1.5625 3.046875 -3.203125 5.625q0.15625 0.78125 -0.234375 0.390625l-1.640625 -1.40625q1.40625 -1.640625 3.671875 -5.703125l1.40625 1.09375zm8.28125 -7.34375q0.78125 -1.171875 1.796875 -3.28125l1.5625 0.703125q0.546875 0.390625 -0.078125 0.390625q-1.25 2.265625 -1.796875 2.96875l-1.484375 -0.78125zm-10.46875 4.765625q-1.171875 -1.40625 -2.421875 -2.265625l0.9375 -1.171875q1.40625 0.78125 2.65625 2.1875l-1.171875 1.25zm11.875 4.6875l-6.640625 0l0 4.375l-1.5625 0l0 -12.5l4.0625 0l0 -5.15625l1.484375 0q0.625 0.078125 0.078125 0.46875l0 4.6875l4.140625 0l0 11.25q0 1.09375 -1.09375 1.09375l-1.640625 0l-0.234375 -1.484375l1.09375 0q0.3125 0 0.3125 -0.3125l0 -2.421875zm-6.640625 -8.59375q-0.703125 -1.640625 -1.5625 -2.96875l1.484375 -0.859375q1.09375 1.40625 1.71875 3.046875l-1.640625 0.78125zm0 1.953125l0 1.796875l6.640625 0l0 -1.796875l-6.640625 0zm0 5.15625l6.640625 0l0 -1.875l-6.640625 0l0 1.875zm-4.140625 -7.65625q-1.171875 -1.25 -2.578125 -2.109375l0.859375 -1.171875q1.640625 0.859375 2.734375 2.109375l-1.015625 1.171875z" fill-rule="nonzero"/><path fill="#000000" d="m702.4407 92.00573q0.859375 0.15625 1.796875 0.234375q-0.15625 0.390625 -0.234375 1.484375l2.734375 0q0 -0.78125 -0.078125 -1.640625l1.484375 0q-0.078125 0.859375 -0.078125 1.640625l5.078125 0q-0.078125 0.9375 -0.078125 1.953125q0 1.015625 0.078125 1.875l-5.078125 0l0 1.40625l6.171875 0q-0.078125 1.328125 -0.125 2.1875q-0.03125 0.859375 -0.46875 1.171875q-0.421875 0.3125 -1.90625 0.625q-0.15625 -0.78125 -0.703125 -1.5625q1.015625 0 1.328125 -0.109375q0.3125 -0.125 0.3125 -1.140625l-4.609375 0l0 1.796875l3.28125 0l0 2.734375q0 0.859375 0.078125 2.03125l-1.640625 0l0 -3.59375l-8.4375 0l0 4.140625l-1.5625 0q0.078125 -1.328125 0.078125 -2.34375l0 -1.953125q-0.78125 0.46875 -2.578125 1.171875q-0.390625 -0.78125 -0.9375 -1.5625q1.015625 -0.078125 2.6875 -0.734375q1.6875 -0.671875 2.625 -1.6875l-3.515625 0q0.3125 -2.265625 0.3125 -3.75l4.140625 0l0 -1.484375q-3.4375 0 -4.53125 0.078125l0 -1.328125q1.171875 0.078125 4.53125 0.078125q0 -0.703125 -0.15625 -1.71875zm4.375 12.265625q-0.390625 0.859375 -0.90625 2.03125q-0.5 1.171875 -1.359375 1.875q-0.859375 0.703125 -2.421875 1.28125q-1.5625 0.59375 -4.0625 0.828125q-0.234375 -0.78125 -0.78125 -1.640625q1.640625 0 3.125 -0.28125q1.484375 -0.265625 2.765625 -1.203125q1.296875 -0.9375 1.765625 -3.359375q0.78125 0.3125 1.875 0.46875zm0.78125 1.875q1.5625 0.625 3.0 1.25q1.453125 0.625 2.78125 1.25q-0.703125 0.859375 -1.09375 1.484375q-1.484375 -0.78125 -2.5 -1.296875q-1.015625 -0.5 -3.046875 -1.28125q0.3125 -0.46875 0.859375 -1.40625zm-0.9375 -4.21875l0 -1.796875l-3.046875 0q-0.9375 1.328125 -1.796875 1.796875l4.84375 0zm4.84375 -5.546875l0 -1.484375l-3.4375 0l0 1.484375l3.4375 0zm-4.84375 0l0 -1.484375l-2.65625 0l0 1.484375l2.65625 0zm0 2.578125l0 -1.40625l-2.65625 0q-0.078125 0.859375 -0.15625 1.40625l2.8125 0zm-4.375 0q0.234375 -0.859375 0.234375 -1.40625l-2.578125 0l-0.078125 1.40625l2.421875 0zm29.375 -5.625q1.171875 0 2.34375 -0.078125l0 1.328125q-1.171875 -0.078125 -2.34375 -0.078125l-2.1875 0q-0.234375 1.171875 -0.46875 2.578125l4.296875 0q-0.078125 1.171875 -0.078125 2.5l0 3.359375q0 1.328125 0.078125 2.734375l-1.484375 0l0 -7.421875l-5.3125 0l0 7.578125l-1.484375 0q0.078125 -1.796875 0.078125 -2.890625l0 -3.28125q0 -1.25 -0.078125 -2.578125l2.578125 0q0.3125 -1.71875 0.3125 -2.578125l-0.859375 0q-1.328125 0 -2.734375 0.078125l0 -1.328125q1.484375 0.078125 2.734375 0.078125l4.609375 0zm-8.125 9.453125q-0.78125 -0.15625 -1.40625 -0.15625q0.3125 -1.328125 0.46875 -1.953125l-1.71875 0l0 7.265625q-0.078125 1.328125 -1.015625 1.640625q-0.9375 0.3125 -2.109375 0.3125q-0.15625 -0.859375 -0.546875 -1.640625q1.71875 0.15625 1.984375 -0.03125q0.28125 -0.203125 0.28125 -0.984375l0 -6.5625l-0.859375 0q-1.015625 0 -2.109375 0.078125l0 -1.328125q1.09375 0.078125 2.03125 0.078125l5.78125 0q-0.390625 1.5625 -0.78125 3.28125zm6.640625 -3.4375q-0.3125 0.9375 -0.390625 2.421875q-0.078125 1.484375 -0.4375 3.328125q-0.34375 1.828125 -1.5625 3.046875q-1.203125 1.203125 -3.234375 2.296875q-0.703125 -0.546875 -1.40625 -1.015625q1.875 -0.703125 3.0 -1.71875q1.140625 -1.015625 1.609375 -2.296875q0.46875 -1.296875 0.578125 -2.859375q0.125 -1.5625 0.125 -3.359375l1.71875 0.15625zm-9.6875 -0.078125q-1.09375 -1.171875 -2.578125 -2.34375q0.390625 -0.390625 0.859375 -0.9375q0.546875 0.390625 1.09375 0.859375q1.015625 -1.484375 1.640625 -2.1875l-1.71875 0q-1.5625 0 -2.96875 0.078125l0 -1.328125q1.40625 0.078125 2.890625 0.078125l3.75 0l0 1.171875q-1.171875 0.859375 -2.65625 3.046875l0.703125 0.625q-0.625 0.546875 -1.015625 0.9375zm9.84375 6.796875q2.96875 2.265625 4.0625 3.28125q-0.703125 0.546875 -1.09375 1.015625q-1.015625 -1.015625 -1.84375 -1.765625q-0.8125 -0.734375 -1.90625 -1.359375q0.390625 -0.546875 0.78125 -1.171875z" fill-rule="nonzero"/><path fill="#000000" d="m742.2063 93.72448q-0.46875 1.953125 -1.40625 3.90625q0.78125 0.15625 0.15625 0.625l0 11.5625l-1.5625 0l0 -9.6875q-0.859375 1.25 -1.71875 2.109375l-1.25 -1.40625q3.359375 -3.203125 4.375 -8.203125l1.640625 0.625q0.3125 0.3125 -0.234375 0.46875zm7.265625 3.4375l0 -4.453125l1.484375 0q0.625 0.078125 0.078125 0.46875l0 3.984375l3.203125 0l0 1.484375l-3.203125 0l0 9.6875q0 1.25 -1.25 1.25l-2.34375 0l-0.390625 -1.484375l2.109375 0q0.3125 0 0.3125 -0.3125l0 -9.140625l-7.03125 0l0 -1.484375l7.03125 0zm-4.53125 3.515625q1.328125 1.640625 2.421875 3.671875l-1.5625 1.015625q-1.09375 -2.265625 -2.34375 -3.75l1.484375 -0.9375zm20.078125 -1.171875q1.875 -2.578125 2.5 -7.34375l1.640625 0.234375q0.234375 0.234375 -0.15625 0.46875l-0.625 2.8125l4.609375 0l0.15625 -0.3125l1.171875 0.546875q0.546875 0.234375 -0.078125 0.546875q-0.78125 2.5 -2.109375 4.375l-1.328125 -0.78125q1.171875 -1.796875 1.484375 -2.890625l-2.109375 0l0 2.8125q0 4.53125 4.53125 7.890625l-1.09375 1.5625q-3.28125 -2.65625 -3.984375 -6.015625q-0.78125 4.21875 -4.453125 6.5625l-1.09375 -1.25q4.53125 -2.890625 4.53125 -8.671875l0 -2.890625l-0.625 0q-0.625 1.875 -1.640625 3.203125l-1.328125 -0.859375zm-3.28125 -7.34375q0.625 0.078125 0.078125 0.46875l0 1.796875l3.515625 0l0 1.25l-3.515625 0l0 1.71875l2.890625 0l0 1.25l-7.34375 0l0 -1.25l2.890625 0l0 -1.71875l-3.4375 0l0 -1.25l3.4375 0l0 -2.265625l1.484375 0zm0.15625 16.5625q0 1.25 -1.25 1.25l-1.171875 0l-0.15625 -1.484375l0.703125 0q0.3125 0 0.3125 -0.3125l0 -4.375l-3.984375 0l0 -1.25l9.375 0l0 1.25l-3.828125 0l0 4.921875zm2.8125 -7.578125l-7.34375 0l0 -1.25l7.34375 0l0 1.25zm-5.390625 3.90625q0.703125 0.234375 -0.078125 0.625q-0.3125 1.328125 -1.640625 3.125l-1.328125 -1.015625q1.25 -1.5625 1.640625 -3.203125l1.40625 0.46875zm4.53125 -0.625q1.09375 1.09375 1.640625 2.265625l-1.40625 0.9375q-0.703125 -1.328125 -1.484375 -2.421875l1.25 -0.78125z" fill-rule="nonzero"/><path fill="#000000" d="m679.4719 130.69324l0 -5.0781326l-2.8125 0l0 -1.484375l4.375 0l0 6.3281326q1.796875 1.796875 4.140625 1.796875l9.296875 0l-0.3125 1.484375l-8.828125 0q-3.046875 0 -5.078125 -2.109375l-2.34375 2.265625l-1.25 -1.71875l2.8125 -1.484375zm0.78125 -9.921883q-1.09375 -1.640625 -2.34375 -2.578125l1.25 -1.09375q1.40625 1.09375 2.34375 2.421875l-1.25 1.25zm10.234375 7.1875q1.796875 1.4843826 3.515625 1.8750076l-0.625 1.5625q-4.84375 -1.484375 -6.5625 -7.1093826l-1.71875 0l0 5.0000076l3.75 -0.546875l0.15625 1.40625l-6.015625 0.9375q-0.078125 0.546875 -0.390625 0.234375l-0.46875 -1.640625l1.40625 -0.15625l0 -12.578133l8.59375 0l0 7.34375l-3.984375 0q0.3125 1.171875 1.484375 2.65625l2.421875 -2.5l1.25 1.09375q0.078125 0.390625 -0.390625 0.234375l-2.421875 2.1875zm-5.390625 -9.765625l0 1.796875l5.46875 0l0 -1.796875l-5.46875 0zm0 3.046875l0 1.796875l5.46875 0l0 -1.796875l-5.46875 0zm19.921875 2.265625q1.875 -2.578125 2.5 -7.34375l1.640625 0.234375q0.234375 0.234375 -0.15625 0.46875l-0.625 2.8125l4.609375 0l0.15625 -0.3125l1.171875 0.546875q0.546875 0.234375 -0.078125 0.546875q-0.78125 2.5 -2.109375 4.375l-1.328125 -0.78125q1.171875 -1.796875 1.484375 -2.890625l-2.109375 0l0 2.8125q0 4.5312576 4.53125 7.8906326l-1.09375 1.5625q-3.28125 -2.65625 -3.984375 -6.0156326q-0.78125 4.2187576 -4.453125 6.5625076l-1.09375 -1.25q4.53125 -2.890625 4.53125 -8.671883l0 -2.890625l-0.625 0q-0.625 1.875 -1.640625 3.203125l-1.328125 -0.859375zm-3.28125 -7.34375q0.625 0.078125 0.078125 0.46875l0 1.796875l3.515625 0l0 1.25l-3.515625 0l0 1.71875l2.890625 0l0 1.25l-7.34375 0l0 -1.25l2.890625 0l0 -1.71875l-3.4375 0l0 -1.25l3.4375 0l0 -2.265625l1.484375 0zm0.15625 16.562508q0 1.25 -1.25 1.25l-1.171875 0l-0.15625 -1.484375l0.703125 0q0.3125 0 0.3125 -0.3125l0 -4.3750076l-3.984375 0l0 -1.25l9.375 0l0 1.25l-3.828125 0l0 4.9218826zm2.8125 -7.5781326l-7.34375 0l0 -1.25l7.34375 0l0 1.25zm-5.390625 3.9062576q0.703125 0.234375 -0.078125 0.625q-0.3125 1.328125 -1.640625 3.125l-1.328125 -1.015625q1.25 -1.5625 1.640625 -3.203125l1.40625 0.46875zm4.53125 -0.625q1.09375 1.09375 1.640625 2.265625l-1.40625 0.9375q-0.703125 -1.328125 -1.484375 -2.421875l1.25 -0.78125z" fill-rule="nonzero"/><path fill="#000000" d="m684.6282 142.66199q0 -1.25 -0.078125 -2.421875l1.5625 0q-0.078125 1.09375 -0.078125 2.421875l4.84375 0q1.09375 0 2.65625 -0.078125l0 1.484375q-1.5625 -0.078125 -2.65625 -0.078125l-2.8125 0q0.859375 1.25 2.578125 2.1875q1.71875 0.9375 3.90625 1.484375q-0.78125 0.625 -1.09375 1.5625q-2.421875 -0.859375 -4.109375 -2.109375q-1.671875 -1.25 -2.84375 -3.125l-0.46875 0l0 4.296875l4.921875 0q-0.078125 1.40625 -0.078125 3.125q0 1.640625 0.078125 3.28125l-11.09375 0q0.078125 -1.484375 0.078125 -3.203125q0 -1.796875 -0.078125 -3.203125q-1.015625 0.625 -2.421875 1.328125q-0.46875 -0.859375 -1.09375 -1.40625q1.71875 -0.390625 3.4375 -1.5625q1.71875 -1.171875 2.734375 -2.65625l-2.265625 0q-1.40625 0 -2.96875 0.078125l0 -1.484375q1.5625 0.078125 2.96875 0.078125l4.375 0zm6.71875 13.671875q1.328125 0 2.578125 -0.078125l0 1.40625q-2.96875 -0.078125 -4.140625 -0.078125l-9.921875 0q-1.40625 0 -2.8125 0.078125l0 -1.40625q1.484375 0.078125 2.8125 0.078125l11.484375 0zm-1.875 -2.890625l0 -1.40625l-8.125 0l0 1.40625l8.125 0zm0 -2.578125l0 -1.328125l-8.125 0l0 1.328125l8.125 0zm-4.84375 -2.578125l0 -4.296875l-0.390625 0q-0.859375 1.328125 -1.875 2.34375q-1.015625 1.015625 -2.421875 1.953125l4.6875 0zm23.125 -7.578125q-0.625 0.46875 -1.640625 2.421875l8.046875 0q-0.078125 1.25 -0.078125 3.125l0 10.0q0 1.171875 -0.859375 1.515625q-0.859375 0.359375 -2.34375 0.59375q-0.15625 -1.09375 -0.859375 -1.71875q1.5625 -0.078125 2.0625 -0.203125q0.515625 -0.109375 0.59375 -0.8125l0 -11.328125l-7.109375 0q-0.9375 1.5625 -1.25 2.109375l6.09375 0q-0.078125 1.09375 -0.078125 4.296875q0 3.203125 0.078125 4.84375l-6.484375 0q0.078125 -1.484375 0.078125 -3.046875l0 -5.46875q-0.625 0.9375 -1.25 1.71875q-0.703125 -0.78125 -1.484375 -1.015625q1.09375 -1.171875 1.75 -2.21875q0.671875 -1.0625 1.453125 -2.578125q0.78125 -1.53125 1.40625 -3.171875q0.625 0.703125 1.875 0.9375zm-7.578125 5.703125q-0.078125 1.484375 -0.078125 3.046875l0 5.546875q1.015625 -1.09375 1.71875 -1.875q0.234375 0.390625 1.015625 1.25q-1.015625 0.859375 -1.953125 1.796875q-0.9375 0.9375 -1.640625 1.953125q-0.625 -0.859375 -1.40625 -1.40625q0.78125 -0.78125 0.78125 -1.640625l0 -7.34375l-0.703125 0q-0.625 0 -1.796875 0.078125l0 -1.484375q1.171875 0.078125 1.796875 0.078125l2.265625 0zm8.671875 3.984375l0 -2.8125l-3.359375 0l0 2.8125l3.359375 0zm0 3.90625l0 -2.734375l-3.359375 0l0 2.734375l3.359375 0zm-9.765625 -13.828125q0.46875 0.703125 2.03125 3.125q-0.78125 0.3125 -1.640625 0.78125q-1.171875 -2.109375 -1.953125 -3.125q0.859375 -0.390625 1.5625 -0.78125z" fill-rule="nonzero"/><path fill="#000000" d="m727.05005 153.59949q2.578125 1.640625 7.03125 2.421875l-0.625 1.953125q-5.15625 -1.171875 -7.8125 -3.28125q-3.4375 2.1875 -8.359375 3.359375l-0.703125 -1.796875q4.609375 -0.859375 7.734375 -2.65625q-2.03125 -2.265625 -3.125 -5.0l-2.421875 0l0 -1.484375l5.703125 0l0 -2.8125l-7.5 0l0 -1.484375l7.5 0l0 -2.5l1.71875 0q0.78125 0.15625 0.078125 0.625l0 1.875l7.578125 0l0 1.484375l-7.578125 0l0 2.8125l3.59375 0l0.46875 -0.46875l1.328125 1.171875l-0.3125 0.15625q-1.953125 3.59375 -4.296875 5.625zm-3.984375 -5.0q1.015625 2.34375 2.65625 3.90625q1.875 -1.5625 3.125 -3.90625l-5.78125 0zm19.140625 -6.875q-0.46875 1.953125 -1.40625 3.90625q0.78125 0.15625 0.15625 0.625l0 11.5625l-1.5625 0l0 -9.6875q-0.859375 1.25 -1.71875 2.109375l-1.25 -1.40625q3.359375 -3.203125 4.375 -8.203125l1.640625 0.625q0.3125 0.3125 -0.234375 0.46875zm7.265625 3.4375l0 -4.453125l1.484375 0q0.625 0.078125 0.078125 0.46875l0 3.984375l3.203125 0l0 1.484375l-3.203125 0l0 9.6875q0 1.25 -1.25 1.25l-2.34375 0l-0.390625 -1.484375l2.109375 0q0.3125 0 0.3125 -0.3125l0 -9.140625l-7.03125 0l0 -1.484375l7.03125 0zm-4.53125 3.515625q1.328125 1.640625 2.421875 3.671875l-1.5625 1.015625q-1.09375 -2.265625 -2.34375 -3.75l1.484375 -0.9375zm11.25 0.3125q2.96875 -3.515625 3.515625 -8.671875l1.796875 0.46875q0.3125 0.3125 -0.234375 0.46875q-0.390625 2.265625 -1.015625 4.0625q0.859375 0.078125 0.15625 0.546875l0 12.1875l-1.5625 0l0 -9.84375q-0.546875 1.09375 -1.484375 2.1875l-1.171875 -1.40625zm15.15625 4.375l-6.953125 0l0 2.265625l6.953125 0l0 -2.265625zm-8.515625 -1.484375l10.078125 0l0 5.9375l-1.5625 0l0 -0.703125l-6.953125 0l0 0.9375l-1.5625 0l0 -6.171875zm0.46875 -1.328125l0 -1.484375l8.828125 0l0 1.484375l-8.828125 0zm0 -2.734375l0 -1.484375l8.828125 0l0 1.484375l-8.828125 0zm-1.796875 -4.140625l12.578125 0l0 1.484375l-12.578125 0l0 -1.484375zm1.796875 -2.8125l8.828125 0l0 1.484375l-8.828125 0l0 -1.484375zm13.359375 16.09375q1.171875 -2.1875 1.5625 -4.296875l1.640625 0.46875q0.625 0.078125 0 0.46875q-0.625 2.109375 -1.640625 4.0625l-1.5625 -0.703125zm16.5625 0.15625q-1.40625 -2.34375 -3.046875 -3.828125l1.328125 -1.015625q1.953125 1.640625 3.203125 3.75l-1.484375 1.09375zm-10.703125 -4.53125q0.625 0.078125 0.078125 0.46875l0 2.65625q0 0.625 0.546875 0.625l4.84375 0q0.546875 0 0.703125 -0.46875l0.3125 -1.171875l1.640625 0.3125l-0.390625 1.484375q-0.3125 1.328125 -2.1875 1.328125l-5.625 0q-1.40625 0 -1.40625 -1.328125l0 -3.90625l1.484375 0zm-1.5625 -1.328125l0 0.703125l-1.5625 0l0 -10.0l4.21875 0l0.46875 -1.875l1.796875 0.15625q0.46875 0.234375 -0.234375 0.390625l-0.46875 1.328125l6.171875 0l0 9.921875l-1.5625 0l0 -0.625l-8.828125 0zm4.21875 0.15625q1.40625 1.015625 2.578125 2.734375l-1.328125 1.015625q-1.328125 -1.875 -2.421875 -2.8125l1.171875 -0.9375zm-4.21875 -1.40625l8.828125 0l0 -1.484375l-8.828125 0l0 1.484375zm8.828125 -4.140625l-8.828125 0l0 1.40625l8.828125 0l0 -1.40625zm-8.828125 -1.25l8.828125 0l0 -1.40625l-8.828125 0l0 1.40625z" fill-rule="nonzero"/><path fill="#000000" d="m679.7844 173.53699l0 -3.984375l-2.8125 0l0 -1.484375l2.8125 0l0 -3.828125l1.484375 0q0.625 0.078125 0.078125 0.46875l0 3.359375l2.5 0l0 1.484375l-2.5 0l0 3.59375l2.65625 -0.859375l0.390625 1.484375l-3.046875 1.09375l0 5.859375q0 1.25 -1.25 1.25l-1.71875 0l-0.390625 -1.484375l1.484375 0q0.3125 0 0.3125 -0.3125l0 -4.84375l-2.1875 0.703125q-0.078125 0.703125 -0.390625 0.234375l-0.625 -1.953125l3.203125 -0.78125zm14.53125 -5.390625l-3.828125 0l0 12.5q0 1.25 -1.25 1.25l-1.71875 0l-0.3125 -1.484375l1.40625 0q0.3125 0 0.3125 -0.3125l0 -11.953125l-4.296875 0l0 -1.71875l9.6875 0l0 1.71875zm10.703125 3.359375q1.875 -2.578125 2.5 -7.34375l1.640625 0.234375q0.234375 0.234375 -0.15625 0.46875l-0.625 2.8125l4.609375 0l0.15625 -0.3125l1.171875 0.546875q0.546875 0.234375 -0.078125 0.546875q-0.78125 2.5 -2.109375 4.375l-1.328125 -0.78125q1.171875 -1.796875 1.484375 -2.890625l-2.109375 0l0 2.8125q0 4.53125 4.53125 7.890625l-1.09375 1.5625q-3.28125 -2.65625 -3.984375 -6.015625q-0.78125 4.21875 -4.453125 6.5625l-1.09375 -1.25q4.53125 -2.890625 4.53125 -8.671875l0 -2.890625l-0.625 0q-0.625 1.875 -1.640625 3.203125l-1.328125 -0.859375zm-3.28125 -7.34375q0.625 0.078125 0.078125 0.46875l0 1.796875l3.515625 0l0 1.25l-3.515625 0l0 1.71875l2.890625 0l0 1.25l-7.34375 0l0 -1.25l2.890625 0l0 -1.71875l-3.4375 0l0 -1.25l3.4375 0l0 -2.265625l1.484375 0zm0.15625 16.5625q0 1.25 -1.25 1.25l-1.171875 0l-0.15625 -1.484375l0.703125 0q0.3125 0 0.3125 -0.3125l0 -4.375l-3.984375 0l0 -1.25l9.375 0l0 1.25l-3.828125 0l0 4.921875zm2.8125 -7.578125l-7.34375 0l0 -1.25l7.34375 0l0 1.25zm-5.390625 3.90625q0.703125 0.234375 -0.078125 0.625q-0.3125 1.328125 -1.640625 3.125l-1.328125 -1.015625q1.25 -1.5625 1.640625 -3.203125l1.40625 0.46875zm4.53125 -0.625q1.09375 1.09375 1.640625 2.265625l-1.40625 0.9375q-0.703125 -1.328125 -1.484375 -2.421875l1.25 -0.78125z" fill-rule="nonzero"/><path fill="#000000" d="m677.2219 204.33386l0 -2.0l2.0 0l0 2.0l-2.0 0zm5.5566406 0l0 -2.0l2.0 0l0 2.0l-2.0 0zm5.5566406 0l0 -2.0l2.0 0l0 2.0l-2.0 0z" fill-rule="nonzero"/><path fill="#000000" fill-opacity="0.0" d="m281.2047 64.28084l158.4567 0l0 250.3622l-158.4567 0z" fill-rule="evenodd"/><path fill="#000000" d="m301.53284 82.324585q3.515625 1.953125 5.78125 4.21875l-1.25 1.40625q-2.265625 -2.265625 -5.46875 -4.296875l0.9375 -1.328125zm-2.8125 11.328125l0 -13.75l-7.03125 0l0 -1.71875l16.796875 0l0 1.71875l-7.96875 0l0 13.75l-1.796875 0z" fill-rule="nonzero"/><path fill="#000000" d="m326.6891 79.74646l0 7.96875l-5.859375 0l0 1.875l5.15625 0q1.71875 0 2.96875 -0.078125l0 1.5625q-1.328125 -0.078125 -2.96875 -0.078125l-5.15625 0q0 2.421875 0.078125 3.4375l-1.71875 0q0.15625 -1.015625 0.15625 -3.4375l-5.078125 0q-1.875 0 -2.734375 0.078125l0 -1.5625q0.78125 0.078125 2.578125 0.078125l5.234375 0l0 -1.875l-5.625 0q0.078125 -1.328125 0.078125 -3.828125q0 -2.5 -0.078125 -4.140625l7.734375 0q0.859375 -1.796875 1.484375 -3.671875q0.78125 0.390625 1.796875 0.859375q-0.3125 0.390625 -0.78125 1.21875q-0.46875 0.8125 -0.9375 1.59375l3.671875 0zm-1.5625 6.71875l0 -2.109375l-4.296875 0l0 2.109375l4.296875 0zm0 -3.359375l0 -2.03125l-4.296875 0l0 2.03125l4.296875 0zm-5.78125 3.359375l0 -2.109375l-4.0625 0l0 2.109375l4.0625 0zm0 -3.359375l0 -2.03125l-4.0625 0l0 2.03125l4.0625 0zm-2.578125 -6.953125q0.78125 0.859375 1.796875 2.734375q-0.859375 0.390625 -1.40625 0.703125q-0.78125 -1.71875 -1.5625 -2.65625q0.546875 -0.3125 1.171875 -0.78125z" fill-rule="nonzero"/><path fill="#000000" d="m299.42346 102.80896q0 -1.25 -0.078125 -2.421875l1.5625 0q-0.078125 1.09375 -0.078125 2.421875l4.84375 0q1.09375 0 2.65625 -0.078125l0 1.484375q-1.5625 -0.078125 -2.65625 -0.078125l-2.8125 0q0.859375 1.25 2.578125 2.1875q1.71875 0.9375 3.90625 1.484375q-0.78125 0.625 -1.09375 1.5625q-2.421875 -0.859375 -4.109375 -2.109375q-1.671875 -1.25 -2.84375 -3.125l-0.46875 0l0 4.296875l4.921875 0q-0.078125 1.40625 -0.078125 3.125q0 1.640625 0.078125 3.28125l-11.09375 0q0.078125 -1.484375 0.078125 -3.203125q0 -1.796875 -0.078125 -3.203125q-1.015625 0.625 -2.421875 1.328125q-0.46875 -0.859375 -1.09375 -1.40625q1.71875 -0.390625 3.4375 -1.5625q1.71875 -1.171875 2.734375 -2.65625l-2.265625 0q-1.40625 0 -2.96875 0.078125l0 -1.484375q1.5625 0.078125 2.96875 0.078125l4.375 0zm6.71875 13.671875q1.328125 0 2.578125 -0.078125l0 1.40625q-2.96875 -0.078125 -4.140625 -0.078125l-9.921875 0q-1.40625 0 -2.8125 0.078125l0 -1.40625q1.484375 0.078125 2.8125 0.078125l11.484375 0zm-1.875 -2.890625l0 -1.40625l-8.125 0l0 1.40625l8.125 0zm0 -2.578125l0 -1.328125l-8.125 0l0 1.328125l8.125 0zm-4.84375 -2.578125l0 -4.296875l-0.390625 0q-0.859375 1.328125 -1.875 2.34375q-1.015625 1.015625 -2.421875 1.953125l4.6875 0zm23.125 -7.578125q-0.625 0.46875 -1.640625 2.421875l8.046875 0q-0.078125 1.25 -0.078125 3.125l0 10.0q0 1.171875 -0.859375 1.515625q-0.859375 0.359375 -2.34375 0.59375q-0.15625 -1.09375 -0.859375 -1.71875q1.5625 -0.078125 2.0625 -0.203125q0.515625 -0.109375 0.59375 -0.8125l0 -11.328125l-7.109375 0q-0.9375 1.5625 -1.25 2.109375l6.09375 0q-0.078125 1.09375 -0.078125 4.296875q0 3.203125 0.078125 4.84375l-6.484375 0q0.078125 -1.484375 0.078125 -3.046875l0 -5.46875q-0.625 0.9375 -1.25 1.71875q-0.703125 -0.78125 -1.484375 -1.015625q1.09375 -1.171875 1.75 -2.21875q0.671875 -1.0625 1.453125 -2.578125q0.78125 -1.53125 1.40625 -3.171875q0.625 0.703125 1.875 0.9375zm-7.578125 5.703125q-0.078125 1.484375 -0.078125 3.046875l0 5.546875q1.015625 -1.09375 1.71875 -1.875q0.234375 0.390625 1.015625 1.25q-1.015625 0.859375 -1.953125 1.796875q-0.9375 0.9375 -1.640625 1.953125q-0.625 -0.859375 -1.40625 -1.40625q0.78125 -0.78125 0.78125 -1.640625l0 -7.34375l-0.703125 0q-0.625 0 -1.796875 0.078125l0 -1.484375q1.171875 0.078125 1.796875 0.078125l2.265625 0zm8.671875 3.984375l0 -2.8125l-3.359375 0l0 2.8125l3.359375 0zm0 3.90625l0 -2.734375l-3.359375 0l0 2.734375l3.359375 0zm-9.765625 -13.828125q0.46875 0.703125 2.03125 3.125q-0.78125 0.3125 -1.640625 0.78125q-1.171875 -2.109375 -1.953125 -3.125q0.859375 -0.390625 1.5625 -0.78125zm32.734375 1.015625q0.859375 0 2.734375 -0.078125l0 1.484375q-1.71875 -0.078125 -4.21875 -0.078125l0 13.203125q0 1.40625 -1.21875 1.75q-1.203125 0.359375 -2.453125 0.4375q-0.078125 -1.015625 -0.625 -2.109375q1.328125 0.15625 2.03125 0.078125q0.703125 -0.078125 0.78125 -0.78125l0 -12.578125l-3.359375 0q-1.171875 0 -2.421875 0.078125l0 -1.484375q1.953125 0.078125 2.5 0.078125l6.25 0zm-10.625 13.515625q1.71875 -1.484375 2.8125 -2.5q0.234375 0.9375 0.625 1.5625q-1.171875 0.9375 -2.421875 2.0q-1.25 1.046875 -2.109375 1.984375q-0.46875 -0.703125 -1.09375 -1.25q0.78125 -0.625 0.703125 -1.71875l0 -7.265625l-1.09375 0q-1.328125 0 -2.265625 0.078125l0 -1.484375q0.9375 0.078125 2.265625 0.078125l2.65625 0q0 1.484375 -0.078125 2.8125l0 5.703125zm-2.1875 -14.6875q1.171875 1.09375 3.125 3.203125q-0.625 0.546875 -1.328125 1.25q-1.328125 -1.796875 -2.96875 -3.28125q0.703125 -0.625 1.171875 -1.171875zm32.890625 3.28125l0 7.96875l-5.859375 0l0 1.875l5.15625 0q1.71875 0 2.96875 -0.078125l0 1.5625q-1.328125 -0.078125 -2.96875 -0.078125l-5.15625 0q0 2.421875 0.078125 3.4375l-1.71875 0q0.15625 -1.015625 0.15625 -3.4375l-5.078125 0q-1.875 0 -2.734375 0.078125l0 -1.5625q0.78125 0.078125 2.578125 0.078125l5.234375 0l0 -1.875l-5.625 0q0.078125 -1.328125 0.078125 -3.828125q0 -2.5 -0.078125 -4.140625l7.734375 0q0.859375 -1.796875 1.484375 -3.671875q0.78125 0.390625 1.796875 0.859375q-0.3125 0.390625 -0.78125 1.21875q-0.46875 0.8125 -0.9375 1.59375l3.671875 0zm-1.5625 6.71875l0 -2.109375l-4.296875 0l0 2.109375l4.296875 0zm0 -3.359375l0 -2.03125l-4.296875 0l0 2.03125l4.296875 0zm-5.78125 3.359375l0 -2.109375l-4.0625 0l0 2.109375l4.0625 0zm0 -3.359375l0 -2.03125l-4.0625 0l0 2.03125l4.0625 0zm-2.578125 -6.953125q0.78125 0.859375 1.796875 2.734375q-0.859375 0.390625 -1.40625 0.703125q-0.78125 -1.71875 -1.5625 -2.65625q0.546875 -0.3125 1.171875 -0.78125z" fill-rule="nonzero"/><path fill="#000000" d="m303.72034 130.01208q-0.15625 0.859375 -0.15625 3.125l2.8125 0q1.171875 0 2.03125 -0.078125l0 1.40625q-0.859375 -0.078125 -2.03125 -0.078125l-2.734375 0q0.15625 0.78125 0.546875 1.71875q0.390625 0.9375 1.09375 1.84375q0.703125 0.890625 1.71875 1.71875q1.015625 0.8125 1.796875 1.046875q-0.9375 0.703125 -1.328125 1.40625q-1.40625 -1.015625 -2.65625 -2.453125q-1.25 -1.453125 -1.953125 -3.40625q-0.546875 1.640625 -1.296875 2.734375q-0.734375 1.09375 -1.40625 1.828125q-0.65625 0.75 -1.75 1.53125q-0.546875 -0.703125 -1.171875 -1.171875q0.9375 -0.546875 1.796875 -1.328125q0.859375 -0.78125 1.4375 -1.71875q0.59375 -0.9375 0.984375 -1.984375q0.390625 -1.0625 0.46875 -1.765625l-0.859375 0q-1.328125 0 -2.734375 0.078125l0 -1.40625q1.40625 0.078125 2.734375 0.078125l1.015625 0q0 -2.5 -0.078125 -3.359375q0.78125 0.15625 1.71875 0.234375zm-5.46875 0.46875q-0.546875 0.3125 -1.09375 0.75q-0.546875 0.421875 -0.859375 0.734375q0.78125 1.09375 1.171875 2.78125q0.390625 1.671875 0.1875 3.546875q-0.1875 1.875 -1.328125 2.765625q-1.125 0.90625 -3.078125 1.296875q-0.078125 -0.625 -0.625 -1.40625q1.796875 -0.234375 2.53125 -0.78125q0.75 -0.546875 0.9375 -1.28125q0.203125 -0.75 0.234375 -1.484375q0.046875 -0.75 -0.109375 -2.0q-0.546875 0.78125 -1.328125 1.453125q-0.78125 0.65625 -2.5 1.984375q-0.390625 -0.625 -1.09375 -1.09375q1.40625 -0.625 2.609375 -1.671875q1.21875 -1.0625 1.921875 -2.0q-0.3125 -0.78125 -0.625 -1.25q-0.390625 0.3125 -0.984375 0.703125q-0.578125 0.390625 -1.828125 1.171875q-0.46875 -0.546875 -1.015625 -1.015625q1.71875 -0.703125 3.046875 -1.875q-1.015625 -0.859375 -1.875 -1.25q0.546875 -0.46875 0.9375 -1.09375q1.40625 1.015625 2.03125 1.484375q1.09375 -0.859375 1.484375 -1.5625q0.390625 0.546875 1.25 1.09375zm-0.078125 -2.890625q0 0.78125 0.078125 1.5625l-1.640625 0q0.078125 -1.015625 0.078125 -1.5625l-2.109375 0q-1.171875 0 -2.578125 0.078125l0 -1.40625q1.484375 0.078125 2.65625 0.078125l2.03125 0q0 -0.9375 -0.078125 -1.875l1.640625 0q-0.078125 0.78125 -0.078125 1.875l3.984375 0q0 -1.09375 -0.078125 -1.953125l1.640625 0q-0.078125 0.859375 -0.078125 1.953125l1.953125 0q1.25 0 2.8125 -0.078125l0 1.40625q-1.40625 -0.078125 -2.734375 -0.078125l-2.03125 0q0 0.703125 0.078125 1.5625l-1.640625 0q0.078125 -0.78125 0.078125 -1.5625l-3.984375 0zm7.578125 2.1875q0.859375 0.78125 1.953125 2.265625q-0.625 0.390625 -1.171875 0.9375q-0.9375 -1.40625 -1.875 -2.34375q0.390625 -0.234375 1.09375 -0.859375z" fill-rule="nonzero"/><path fill="#000000" d="m313.2516 126.80896l-1.5625 0l0 -1.484375l10.078125 0l0 1.484375l-2.34375 0l0 15.15625l-1.5625 0l0 -3.984375q-3.28125 1.171875 -5.546875 1.71875q-0.390625 0.546875 -0.46875 0.234375l-0.46875 -1.953125q0.9375 -0.15625 1.875 -0.3125l0 -10.859375zm6.71875 13.59375q2.421875 -1.640625 3.75 -3.4375q-1.953125 -2.890625 -2.5 -7.734375l-0.9375 0l0 -1.484375l6.71875 0l0.3125 -0.390625l1.328125 1.25l-0.390625 0.234375q-0.546875 4.765625 -2.5 8.203125q1.25 1.640625 3.28125 2.890625l-0.9375 1.640625q-2.03125 -1.5625 -3.359375 -3.203125q-1.5625 1.796875 -3.671875 3.515625l-1.09375 -1.484375zm4.6875 -4.765625q1.25 -1.875 1.875 -6.40625l-3.828125 0q0.390625 3.671875 1.953125 6.40625zm-9.84375 -8.828125l0 2.65625l3.046875 0l0 -2.65625l-3.046875 0zm0 3.90625l0 2.578125l3.046875 0l0 -2.578125l-3.046875 0zm0 3.828125l0 2.8125q1.484375 -0.3125 3.046875 -0.859375l0 -1.953125l-3.046875 0zm27.03125 3.203125q2.578125 1.640625 7.03125 2.421875l-0.625 1.953125q-5.15625 -1.171875 -7.8125 -3.28125q-3.4375 2.1875 -8.359375 3.359375l-0.703125 -1.796875q4.609375 -0.859375 7.734375 -2.65625q-2.03125 -2.265625 -3.125 -5.0l-2.421875 0l0 -1.484375l5.703125 0l0 -2.8125l-7.5 0l0 -1.484375l7.5 0l0 -2.5l1.71875 0q0.78125 0.15625 0.078125 0.625l0 1.875l7.578125 0l0 1.484375l-7.578125 0l0 2.8125l3.59375 0l0.46875 -0.46875l1.328125 1.171875l-0.3125 0.15625q-1.953125 3.59375 -4.296875 5.625zm-3.984375 -5.0q1.015625 2.34375 2.65625 3.90625q1.875 -1.5625 3.125 -3.90625l-5.78125 0zm19.140625 -6.875q-0.46875 1.953125 -1.40625 3.90625q0.78125 0.15625 0.15625 0.625l0 11.5625l-1.5625 0l0 -9.6875q-0.859375 1.25 -1.71875 2.109375l-1.25 -1.40625q3.359375 -3.203125 4.375 -8.203125l1.640625 0.625q0.3125 0.3125 -0.234375 0.46875zm7.265625 3.4375l0 -4.453125l1.484375 0q0.625 0.078125 0.078125 0.46875l0 3.984375l3.203125 0l0 1.484375l-3.203125 0l0 9.6875q0 1.25 -1.25 1.25l-2.34375 0l-0.390625 -1.484375l2.109375 0q0.3125 0 0.3125 -0.3125l0 -9.140625l-7.03125 0l0 -1.484375l7.03125 0zm-4.53125 3.515625q1.328125 1.640625 2.421875 3.671875l-1.5625 1.015625q-1.09375 -2.265625 -2.34375 -3.75l1.484375 -0.9375zm11.25 0.3125q2.96875 -3.515625 3.515625 -8.671875l1.796875 0.46875q0.3125 0.3125 -0.234375 0.46875q-0.390625 2.265625 -1.015625 4.0625q0.859375 0.078125 0.15625 0.546875l0 12.1875l-1.5625 0l0 -9.84375q-0.546875 1.09375 -1.484375 2.1875l-1.171875 -1.40625zm15.15625 4.375l-6.953125 0l0 2.265625l6.953125 0l0 -2.265625zm-8.515625 -1.484375l10.078125 0l0 5.9375l-1.5625 0l0 -0.703125l-6.953125 0l0 0.9375l-1.5625 0l0 -6.171875zm0.46875 -1.328125l0 -1.484375l8.828125 0l0 1.484375l-8.828125 0zm0 -2.734375l0 -1.484375l8.828125 0l0 1.484375l-8.828125 0zm-1.796875 -4.140625l12.578125 0l0 1.484375l-12.578125 0l0 -1.484375zm1.796875 -2.8125l8.828125 0l0 1.484375l-8.828125 0l0 -1.484375zm13.359375 16.09375q1.171875 -2.1875 1.5625 -4.296875l1.640625 0.46875q0.625 0.078125 0 0.46875q-0.625 2.109375 -1.640625 4.0625l-1.5625 -0.703125zm16.5625 0.15625q-1.40625 -2.34375 -3.046875 -3.828125l1.328125 -1.015625q1.953125 1.640625 3.203125 3.75l-1.484375 1.09375zm-10.703125 -4.53125q0.625 0.078125 0.078125 0.46875l0 2.65625q0 0.625 0.546875 0.625l4.84375 0q0.546875 0 0.703125 -0.46875l0.3125 -1.171875l1.640625 0.3125l-0.390625 1.484375q-0.3125 1.328125 -2.1875 1.328125l-5.625 0q-1.40625 0 -1.40625 -1.328125l0 -3.90625l1.484375 0zm-1.5625 -1.328125l0 0.703125l-1.5625 0l0 -10.0l4.21875 0l0.46875 -1.875l1.796875 0.15625q0.46875 0.234375 -0.234375 0.390625l-0.46875 1.328125l6.171875 0l0 9.921875l-1.5625 0l0 -0.625l-8.828125 0zm4.21875 0.15625q1.40625 1.015625 2.578125 2.734375l-1.328125 1.015625q-1.328125 -1.875 -2.421875 -2.8125l1.171875 -0.9375zm-4.21875 -1.40625l8.828125 0l0 -1.484375l-8.828125 0l0 1.484375zm8.828125 -4.140625l-8.828125 0l0 1.40625l8.828125 0l0 -1.40625zm-8.828125 -1.25l8.828125 0l0 -1.40625l-8.828125 0l0 1.40625z" fill-rule="nonzero"/><path fill="#000000" d="m292.0172 164.48083l0 -2.0l2.0 0l0 2.0l-2.0 0zm5.5566406 0l0 -2.0l2.0 0l0 2.0l-2.0 0zm5.5566406 0l0 -2.0l2.0 0l0 2.0l-2.0 0z" fill-rule="nonzero"/></g></svg>