<svg version="1.1" viewBox="0.0 0.0 639.7847769028872 448.4540682414698" fill="none" stroke="none" stroke-linecap="square" stroke-miterlimit="10" xmlns:xlink="http://www.w3.org/1999/xlink" xmlns="http://www.w3.org/2000/svg"><clipPath id="p.0"><path d="m0 0l639.7848 0l0 448.45407l-639.7848 0l0 -448.45407z" clip-rule="nonzero"/></clipPath><g clip-path="url(#p.0)"><path fill="#000000" fill-opacity="0.0" d="m0 0l639.7848 0l0 448.45407l-639.7848 0z" fill-rule="evenodd"/><path fill="#000000" fill-opacity="0.0" d="m12.120735 212.67717l0 0c0 -63.43013 51.420273 -114.850395 114.850395 -114.850395l0 0c30.46022 0 59.672867 12.100273 81.21149 33.638893c21.538635 21.538635 33.6389 50.75128 33.6389 81.2115l0 0c0 63.43013 -51.420273 114.85039 -114.85039 114.85039l0 0c-63.430122 0 -114.850395 -51.420258 -114.850395 -114.85039z" fill-rule="evenodd"/><path stroke="#000000" stroke-width="1.0" stroke-linejoin="round" stroke-linecap="butt" d="m12.120735 212.67717l0 0c0 -63.43013 51.420273 -114.850395 114.850395 -114.850395l0 0c30.46022 0 59.672867 12.100273 81.21149 33.638893c21.538635 21.538635 33.6389 50.75128 33.6389 81.2115l0 0c0 63.43013 -51.420273 114.85039 -114.85039 114.85039l0 0c-63.430122 0 -114.850395 -51.420258 -114.850395 -114.85039z" fill-rule="evenodd"/><path fill="#000000" fill-opacity="0.0" d="m136.92651 212.67717l0 0c0 -63.43013 51.420273 -114.850395 114.85039 -114.850395l0 0c30.46022 0 59.672867 12.100273 81.2115 33.638893c21.538605 21.538635 33.638885 50.75128 33.638885 81.2115l0 0c0 63.43013 -51.420258 114.85039 -114.85039 114.85039l0 0c-63.430115 0 -114.85039 -51.420258 -114.85039 -114.85039z" fill-rule="evenodd"/><path stroke="#000000" stroke-width="1.0" stroke-linejoin="round" stroke-linecap="butt" d="m136.92651 212.67717l0 0c0 -63.43013 51.420273 -114.850395 114.85039 -114.850395l0 0c30.46022 0 59.672867 12.100273 81.2115 33.638893c21.538605 21.538635 33.638885 50.75128 33.638885 81.2115l0 0c0 63.43013 -51.420258 114.85039 -114.85039 114.85039l0 0c-63.430115 0 -114.85039 -51.420258 -114.85039 -114.85039z" fill-rule="evenodd"/><path fill="#000000" fill-opacity="0.0" d="m71.220474 181.68504l33.5748 0l0 85.98424l-33.5748 0z" fill-rule="evenodd"/><path fill="#000000" d="m81.782974 208.44879q2.453125 -1.625 3.859375 -3.859375l1.5625 0.828125q0.359375 0.296875 -0.296875 0.296875q-1.484375 2.140625 -3.859375 3.9375l-1.265625 -1.203125zm15.4375 -8.15625q-4.96875 -1.9375 -7.875 -5.265625q-1.484375 2.375 -4.15625 4.0l8.984375 0l0 1.40625l-3.78125 0l0 2.015625l6.90625 0l0 1.40625l-6.90625 0l0 5.125q0 1.1875 -1.1875 1.1875l-1.40625 0l-0.234375 -1.40625l1.046875 0q0.296875 0 0.296875 -0.3125l0 -4.59375l-6.828125 0l0 -1.40625l6.828125 0l0 -2.015625l-3.859375 0l0 -1.328125q-1.5625 1.109375 -3.125 1.625l-0.65625 -1.546875q5.1875 -1.78125 7.34375 -5.9375l1.78125 0.359375q0.296875 0.296875 -0.21875 0.375q3.03125 3.125 7.859375 4.671875l-0.8125 1.640625zm-3.71875 4.296875q1.71875 1.78125 4.09375 3.5625l-1.265625 1.203125q-2.375 -1.71875 -4.078125 -3.875l1.25 -0.890625z" fill-rule="nonzero"/><path fill="#000000" d="m85.82985 219.82379q-0.578125 0.4375 -1.09375 1.015625l4.078125 0q-0.21875 0.578125 -0.734375 1.390625q-0.5 0.796875 -1.15625 1.671875q0.578125 0.296875 1.203125 0.65625q0.625 0.359375 1.640625 1.015625q-0.4375 0.4375 -0.953125 1.171875q-0.71875 -0.59375 -1.375 -0.984375q-0.65625 -0.40625 -1.53125 -0.84375q-1.09375 0.875 -2.328125 1.671875l4.796875 0q-0.0625 1.25 -0.0625 2.5625q0 1.3125 0.0625 2.765625l-1.375 0l0 -1.171875l-2.921875 0l0 1.53125l-1.3125 0q0.078125 -1.453125 0.078125 -2.46875l0 -2.625q-0.65625 0.28125 -1.015625 0.5q-0.4375 -0.65625 -0.953125 -1.15625q1.171875 -0.4375 2.1875 -1.046875q1.015625 -0.625 1.671875 -1.28125q-0.71875 -0.4375 -1.375 -0.8125q0.28125 -0.4375 0.796875 -0.9375q0.796875 0.4375 1.671875 0.875q0.65625 -0.734375 1.09375 -1.46875l-2.90625 0q-0.296875 0.375 -0.8125 0.921875q-0.5 0.546875 -1.09375 1.203125q-0.5 -0.4375 -1.15625 -0.875q1.15625 -0.875 2.0 -1.9375q0.84375 -1.0625 1.28125 -2.0q0.796875 0.359375 1.59375 0.65625zm6.484375 -2.046875q-1.09375 0 -2.25 0.078125l0 -1.3125q1.09375 0.0625 2.40625 0.0625l3.203125 0q0.875 0 2.03125 -0.0625l0 1.3125q-1.09375 -0.078125 -2.03125 -0.078125l-1.03125 0q-0.28125 1.234375 -0.640625 2.546875l2.984375 0q-0.078125 1.171875 -0.078125 2.1875l0 3.359375q0 0.9375 0.078125 2.328125l-1.3125 0l0 -6.84375l-4.015625 0l0 6.921875l-1.375 0q0.0625 -1.390625 0.0625 -2.484375l0 -3.34375q0 -1.09375 -0.0625 -2.125l2.46875 0q0.296875 -1.453125 0.4375 -2.546875l-0.875 0zm-6.125 -2.03125q0.15625 0.796875 0.4375 1.8125l3.0 0q-0.078125 0.578125 -0.078125 1.171875q0 0.578125 0.078125 1.15625l-1.3125 0l0 -1.234375l-5.546875 0l0 1.75l-1.375 0q0.0625 -0.796875 0.0625 -1.453125q0 -0.734375 -0.0625 -1.390625l3.640625 0q-0.296875 -0.796875 -0.515625 -1.53125q0.953125 -0.140625 1.671875 -0.28125zm8.390625 6.921875q-0.21875 0.875 -0.265625 2.046875q-0.03125 1.15625 -0.359375 2.46875q-0.328125 1.3125 -1.3125 2.703125q-0.984375 1.375 -2.953125 2.6875q-0.578125 -0.734375 -1.15625 -1.234375q1.53125 -0.65625 2.4375 -1.5q0.90625 -0.84375 1.375 -1.96875q0.484375 -1.125 0.546875 -2.359375q0.078125 -1.25 0.078125 -3.0q0.59375 0.078125 1.609375 0.15625zm-7.578125 6.984375l0 -2.03125l-2.921875 0l0 2.03125l2.921875 0zm8.015625 -1.375q0.65625 0.65625 1.203125 1.171875q0.546875 0.5 1.5625 1.453125q-0.65625 0.5 -1.234375 1.15625q-0.4375 -0.65625 -0.953125 -1.203125q-0.515625 -0.546875 -1.75 -1.421875q0.578125 -0.5 1.171875 -1.15625z" fill-rule="nonzero"/><path fill="#000000" fill-opacity="0.0" d="m275.28348 169.68504l33.5748 0l0 85.98425l-33.5748 0z" fill-rule="evenodd"/><path fill="#000000" d="m299.43973 182.60504q1.09375 0 2.1875 -0.0625l0 1.234375q-1.09375 -0.078125 -2.1875 -0.078125l-2.03125 0q-0.21875 1.09375 -0.4375 2.40625l4.0 0q-0.078125 1.09375 -0.078125 2.34375l0 3.125q0 1.234375 0.078125 2.546875l-1.390625 0l0 -6.921875l-4.953125 0l0 7.078125l-1.375 0q0.0625 -1.6875 0.0625 -2.703125l0 -3.0625q0 -1.15625 -0.0625 -2.40625l2.40625 0q0.28125 -1.59375 0.28125 -2.40625l-0.796875 0q-1.234375 0 -2.546875 0.078125l0 -1.234375q1.375 0.0625 2.546875 0.0625l4.296875 0zm-7.578125 8.828125q-0.734375 -0.140625 -1.3125 -0.140625q0.296875 -1.25 0.4375 -1.828125l-1.609375 0l0 6.78125q-0.0625 1.234375 -0.9375 1.515625q-0.875 0.296875 -1.96875 0.296875q-0.140625 -0.796875 -0.515625 -1.53125q1.609375 0.15625 1.859375 -0.03125q0.265625 -0.1875 0.265625 -0.90625l0 -6.125l-0.8125 0q-0.9375 0 -1.96875 0.078125l0 -1.25q1.03125 0.078125 1.90625 0.078125l5.390625 0q-0.375 1.453125 -0.734375 3.0625zm6.203125 -3.203125q-0.296875 0.875 -0.375 2.265625q-0.0625 1.375 -0.390625 3.09375q-0.328125 1.703125 -1.46875 2.84375q-1.125 1.125 -3.015625 2.140625q-0.65625 -0.515625 -1.3125 -0.953125q1.75 -0.65625 2.796875 -1.59375q1.0625 -0.953125 1.5 -2.15625q0.4375 -1.203125 0.546875 -2.65625q0.109375 -1.453125 0.109375 -3.140625l1.609375 0.15625zm-9.046875 -0.078125q-1.015625 -1.09375 -2.40625 -2.1875q0.375 -0.359375 0.8125 -0.875q0.5 0.359375 1.015625 0.796875q0.9375 -1.375 1.53125 -2.03125l-1.609375 0q-1.453125 0 -2.765625 0.0625l0 -1.234375q1.3125 0.078125 2.703125 0.078125l3.484375 0l0 1.09375q-1.09375 0.796875 -2.46875 2.84375l0.65625 0.578125q-0.59375 0.515625 -0.953125 0.875zm9.1875 6.34375q2.765625 2.109375 3.78125 3.0625q-0.65625 0.5 -1.015625 0.9375q-0.953125 -0.9375 -1.71875 -1.640625q-0.765625 -0.6875 -1.78125 -1.265625q0.375 -0.515625 0.734375 -1.09375z" fill-rule="nonzero"/><path fill="#000000" d="m290.7366 204.73004q-0.4375 1.84375 -1.328125 3.703125q0.734375 0.15625 0.140625 0.59375l0 10.984375l-1.484375 0l0 -9.203125q-0.8125 1.1875 -1.625 2.0l-1.1875 -1.328125q3.1875 -3.046875 4.15625 -7.796875l1.5625 0.59375q0.296875 0.296875 -0.234375 0.453125zm6.90625 3.265625l0 -4.234375l1.40625 0q0.59375 0.078125 0.078125 0.4375l0 3.796875l3.046875 0l0 1.40625l-3.046875 0l0 9.203125q0 1.1875 -1.1875 1.1875l-2.21875 0l-0.375 -1.40625l2.0 0q0.296875 0 0.296875 -0.296875l0 -8.6875l-6.671875 0l0 -1.40625l6.671875 0zm-4.296875 3.328125q1.25 1.5625 2.296875 3.5l-1.484375 0.953125q-1.046875 -2.140625 -2.234375 -3.5625l1.421875 -0.890625z" fill-rule="nonzero"/><path fill="#000000" d="m293.40848 232.21442q1.78125 -2.453125 2.375 -6.96875l1.5625 0.21875q0.21875 0.21875 -0.140625 0.4375l-0.59375 2.671875l4.375 0l0.140625 -0.296875l1.125 0.53125q0.515625 0.21875 -0.078125 0.515625q-0.75 2.375 -2.0 4.15625l-1.265625 -0.75q1.109375 -1.703125 1.40625 -2.734375l-2.0 0l0 2.671875q0 4.296875 4.296875 7.484375l-1.03125 1.5q-3.125 -2.53125 -3.78125 -5.71875q-0.75 4.0 -4.234375 6.234375l-1.046875 -1.1875q4.3125 -2.75 4.3125 -8.25l0 -2.734375l-0.59375 0q-0.59375 1.78125 -1.5625 3.03125l-1.265625 -0.8125zm-3.109375 -6.96875q0.59375 0.0625 0.078125 0.4375l0 1.703125l3.328125 0l0 1.1875l-3.328125 0l0 1.640625l2.734375 0l0 1.1875l-6.96875 0l0 -1.1875l2.75 0l0 -1.640625l-3.265625 0l0 -1.1875l3.265625 0l0 -2.140625l1.40625 0zm0.140625 15.734375q0 1.1875 -1.1875 1.1875l-1.109375 0l-0.140625 -1.40625l0.65625 0q0.296875 0 0.296875 -0.3125l0 -4.15625l-3.78125 0l0 -1.1875l8.90625 0l0 1.1875l-3.640625 0l0 4.6875zm2.671875 -7.203125l-6.96875 0l0 -1.1875l6.96875 0l0 1.1875zm-5.109375 3.703125q0.65625 0.234375 -0.078125 0.59375q-0.296875 1.265625 -1.5625 2.984375l-1.265625 -0.96875q1.1875 -1.484375 1.5625 -3.046875l1.34375 0.4375zm4.296875 -0.59375q1.046875 1.046875 1.5625 2.15625l-1.34375 0.890625q-0.65625 -1.265625 -1.40625 -2.296875l1.1875 -0.75z" fill-rule="nonzero"/><path fill="#000000" fill-opacity="0.0" d="m173.25197 160.28084l33.5748 0l0 85.98425l-33.5748 0z" fill-rule="evenodd"/><path fill="#000000" d="m197.04884 174.66959q1.59375 0 2.625 -0.078125l0 1.390625q-1.25 -0.078125 -2.703125 -0.078125l-4.59375 0q-1.3125 2.703125 -2.1875 4.078125l3.140625 0q0 -1.59375 -0.078125 -2.546875l1.609375 0q-0.078125 0.734375 -0.078125 2.546875l1.171875 0q1.671875 0 2.84375 -0.0625l0 1.375q-1.171875 -0.0625 -2.84375 -0.0625l-1.171875 0l0 5.609375q0 1.3125 -0.796875 1.640625q-0.796875 0.328125 -2.1875 0.609375q-0.140625 -0.875 -0.578125 -1.75q1.59375 0 1.84375 -0.171875q0.265625 -0.1875 0.265625 -0.984375l0 -4.953125q-3.28125 -0.078125 -4.59375 0.359375q-0.21875 -0.875 -0.515625 -1.53125q0.59375 -0.296875 1.203125 -1.28125q0.625 -0.984375 1.421875 -2.875q-2.109375 0 -3.203125 0.078125l0 -1.390625q1.171875 0.078125 3.71875 0.078125q0.734375 -2.046875 0.796875 -2.765625q0.8125 0.359375 1.6875 0.65625q-0.296875 0.28125 -1.03125 2.109375l4.234375 0zm-9.703125 6.484375q-0.640625 1.09375 -1.515625 2.921875q-0.875 1.8125 -1.46875 2.90625q-0.65625 -0.734375 -1.375 -1.09375q0.9375 -1.3125 1.703125 -2.84375q0.765625 -1.53125 1.359375 -2.90625q0.5 0.65625 1.296875 1.015625zm4.375 2.546875q-0.4375 0.4375 -1.453125 1.640625q-1.015625 1.203125 -2.1875 2.515625q-0.4375 -0.65625 -1.15625 -1.09375q0.859375 -0.734375 1.875 -1.9375q1.03125 -1.203125 1.609375 -2.21875q0.65625 0.578125 1.3125 1.09375zm5.328125 -1.09375q0.71875 0.796875 1.453125 1.75q0.734375 0.953125 1.53125 2.046875q-0.734375 0.359375 -1.3125 0.9375q-0.65625 -1.234375 -2.765625 -3.78125q0.578125 -0.375 1.09375 -0.953125zm-12.390625 -9.03125q1.890625 2.328125 2.625 3.28125q-0.578125 0.28125 -1.390625 0.9375q-0.578125 -1.09375 -2.46875 -3.28125q0.71875 -0.4375 1.234375 -0.9375z" fill-rule="nonzero"/><path fill="#000000" d="m198.93947 203.59146q-0.078125 0.9375 -0.078125 2.109375l0 2.484375q0 1.375 0.078125 2.40625l-1.453125 0l0 -1.390625l-4.953125 0l0 1.53125l-1.46875 0q0.078125 -1.890625 0.078125 -2.484375l0 -2.6875q0 -0.875 -0.078125 -1.96875l7.875 0zm-11.15625 -8.53125q-0.578125 0.734375 -1.234375 1.90625q-0.65625 1.15625 -1.59375 2.90625q1.59375 -0.078125 2.328125 -0.078125q0.65625 -1.15625 1.09375 -2.25q0.71875 0.5 1.59375 0.9375q-0.359375 0.296875 -1.28125 1.609375q-0.90625 1.3125 -2.859375 4.296875q2.390625 -0.359375 3.78125 -0.578125q-0.21875 0.796875 -0.21875 1.375q-0.65625 0.078125 -2.328125 0.296875q-1.671875 0.21875 -3.28125 0.65625q-0.296875 -0.734375 -0.515625 -1.453125q0.875 -0.21875 1.75 -1.34375q0.875 -1.140625 1.53125 -2.375q-0.5 0 -1.484375 0.109375q-0.984375 0.109375 -1.71875 0.328125q-0.21875 -0.734375 -0.4375 -1.390625q0.796875 -0.65625 1.703125 -2.25q0.921875 -1.609375 1.4375 -3.5q0.875 0.4375 1.734375 0.796875zm6.34375 1.96875q0 -1.234375 -0.0625 -2.90625l1.53125 0q-0.078125 1.296875 -0.078125 2.90625l2.109375 0q1.390625 0 2.546875 -0.078125l0 1.3125q-1.15625 -0.0625 -2.46875 -0.0625l-2.1875 0l0 2.40625l1.671875 0q1.015625 0 2.046875 -0.078125l0 1.3125q-0.875 -0.078125 -2.125 -0.078125l-4.21875 0q-1.234375 0 -2.1875 0.078125l0 -1.3125q0.953125 0.078125 2.046875 0.078125l1.375 0l0 -2.40625l-1.59375 0q-1.3125 0 -2.484375 0.0625l0 -1.3125q0.953125 0.078125 2.328125 0.078125l1.75 0zm3.359375 11.0l0 -3.28125l-4.953125 0l0 3.28125l4.953125 0zm-7.734375 -0.71875q-0.21875 0.65625 -0.140625 1.375q-1.390625 0.21875 -3.140625 0.515625q-1.734375 0.296875 -2.984375 0.65625q-0.28125 -0.953125 -0.578125 -1.671875q1.53125 -0.078125 2.765625 -0.25q1.25 -0.1875 4.078125 -0.625z" fill-rule="nonzero"/><path fill="#000000" d="m195.17384 221.10709q-1.71875 -1.046875 -3.5 -3.71875q-1.546875 2.53125 -3.1875 3.71875l6.6875 0zm-4.234375 9.578125l0 -4.828125l-6.234375 0l0 -1.40625l6.234375 0l0 -1.9375l-2.890625 0l0 -1.03125q-1.78125 1.40625 -4.234375 2.21875l-0.75 -1.625q5.71875 -1.859375 7.796875 -6.3125l1.859375 0.21875q0.375 0.078125 -0.078125 0.453125q2.53125 3.5625 7.578125 5.109375l-0.828125 1.71875q-2.140625 -0.75 -4.0 -2.015625l0 1.265625l-2.96875 0l0 1.9375l6.3125 0l0 1.40625l-6.3125 0l0 4.828125l6.90625 0l0 1.40625l-15.078125 0l0 -1.40625l6.6875 0zm-2.96875 -0.375q-0.75 -1.703125 -1.484375 -2.890625l1.484375 -0.75q0.8125 1.1875 1.484375 2.828125l-1.484375 0.8125zm6.015625 -0.671875q0.65625 -1.328125 1.25 -3.265625l1.421875 0.453125q0.953125 0.21875 0.140625 0.515625q-0.515625 1.40625 -1.265625 2.8125l-1.546875 -0.515625z" fill-rule="nonzero"/><path fill="#000000" d="m187.86134 242.41959q-0.578125 0.4375 -1.09375 1.015625l4.078125 0q-0.21875 0.578125 -0.734375 1.390625q-0.5 0.796875 -1.15625 1.671875q0.578125 0.296875 1.203125 0.65625q0.625 0.359375 1.640625 1.015625q-0.4375 0.4375 -0.953125 1.171875q-0.71875 -0.59375 -1.375 -0.984375q-0.65625 -0.40625 -1.53125 -0.84375q-1.09375 0.875 -2.328125 1.671875l4.796875 0q-0.0625 1.25 -0.0625 2.5625q0 1.3125 0.0625 2.765625l-1.375 0l0 -1.171875l-2.921875 0l0 1.53125l-1.3125 0q0.078125 -1.453125 0.078125 -2.46875l0 -2.625q-0.65625 0.28125 -1.015625 0.5q-0.4375 -0.65625 -0.953125 -1.15625q1.171875 -0.4375 2.1875 -1.046875q1.015625 -0.625 1.671875 -1.28125q-0.71875 -0.4375 -1.375 -0.8125q0.28125 -0.4375 0.796875 -0.9375q0.796875 0.4375 1.671875 0.875q0.65625 -0.734375 1.09375 -1.46875l-2.90625 0q-0.296875 0.375 -0.8125 0.921875q-0.5 0.546875 -1.09375 1.203125q-0.5 -0.4375 -1.15625 -0.875q1.15625 -0.875 2.0 -1.9375q0.84375 -1.0625 1.28125 -2.0q0.796875 0.359375 1.59375 0.65625zm6.484375 -2.046875q-1.09375 0 -2.25 0.078125l0 -1.3125q1.09375 0.0625 2.40625 0.0625l3.203125 0q0.875 0 2.03125 -0.0625l0 1.3125q-1.09375 -0.078125 -2.03125 -0.078125l-1.03125 0q-0.28125 1.234375 -0.640625 2.546875l2.984375 0q-0.078125 1.171875 -0.078125 2.1875l0 3.359375q0 0.9375 0.078125 2.328125l-1.3125 0l0 -6.84375l-4.015625 0l0 6.921875l-1.375 0q0.0625 -1.390625 0.0625 -2.484375l0 -3.34375q0 -1.09375 -0.0625 -2.125l2.46875 0q0.296875 -1.453125 0.4375 -2.546875l-0.875 0zm-6.125 -2.03125q0.15625 0.796875 0.4375 1.8125l3.0 0q-0.078125 0.578125 -0.078125 1.171875q0 0.578125 0.078125 1.15625l-1.3125 0l0 -1.234375l-5.546875 0l0 1.75l-1.375 0q0.0625 -0.796875 0.0625 -1.453125q0 -0.734375 -0.0625 -1.390625l3.640625 0q-0.296875 -0.796875 -0.515625 -1.53125q0.953125 -0.140625 1.671875 -0.28125zm8.390625 6.921875q-0.21875 0.875 -0.265625 2.046875q-0.03125 1.15625 -0.359375 2.46875q-0.328125 1.3125 -1.3125 2.703125q-0.984375 1.375 -2.953125 2.6875q-0.578125 -0.734375 -1.15625 -1.234375q1.53125 -0.65625 2.4375 -1.5q0.90625 -0.84375 1.375 -1.96875q0.484375 -1.125 0.546875 -2.359375q0.078125 -1.25 0.078125 -3.0q0.59375 0.078125 1.609375 0.15625zm-7.578125 6.984375l0 -2.03125l-2.921875 0l0 2.03125l2.921875 0zm8.015625 -1.375q0.65625 0.65625 1.203125 1.171875q0.546875 0.5 1.5625 1.453125q-0.65625 0.5 -1.234375 1.15625q-0.4375 -0.65625 -0.953125 -1.203125q-0.515625 -0.546875 -1.75 -1.421875q0.578125 -0.5 1.171875 -1.15625z" fill-rule="nonzero"/><path fill="#000000" fill-opacity="0.0" d="m49.165356 11.076116l140.88188 0l0 24.566929l-140.88188 0z" fill-rule="evenodd"/><path fill="#000000" d="m64.18098 33.324238q-1.4843712 2.890625 -3.0468712 5.34375q0.15625 0.734375 -0.21875 0.375l-1.5625 -1.34375q1.34375 -1.5625 3.484375 -5.421875l1.3437462 1.046875zm7.859375 -6.984375q0.75 -1.109375 1.71875 -3.109375l1.484375 0.65625q0.515625 0.375 -0.078125 0.375q-1.1875 2.15625 -1.703125 2.828125l-1.421875 -0.75zm-9.937496 4.53125q-1.109375 -1.34375 -2.296875 -2.15625l0.890625 -1.109375q1.328125 0.734375 2.515625 2.078125l-1.109375 1.1875zm11.281246 4.453125l-6.3125 0l0 4.15625l-1.484375 0l0 -11.875l3.859375 0l0 -4.90625l1.40625 0q0.59375 0.078125 0.078125 0.453125l0 4.453125l3.9375 0l0 10.6875q0 1.046875 -1.046875 1.046875l-1.546875 0l-0.234375 -1.421875l1.046875 0q0.296875 0 0.296875 -0.296875l0 -2.296875zm-6.3125 -8.171875q-0.671875 -1.546875 -1.484375 -2.8125l1.40625 -0.8125q1.046875 1.328125 1.640625 2.890625l-1.5625 0.734375zm0 1.859375l0 1.703125l6.3125 0l0 -1.703125l-6.3125 0zm0 4.90625l6.3125 0l0 -1.78125l-6.3125 0l0 1.78125zm-3.9374962 -7.28125q-1.109375 -1.1875 -2.4375 -2.0l0.8125 -1.109375q1.5625 0.8125 2.5937462 2.0l-0.9687462 1.109375z" fill-rule="nonzero"/><path fill="#000000" d="m83.72785 22.761738q0.796875 0.15625 1.671875 0.21875q-0.140625 0.375 -0.21875 1.390625l2.546875 0q0 -0.734375 -0.0625 -1.53125l1.375 0q-0.0625 0.796875 -0.0625 1.53125l4.734375 0q-0.078125 0.875 -0.078125 1.8125q0 0.953125 0.078125 1.75l-4.734375 0l0 1.3125l5.75 0q-0.078125 1.25 -0.109375 2.046875q-0.03125 0.796875 -0.4375 1.09375q-0.40625 0.296875 -1.78125 0.578125q-0.15625 -0.71875 -0.65625 -1.453125q0.9375 0 1.234375 -0.109375q0.296875 -0.109375 0.296875 -1.0625l-4.296875 0l0 1.6875l3.046875 0l0 2.546875q0 0.796875 0.078125 1.890625l-1.53125 0l0 -3.34375l-7.875 0l0 3.859375l-1.453125 0q0.078125 -1.25 0.078125 -2.1875l0 -1.828125q-0.734375 0.4375 -2.40625 1.09375q-0.359375 -0.734375 -0.875 -1.453125q0.953125 -0.078125 2.515625 -0.6875q1.5625 -0.625 2.4375 -1.578125l-3.28125 0q0.296875 -2.109375 0.296875 -3.5l3.859375 0l0 -1.375q-3.203125 0 -4.21875 0.0625l0 -1.234375q1.09375 0.078125 4.21875 0.078125q0 -0.65625 -0.140625 -1.609375zm4.078125 11.4375q-0.359375 0.8125 -0.84375 1.90625q-0.46875 1.09375 -1.28125 1.75q-0.796875 0.65625 -2.25 1.203125q-1.453125 0.546875 -3.78125 0.765625q-0.21875 -0.734375 -0.734375 -1.53125q1.53125 0 2.90625 -0.265625q1.390625 -0.25 2.59375 -1.125q1.203125 -0.875 1.640625 -3.140625q0.734375 0.296875 1.75 0.4375zm0.734375 1.75q1.453125 0.59375 2.796875 1.171875q1.34375 0.578125 2.59375 1.171875q-0.65625 0.796875 -1.03125 1.375q-1.375 -0.71875 -2.328125 -1.203125q-0.9375 -0.46875 -2.84375 -1.203125q0.296875 -0.4375 0.8125 -1.3125zm-0.875 -3.921875l0 -1.6875l-2.84375 0q-0.875 1.25 -1.6875 1.6875l4.53125 0zm4.515625 -5.1875l0 -1.375l-3.203125 0l0 1.375l3.203125 0zm-4.515625 0l0 -1.375l-2.484375 0l0 1.375l2.484375 0zm0 2.40625l0 -1.3125l-2.484375 0q-0.078125 0.8125 -0.140625 1.3125l2.625 0zm-4.09375 0q0.21875 -0.796875 0.21875 -1.3125l-2.390625 0l-0.078125 1.3125l2.25 0zm27.40625 -5.25q1.09375 0 2.1875 -0.0625l0 1.234375q-1.09375 -0.078125 -2.1875 -0.078125l-2.03125 0q-0.21875 1.09375 -0.4375 2.40625l4.0 0q-0.078125 1.09375 -0.078125 2.34375l0 3.125q0 1.234375 0.078125 2.546875l-1.390625 0l0 -6.921875l-4.953125 0l0 7.078125l-1.375 0q0.0625 -1.6875 0.0625 -2.703125l0 -3.0625q0 -1.15625 -0.0625 -2.40625l2.40625 0q0.28125 -1.59375 0.28125 -2.40625l-0.796875 0q-1.234375 0 -2.546875 0.078125l0 -1.234375q1.375 0.0625 2.546875 0.0625l4.296875 0zm-7.578125 8.828125q-0.734375 -0.140625 -1.3125 -0.140625q0.296875 -1.25 0.4375 -1.828125l-1.609375 0l0 6.78125q-0.0625 1.234375 -0.9375 1.515625q-0.875 0.296875 -1.96875 0.296875q-0.140625 -0.796875 -0.515625 -1.53125q1.609375 0.15625 1.859375 -0.03125q0.265625 -0.1875 0.265625 -0.90625l0 -6.125l-0.8125 0q-0.9375 0 -1.96875 0.078125l0 -1.25q1.03125 0.078125 1.90625 0.078125l5.390625 0q-0.375 1.453125 -0.734375 3.0625zm6.203125 -3.203125q-0.296875 0.875 -0.375 2.265625q-0.0625 1.375 -0.390625 3.09375q-0.328125 1.703125 -1.46875 2.84375q-1.125 1.125 -3.015625 2.140625q-0.65625 -0.515625 -1.3125 -0.953125q1.75 -0.65625 2.796875 -1.59375q1.0625 -0.953125 1.5 -2.15625q0.4375 -1.203125 0.546875 -2.65625q0.109375 -1.453125 0.109375 -3.140625l1.609375 0.15625zm-9.046875 -0.078125q-1.015625 -1.09375 -2.40625 -2.1875q0.375 -0.359375 0.8125 -0.875q0.5 0.359375 1.015625 0.796875q0.9375 -1.375 1.53125 -2.03125l-1.609375 0q-1.453125 0 -2.765625 0.0625l0 -1.234375q1.3125 0.078125 2.703125 0.078125l3.484375 0l0 1.09375q-1.09375 0.796875 -2.46875 2.84375l0.65625 0.578125q-0.59375 0.515625 -0.953125 0.875zm9.1875 6.34375q2.765625 2.109375 3.78125 3.0625q-0.65625 0.5 -1.015625 0.9375q-0.953125 -0.9375 -1.71875 -1.640625q-0.765625 -0.6875 -1.78125 -1.265625q0.375 -0.515625 0.734375 -1.09375z" fill-rule="nonzero"/><path fill="#000000" d="m120.93098 24.121113q-0.4375 1.84375 -1.328125 3.703125q0.734375 0.15625 0.140625 0.59375l0 10.984375l-1.484375 0l0 -9.203125q-0.8125 1.1875 -1.625 2.0l-1.1875 -1.328125q3.1875 -3.046875 4.15625 -7.796875l1.5625 0.59375q0.296875 0.296875 -0.234375 0.453125zm6.90625 3.265625l0 -4.234375l1.4062576 0q0.59375 0.078125 0.078125 0.4375l0 3.796875l3.046875 0l0 1.40625l-3.046875 0l0 9.203125q0 1.1875 -1.1875 1.1875l-2.2187576 0l-0.375 -1.40625l2.0 0q0.296875 0 0.296875 -0.296875l0 -8.6875l-6.671875 0l0 -1.40625l6.671875 0zm-4.296875 3.328125q1.25 1.5625 2.296875 3.5l-1.484375 0.953125q-1.046875 -2.140625 -2.234375 -3.5625l1.421875 -0.890625zm19.062508 -1.109375q1.78125 -2.453125 2.375 -6.96875l1.5625 0.21875q0.21875 0.21875 -0.140625 0.4375l-0.59375 2.671875l4.375 0l0.140625 -0.296875l1.125 0.53125q0.515625 0.21875 -0.078125 0.515625q-0.75 2.375 -2.0 4.15625l-1.265625 -0.75q1.109375 -1.703125 1.40625 -2.734375l-2.0 0l0 2.671875q0 4.296875 4.296875 7.484375l-1.03125 1.5q-3.125 -2.53125 -3.78125 -5.71875q-0.75 4.0 -4.234375 6.234375l-1.046875 -1.1875q4.3125 -2.75 4.3125 -8.25l0 -2.734375l-0.59375 0q-0.59375 1.78125 -1.5625 3.03125l-1.265625 -0.8125zm-3.109375 -6.96875q0.59375 0.0625 0.078125 0.4375l0 1.703125l3.328125 0l0 1.1875l-3.328125 0l0 1.640625l2.734375 0l0 1.1875l-6.96875 0l0 -1.1875l2.75 0l0 -1.640625l-3.265625 0l0 -1.1875l3.265625 0l0 -2.140625l1.40625 0zm0.140625 15.734375q0 1.1875 -1.1875 1.1875l-1.109375 0l-0.140625 -1.40625l0.65625 0q0.296875 0 0.296875 -0.3125l0 -4.15625l-3.78125 0l0 -1.1875l8.90625 0l0 1.1875l-3.640625 0l0 4.6875zm2.671875 -7.203125l-6.96875 0l0 -1.1875l6.96875 0l0 1.1875zm-5.109375 3.703125q0.65625 0.234375 -0.078125 0.59375q-0.296875 1.265625 -1.5625 2.984375l-1.265625 -0.96875q1.1875 -1.484375 1.5625 -3.046875l1.34375 0.4375zm4.296875 -0.59375q1.046875 1.046875 1.5625 2.15625l-1.34375 0.890625q-0.65625 -1.265625 -1.40625 -2.296875l1.1875 -0.75z" fill-rule="nonzero"/><path fill="#000000" fill-opacity="0.0" d="m190.03937 160.28084l-98.20472 -0.5984192" fill-rule="evenodd"/><path stroke="#000000" stroke-width="1.0" stroke-linejoin="round" stroke-linecap="butt" d="m190.03937 160.28084l-92.204834 -0.56185913" fill-rule="evenodd"/><path fill="#000000" stroke="#000000" stroke-width="1.0" stroke-linecap="butt" d="m97.8446 158.06728l-4.548073 1.624054l4.5279465 1.6793518z" fill-rule="evenodd"/><path fill="#000000" fill-opacity="0.0" d="m268.88077 139.99481l-173.10237 -1.9842529" fill-rule="evenodd"/><path stroke="#000000" stroke-width="1.0" stroke-linejoin="round" stroke-linecap="butt" d="m268.88077 139.99481l-167.10275 -1.9154816" fill-rule="evenodd"/><path fill="#000000" stroke="#000000" stroke-width="1.0" stroke-linecap="butt" d="m101.796936 136.4277l-4.556732 1.5996094l4.5188675 1.7036438z" fill-rule="evenodd"/><path fill="#000000" fill-opacity="0.0" d="m135.76378 158.39896l-32.314957 -112.44095" fill-rule="evenodd"/><path stroke="#000000" stroke-width="1.0" stroke-linejoin="round" stroke-linecap="butt" stroke-dasharray="8.0,3.0,1.0,3.0" d="m135.76378 158.39896l-32.314957 -112.44095" fill-rule="evenodd"/><path fill="#000000" fill-opacity="0.0" d="m197.7979 140.30446l-93.03937 -95.62204" fill-rule="evenodd"/><path stroke="#000000" stroke-width="1.0" stroke-linejoin="round" stroke-linecap="butt" stroke-dasharray="8.0,3.0,1.0,3.0" d="m197.7979 140.30446l-93.03937 -95.62204" fill-rule="evenodd"/><path fill="#000000" fill-opacity="0.0" d="m88.00787 267.66928l95.55905 -0.1574707" fill-rule="evenodd"/><path stroke="#000000" stroke-width="1.0" stroke-linejoin="round" stroke-linecap="butt" d="m88.00787 267.66928l89.55905 -0.14758301" fill-rule="evenodd"/><path fill="#000000" stroke="#000000" stroke-width="1.0" stroke-linecap="butt" d="m177.56966 269.17343l4.53537 -1.6592102l-4.5408173 -1.6442566z" fill-rule="evenodd"/><path fill="#000000" fill-opacity="0.0" d="m475.65616 268.81366l-186.11023 0" fill-rule="evenodd"/><path stroke="#000000" stroke-width="1.0" stroke-linejoin="round" stroke-linecap="butt" d="m475.65616 268.81366l-180.11023 0" fill-rule="evenodd"/><path fill="#000000" stroke="#000000" stroke-width="1.0" stroke-linecap="butt" d="m295.54593 267.16193l-4.538086 1.6517334l4.538086 1.6517334z" fill-rule="evenodd"/><path fill="#000000" fill-opacity="0.0" d="m431.71652 240.97638l0 0c0 -47.800903 38.750305 -86.55118 86.55118 -86.55118l0 0c22.954834 0 44.96942 9.118759 61.200928 25.35025c16.231506 16.231491 25.35028 38.246124 25.35028 61.200928l0 0c0 47.800903 -38.750305 86.55118 -86.55121 86.55118l0 0c-47.800873 0 -86.55118 -38.750275 -86.55118 -86.55118z" fill-rule="evenodd"/><path stroke="#000000" stroke-width="1.0" stroke-linejoin="round" stroke-linecap="butt" d="m431.71652 240.97638l0 0c0 -47.800903 38.750305 -86.55118 86.55118 -86.55118l0 0c22.954834 0 44.96942 9.118759 61.200928 25.35025c16.231506 16.231491 25.35028 38.246124 25.35028 61.200928l0 0c0 47.800903 -38.750305 86.55118 -86.55121 86.55118l0 0c-47.800873 0 -86.55118 -38.750275 -86.55118 -86.55118z" fill-rule="evenodd"/><path fill="#000000" fill-opacity="0.0" d="m501.48032 181.68504l33.5748 0l0 85.98424l-33.5748 0z" fill-rule="evenodd"/><path fill="#000000" d="m512.26154 208.60504q3.9375 -0.890625 6.453125 -3.34375l-3.78125 0l-0.140625 0.515625l-1.484375 -0.296875q0.59375 -2.078125 0.515625 -4.078125l5.71875 0l0 -1.328125l-6.09375 0l0 -1.1875l12.625 0l0 3.703125l-5.046875 0l0 1.484375l6.59375 0l-0.515625 3.484375q-0.21875 1.5625 -1.5625 1.5625l-1.84375 0l-0.15625 -1.40625l1.484375 0q0.515625 0 0.59375 -0.515625l0.296875 -1.9375l-4.890625 0l0 5.046875l-1.484375 0l0 -4.0q-2.609375 2.8125 -6.609375 3.78125l-0.671875 -1.484375zm6.90625 -10.984375q1.5625 -1.859375 2.15625 -4.453125l1.484375 0.4375q0.296875 0.296875 -0.234375 0.375l-0.296875 0.96875l5.796875 0l0 1.40625l-3.34375 0l0.8125 1.40625l-1.703125 0.453125l-0.671875 -1.859375l-1.40625 0q-0.515625 1.109375 -1.40625 2.078125l-1.1875 -0.8125zm-4.078125 -2.671875l4.515625 0l0 1.40625l-2.296875 0l0.75 1.484375l-1.5625 0.375l-0.59375 -1.859375l-1.484375 0q-0.890625 1.484375 -1.9375 2.375l-1.0312195 -1.109375q1.8593445 -1.703125 2.8124695 -4.375l1.421875 0.515625q0.296875 0.296875 -0.234375 0.375l-0.359375 0.8125zm5.9375 6.453125l3.5625 0l0 -1.328125l-3.5625 0l0 1.328125zm-5.71875 1.1875q-0.078125 0.75 -0.15625 1.484375l4.390625 0l0 -1.484375l-4.234375 0z" fill-rule="nonzero"/><path fill="#000000" d="m526.6678 217.16754l0 1.640625l-13.296875 0l0 -1.640625l13.296875 0zm-1.046875 7.28125l-11.28125 0l0 -1.640625l11.28125 0l0 1.640625zm-13.6562195 4.375l16.03122 0l0 1.625l-16.03122 0l0 -1.625z" fill-rule="nonzero"/><path fill="#000000" d="m519.38654 244.51129l6.90625 0l-0.75 6.6875q-0.296875 2.671875 -2.140625 2.671875l-2.96875 0l-0.375 -1.640625l3.1875 0q0.515625 0 0.671875 -1.109375l0.59375 -5.203125l-5.34375 0q-0.96875 4.75 -6.390625 8.171875l-1.0312195 -1.5625q5.7812195 -2.96875 6.1562195 -9.28125l0.078125 -1.328125l-6.2343445 0l0 -1.640625l7.2655945 0l0 -2.96875l1.640625 0q0.734375 0.15625 0.078125 0.59375l0 2.375l7.484375 0l0 1.640625l-8.53125 0l-0.296875 2.59375z" fill-rule="nonzero"/><path fill="#000000" d="m521.5428 272.0113q2.453125 1.546875 6.671875 2.296875l-0.59375 1.859375q-4.890625 -1.109375 -7.421875 -3.125q-3.265625 2.078125 -7.9375 3.203125l-0.6718445 -1.71875q4.3905945 -0.8125 7.3593445 -2.515625q-1.9375 -2.15625 -2.96875 -4.75l-2.3125 0l0 -1.421875l5.421875 0l0 -2.671875l-7.1249695 0l0 -1.40625l7.1249695 0l0 -2.375l1.640625 0q0.734375 0.15625 0.0625 0.59375l0 1.78125l7.203125 0l0 1.40625l-7.203125 0l0 2.671875l3.421875 0l0.4375 -0.4375l1.265625 1.109375l-0.296875 0.15625q-1.859375 3.40625 -4.078125 5.34375zm-3.78125 -4.75q0.953125 2.21875 2.515625 3.703125q1.78125 -1.484375 2.96875 -3.703125l-5.484375 0z" fill-rule="nonzero"/><path fill="#000000" d="m516.9334 282.73004q-0.4375 1.84375 -1.328125 3.703125q0.734375 0.15625 0.140625 0.59375l0 10.984375l-1.484375 0l0 -9.203125q-0.8125 1.1875 -1.625 2.0l-1.1874695 -1.328125q3.1874695 -3.046875 4.1562195 -7.796875l1.5625 0.59375q0.296875 0.296875 -0.234375 0.453125zm6.90625 3.265625l0 -4.234375l1.40625 0q0.59375 0.078125 0.078125 0.4375l0 3.796875l3.046875 0l0 1.40625l-3.046875 0l0 9.203125q0 1.1875 -1.1875 1.1875l-2.21875 0l-0.375 -1.40625l2.0 0q0.296875 0 0.296875 -0.296875l0 -8.6875l-6.671875 0l0 -1.40625l6.671875 0zm-4.296875 3.328125q1.25 1.5625 2.296875 3.5l-1.484375 0.953125q-1.046875 -2.140625 -2.234375 -3.5625l1.421875 -0.890625z" fill-rule="nonzero"/><path fill="#000000" fill-opacity="0.0" d="m205.54855 402.47507l-81.41732 -134.3937" fill-rule="evenodd"/><path stroke="#000000" stroke-width="1.0" stroke-linejoin="round" stroke-linecap="butt" stroke-dasharray="8.0,3.0,1.0,3.0" d="m205.54855 402.47507l-81.41732 -134.3937" fill-rule="evenodd"/><path fill="#000000" fill-opacity="0.0" d="m208.13387 403.76904l186.11021 -135.71655" fill-rule="evenodd"/><path stroke="#000000" stroke-width="1.0" stroke-linejoin="round" stroke-linecap="butt" stroke-dasharray="8.0,3.0,1.0,3.0" d="m208.13387 403.76904l186.11021 -135.71655" fill-rule="evenodd"/><path fill="#000000" fill-opacity="0.0" d="m167.56693 394.88715l87.086624 0l0 32.31494l-87.086624 0z" fill-rule="evenodd"/><path fill="#000000" d="m191.72318 407.80713q1.09375 0 2.1875 -0.0625l0 1.234375q-1.09375 -0.078125 -2.1875 -0.078125l-2.03125 0q-0.21875 1.09375 -0.4375 2.40625l4.0 0q-0.078125 1.09375 -0.078125 2.34375l0 3.125q0 1.234375 0.078125 2.546875l-1.390625 0l0 -6.921875l-4.953125 0l0 7.078125l-1.375 0q0.0625 -1.6875 0.0625 -2.703125l0 -3.0625q0 -1.15625 -0.0625 -2.40625l2.40625 0q0.28125 -1.59375 0.28125 -2.40625l-0.796875 0q-1.234375 0 -2.546875 0.078125l0 -1.234375q1.375 0.0625 2.546875 0.0625l4.296875 0zm-7.578125 8.828125q-0.734375 -0.140625 -1.3125 -0.140625q0.296875 -1.25 0.4375 -1.828125l-1.609375 0l0 6.78125q-0.0625 1.234375 -0.9375 1.515625q-0.875 0.296875 -1.96875 0.296875q-0.140625 -0.796875 -0.515625 -1.53125q1.609375 0.15625 1.859375 -0.03125q0.265625 -0.1875 0.265625 -0.90625l0 -6.125l-0.8125 0q-0.9375 0 -1.96875 0.078125l0 -1.25q1.03125 0.078125 1.90625 0.078125l5.390625 0q-0.375 1.453125 -0.734375 3.0625zm6.203125 -3.203125q-0.296875 0.875 -0.375 2.265625q-0.0625 1.375 -0.390625 3.09375q-0.328125 1.703125 -1.46875 2.84375q-1.125 1.125 -3.015625 2.140625q-0.65625 -0.515625 -1.3125 -0.953125q1.75 -0.65625 2.796875 -1.59375q1.0625 -0.953125 1.5 -2.15625q0.4375 -1.203125 0.546875 -2.65625q0.109375 -1.453125 0.109375 -3.140625l1.609375 0.15625zm-9.046875 -0.078125q-1.015625 -1.09375 -2.40625 -2.1875q0.375 -0.359375 0.8125 -0.875q0.5 0.359375 1.015625 0.796875q0.9375 -1.375 1.53125 -2.03125l-1.609375 0q-1.453125 0 -2.765625 0.0625l0 -1.234375q1.3125 0.078125 2.703125 0.078125l3.484375 0l0 1.09375q-1.09375 0.796875 -2.46875 2.84375l0.65625 0.578125q-0.59375 0.515625 -0.953125 0.875zm9.1875 6.34375q2.765625 2.109375 3.78125 3.0625q-0.65625 0.5 -1.015625 0.9375q-0.953125 -0.9375 -1.71875 -1.640625q-0.765625 -0.6875 -1.78125 -1.265625q0.375 -0.515625 0.734375 -1.09375z" fill-rule="nonzero"/><path fill="#000000" d="m201.6763 407.93213q-0.4375 1.84375 -1.328125 3.703125q0.734375 0.15625 0.140625 0.59375l0 10.984375l-1.484375 0l0 -9.203125q-0.8125 1.1875 -1.625 2.0l-1.1875 -1.328125q3.1875 -3.046875 4.15625 -7.796875l1.5625 0.59375q0.296875 0.296875 -0.234375 0.453125zm6.90625 3.265625l0 -4.234375l1.40625 0q0.59375 0.078125 0.078125 0.4375l0 3.796875l3.046875 0l0 1.40625l-3.046875 0l0 9.203125q0 1.1875 -1.1875 1.1875l-2.21875 0l-0.375 -1.40625l2.0 0q0.296875 0 0.296875 -0.296875l0 -8.6875l-6.671875 0l0 -1.40625l6.671875 0zm-4.296875 3.328125q1.25 1.5625 2.296875 3.5l-1.484375 0.953125q-1.046875 -2.140625 -2.234375 -3.5625l1.421875 -0.890625zm19.0625 -1.109375q1.78125 -2.453125 2.375 -6.96875l1.5625 0.21875q0.21875 0.21875 -0.140625 0.4375l-0.59375 2.671875l4.375 0l0.140625 -0.296875l1.125 0.53125q0.515625 0.21875 -0.078125 0.515625q-0.75 2.375 -2.0 4.15625l-1.265625 -0.75q1.109375 -1.703125 1.40625 -2.734375l-2.0 0l0 2.671875q0 4.296875 4.296875 7.484375l-1.03125 1.5q-3.125 -2.53125 -3.78125 -5.71875q-0.75 4.0 -4.234375 6.234375l-1.046875 -1.1875q4.3125 -2.75 4.3125 -8.25l0 -2.734375l-0.59375 0q-0.59375 1.78125 -1.5625 3.03125l-1.265625 -0.8125zm-3.109375 -6.96875q0.59375 0.0625 0.078125 0.4375l0 1.703125l3.328125 0l0 1.1875l-3.328125 0l0 1.640625l2.734375 0l0 1.1875l-6.96875 0l0 -1.1875l2.75 0l0 -1.640625l-3.265625 0l0 -1.1875l3.265625 0l0 -2.140625l1.40625 0zm0.140625 15.734375q0 1.1875 -1.1875 1.1875l-1.109375 0l-0.140625 -1.40625l0.65625 0q0.296875 0 0.296875 -0.3125l0 -4.15625l-3.78125 0l0 -1.1875l8.90625 0l0 1.1875l-3.640625 0l0 4.6875zm2.671875 -7.203125l-6.96875 0l0 -1.1875l6.96875 0l0 1.1875zm-5.109375 3.703125q0.65625 0.234375 -0.078125 0.59375q-0.296875 1.265625 -1.5625 2.984375l-1.265625 -0.96875q1.1875 -1.484375 1.5625 -3.046875l1.34375 0.4375zm4.296875 -0.59375q1.046875 1.046875 1.5625 2.15625l-1.34375 0.890625q-0.65625 -1.265625 -1.40625 -2.296875l1.1875 -0.75z" fill-rule="nonzero"/><path fill="#000000" fill-opacity="0.0" d="m457.0668 302.1773l-365.25986 0" fill-rule="evenodd"/><path stroke="#000000" stroke-width="1.0" stroke-linejoin="round" stroke-linecap="butt" d="m457.0668 302.1773l-359.25986 0" fill-rule="evenodd"/><path fill="#000000" stroke="#000000" stroke-width="1.0" stroke-linecap="butt" d="m97.806946 300.52557l-4.538101 1.6517334l4.538101 1.6517334z" fill-rule="evenodd"/><path fill="#000000" fill-opacity="0.0" d="m506.4987 394.88715l-102.519684 -91.18112" fill-rule="evenodd"/><path stroke="#000000" stroke-width="1.0" stroke-linejoin="round" stroke-linecap="butt" stroke-dasharray="8.0,3.0,1.0,3.0" d="m506.4987 394.88715l-102.519684 -91.18112" fill-rule="evenodd"/><path fill="#000000" fill-opacity="0.0" d="m476.53018 394.88715l59.93698 0l0 32.31494l-59.93698 0z" fill-rule="evenodd"/><path fill="#000000" d="m496.2958 414.90088l-2.671875 0.15625l0 2.671875q0 4.296875 -6.09375 5.859375l-0.515625 -1.5625q5.125 -1.03125 5.125 -4.453125l0 -2.453125l-3.5625 0.15625q-0.078125 0.59375 -0.375 0.296875l-0.375 -1.9375l2.96875 0l1.5625 -3.109375l-5.125 0l0 -1.40625l6.984375 0l0 -2.609375l1.40625 0q0.59375 0.078125 0.078125 0.453125l0 2.15625l6.96875 0l0 1.40625l-8.375 0l-1.859375 3.1875l6.828125 -0.21875q-1.109375 -1.046875 -2.53125 -1.9375l1.046875 -0.890625q2.671875 1.640625 4.828125 3.859375l-1.125 1.125q-0.4375 -0.53125 -0.953125 -0.96875l-2.75 0.140625l0 6.09375q0 0.515625 0.4375 0.515625l2.90625 0q0.515625 0 0.59375 -0.4375l0.21875 -1.640625l1.484375 0.375l-0.21875 1.5625q-0.234375 1.5625 -1.421875 1.5625l-4.078125 0q-1.40625 0 -1.40625 -1.5l0 -6.453125z" fill-rule="nonzero"/><path fill="#000000" d="m515.24896 408.83838l0 -1.890625q0.875 0.0625 1.96875 0.140625q-0.375 0.515625 -0.4375 1.75l2.6875 0q1.234375 0 2.1875 -0.078125l0 1.3125q-1.015625 -0.078125 -2.1875 -0.078125l-2.765625 0l-0.140625 1.609375l3.703125 0q-0.0625 0.875 -0.0625 2.328125l0 7.4375q1.453125 0 2.109375 -0.078125l0 1.3125q-0.953125 -0.0625 -2.625 -0.0625l-6.84375 0q-1.6875305 0 -2.7812805 0.0625l0 -1.3125q0.65625 0.078125 2.0469055 0.078125l0 -7.4375q0 -1.375 -0.078125 -2.328125l3.0 0l0.140625 -1.609375l-1.3125 0q-1.828125 0 -2.8437805 0.078125l0 -1.3125q0.953125 0.078125 2.8437805 0.078125l1.390625 0zm-4.2344055 -1.3125q-0.578125 0.65625 -1.671875 3.34375l0 9.625q0 1.53125 0.0625 2.921875l-1.515625 0q0.0625 -1.25 0.0625 -2.703125l0 -7.5q-0.875 1.453125 -1.59375 2.328125q-0.59375 -0.796875 -1.09375 -1.234375q0.71875 -0.734375 2.0 -2.8125q1.28125 -2.078125 2.0 -4.703125q1.015625 0.515625 1.75 0.734375zm7.8750305 6.5625l0 -1.46875l-5.390625 0l0 1.46875l5.390625 0zm0 7.28125l0 -1.390625l-5.390625 0l0 1.390625l5.390625 0zm0 -2.484375l0 -1.3125l-5.390625 0l0 1.3125l5.390625 0zm0 -2.390625l0 -1.3125l-5.390625 0l0 1.3125l5.390625 0z" fill-rule="nonzero"/></g></svg>